<svg data-v-70b83f88="" version="1.0" xmlns="http://www.w3.org/2000/svg" xmlns:xlink="http://www.w3.org/1999/xlink" width="100%" height="100%" viewBox="35 80 280 90" preserveAspectRatio="xMidYMid meet" color-interpolation-filters="sRGB" style="margin: auto;">
<g data-v-70b83f88="" fill="#FB2E86" class="icon-text-wrapper icon-svg-group iconsvg" transform="translate(42.23804473876953,88.21004486083984)"><g fill="#c471f5" class="iconsvg-imagesvg icon_container" transform="matrix(1,0,0,1,0,0)" mask="url(#31a7030d-7d98-4085-a4f8-751964a7bf66)" opacity="1"><rect fill="#FB2E86" fill-opacity="0" stroke-width="2" x="0" y="0" width="73.57990777984891" height="73.57990777984891" class="image-rect"></rect> <svg viewBox="0 0 60 61.76715840187772" x="0" y="0" width="73.57990777984891" height="73.57990777984891" class="image-svg-svg bn" style="overflow: visible;"><g hollow-target="iconBnOutline"><g mask="url(#527a0e8d-b262-41d5-8a86-cf4cafac7b5e)"><svg xmlns="http://www.w3.org/2000/svg" viewBox="0.00023 0.00334 475.28979 489.28769" style="overflow: visible;" width="60" height="61.76715840187772" x="0" y="0" filtersec="colorsf3426116504" filter="url(#JM9nY3uA_sLioR1KG1nw9)"><g transform="scale(1, 1) skewX(0)"><path d="M348.28 47.86c-6.89-3.19-13.55-6.92-20.81-9.23 3.72 1.61 7.48 3.13 9.24 5.21.26.27 2 1 3 1.52l2.7 1.45c9.94 4.1 18.07 10.92 27.25 16.24-7.43-3.36-13.36-8.49-20.21-12.29a26.45 26.45 0 0 1 5.29 3.56 13.73 13.73 0 0 0 3.56 2.39c4.14 1.77 7.24 4.61 12.68 8C362 61.15 355.5 54.58 348.05 52c-2.14-.8-4.24-1.89-6.35-2.87 9.55 4.13 18.32 9.72 27.19 15.14 37.11 24.73 67.05 60.5 83.28 102.2 1 2.92 2.48 6.34 1.9 8a203 203 0 0 0-19.43-38.16c-3.33-5.32-6.17-11.08-10.53-16-23.45-29.73-53.95-55.26-89.17-69.94-9.75-3.8-19.81-8.42-30.05-10.6-12.7-3.3-25.68-6.38-38.7-6.79-19.66 0-40.35.27-59.59 3.39a208 208 0 0 0-72.79 26.84c-5.89 3.4-10.52 6.6-13 10.16 2.65-.37 9.1-5.37 12.19-5.62-12.37 8.32-24.35 17.94-33.43 28.6 15.43-13.86 33.3-24.79 51.63-33.58A223.51 223.51 0 0 1 211 43.42c20.09-3.73 40.85-3.5 61.15-1.49a229.19 229.19 0 0 0-40.24-.5l3.4-.19c21.89-2.39 44.07 1 65 7.13 2.6.71 4.74 1.35 6.59 2.06 10.29 3.77 20.75 6.72 30.44 11.33a94.88 94.88 0 0 1 17.28 9 157.39 157.39 0 0 1 16.29 10.61c-3.82-1.78-7.35-4.65-11.5-6.8C344 65 327.3 57.91 310 52.41a12.47 12.47 0 0 1 1.68 1.26c1 1.22 4.4 2.91 7.92 4.39 7.69 2.8 13.9 7.94 22 10.7 11.24 7.54 23.94 14.09 33.69 23.61 11.71 9.26 22.22 20.63 31.61 32.52 4 5.15 9.25 11.24 11.17 18-2.89-1.76-5.67-6.69-8.72-10.39-3.39-4.32-6.37-8.91-10.12-12.9a196.22 196.22 0 0 0-53.5-43.82c-6.72-4.22-14-7.44-21.17-10.9-6.47-2.07-12.48-3.34-19.5-6.31-2.77-.92-6.13-1.17-9.44-2.89-2-1-1.89.81-5.62-.32-5.39-1.76-11.18-1.73-16.7-2.68-13.38-1.68-27.3-2.53-40.47-.83-9.63.75-19.16 3-28.69 4.82l-14.57 4-13.82 5.23.43.3c-5.33 1.8-10.18 4.64-15.25 7.13-8.58 3.73-16.5 9.06-24.31 14-19.38 13.86-37.35 30.79-50.16 50.93-6.8 10.73-13.59 22.14-18.81 34-6.84 17.43-12.81 35.39-14.9 54.18a209.6 209.6 0 0 0 0 48.09 196.32 196.32 0 0 0 25.3 75.8c8.07 14.78 18.68 28 30.28 40.31a229.1 229.1 0 0 0 26.93 23.13c14.26 9.09 28.89 18.23 45.18 23.33 5.7 2.31 9.53 4.64 14.61 5.91 9.9 3.12 20.08 4.61 30.25 6.49 8.87.54 17.78 2 26.72 1.65.87 0 .57.26 1.11.33 10.83.16 21.45-.89 32-1.46a18.54 18.54 0 0 0 3.05-.54c9.66-2.83 19.61-3.91 29-7.5l14.92-5.3c.56 1.9-5.76 5.4-8.91 8.33 4.71-2.39 6.89-4 11-5.15 4.48-1.31 13.47-5.95 14-8 .5-1.28.82-1.73 3.5-3.14 2.1-1.11 4.73-2.84 4.44-1.44-.24 1.21 1.42-.1 2.72-1a10.52 10.52 0 0 1 3.45-1.85c3.21-.26 7.41-3.69 11.52-6.2A209.49 209.49 0 0 0 427.36 359c18.19-29.53 29.29-63.79 29.91-98.5.09-3.61.12-7.77 1-11.27a21.7 21.7 0 0 1 .23 6.25c-.89 36.37-10.8 72.72-30 103.91-7.49 13.15-17.1 25-27.34 36.12-3.81 4.63-8.44 8.42-12.78 12.53 6.66-5.4 13.26-10.8 18.77-17.5A71.62 71.62 0 0 1 391 406.39a54.18 54.18 0 0 1 5-3.58 9.34 9.34 0 0 0 3.11-2.71c2.44-3.61 5.68-6 9.94-10.52-5.11 7.81-12.07 13.18-17.37 18.51-5.28 6.24-12.6 10.92-19.25 15.93-6.31 5.44-14.36 8.64-21.35 13.51 2.89.27 3.41.28.55 2.11l14.88-9.06a222.48 222.48 0 0 0 81.89-100.14c1.07-2.85 2.14-6.31 3.65-7.19a183.6 183.6 0 0 1-17.25 39 172.22 172.22 0 0 1-10.6 15.95c-20.76 32.13-52.9 56.9-87.67 73.42a219.4 219.4 0 0 1-30.53 11c-12.82 4.16-26.33 5.16-39.36 7.62-19.89 3.13-41.6 1.82-61.09-2.41a233.55 233.55 0 0 1-73.64-29.43c-3.52-2.2-6.66-3.87-9.56-5.32l2.17 1.42a33.72 33.72 0 0 1-6.6-3.75l-.8-.43c.92 2.86 8.41 7 10.25 9.34-13.78-7.62-26.15-17.92-37.95-27 12.38 12.89 26.16 24.71 41.53 34.12a74.76 74.76 0 0 0 12.52 6.57c3.44 1.46 7.24 3.23 10.53 5 7.84 4.18 16.58 6.47 24.79 10.12 3.43 1.12 7.59 3 10.84 3.29 5.95.65 12.31 2.6 18.49 3.21 15.78 2.49 31.58 2.4 47.84 3a48.72 48.72 0 0 0 5.73-.41 125.19 125.19 0 0 0 13.45-1.56c6.45-1.13 13.2-1.58 19.25-3.11 23.28-5.95 46.08-13.85 67.17-25.55 2.56-1.5 4.72-2.7 6.7-3.64 10.49-6.08 19.78-13.84 28.35-21.84 10.39-9.73 20.53-19.85 29-31.2-1.95 4.22-5.35 7.92-8.69 11.8-12.7 15.31-28.14 28.3-44.72 40a15 15 0 0 1 2.23-.65c1.78 0 5.36-2.35 9-4.75 7.79-5 15.55-9.73 22-17.11 12.5-9.41 21.88-23 32-34.73 9.59-14.38 18.72-29.62 25.44-45.82a163.12 163.12 0 0 1 9.21-22.76c.79 3.92-1.92 10.12-3.77 15.44a129.6 129.6 0 0 1-7.42 17.89 237.34 237.34 0 0 1-46.62 67.36c-7.09 6.19-13.84 12.71-21.38 18.46-6.37 4.81-11.27 10.55-19.52 14.57-3.07 1.63-6.17 4.19-10.29 5.7-2.55.83-.95 2.29-5.27 4.17l-18.24 9c-15.06 6.27-31 10.79-46.53 14.67-11.43 2.29-23.06 4.56-34.92 4.85a157.09 157.09 0 0 1-18.37.45l-18-.63.32.47-20.57-2.7a269.25 269.25 0 0 1-33.5-8.93c-28.19-8.94-54.24-24.62-77.36-42.88-12.32-9.94-23.64-22.08-33.76-34.63-15-18-25.67-39.14-34.69-60.58C15 320.83 9.6 301.47 7.46 281.72a241.54 241.54 0 0 1 7.89-97.89 228.07 228.07 0 0 1 25.14-55.9c7.25-12.3 16.21-23.61 25.51-34.29 13.38-15.43 29.21-28.43 45.7-40.21 6-4.21 11.3-5.52 16.53-8.75a200.37 200.37 0 0 1 33-15.11 191.75 191.75 0 0 1 30-8.57c1-.23.71.12 1.33.06a150.22 150.22 0 0 1 36.52-3.69 35.13 35.13 0 0 0 3.52-.22c11.46-1.2 22.67.26 33.88 1.26a90.16 90.16 0 0 1 17.56 3c-.51 1.47-5.6 1.27-9.92 1.76 8.51 1.49 17.19 2.22 25.5 4.72a7.71 7.71 0 0 0 1.74 0c1.32-.51 1.92-.58 5.1.43 2.49.79 5.87 1.54 4.53 2.28-.2.12.12.27.12.27 6.15 1.54 12 4.07 18 6.19 46 18.39 86.21 51.61 111.86 94.17C460.74 163 471.44 199.89 474 237.07c.3 3.87.7 8.38.23 12.15a24.91 24.91 0 0 1-.88-6.68C472 203.64 460.81 165 440.07 132a212.79 212.79 0 0 0-29.28-38.23 230 230 0 0 0-62.51-45.91zM238.07 19.1c-.83.82 1.21 1.18 3.76 1.37 1.73.17 3.69 0 5.93.3h6.36c1.38 0 4.57.28 3.49-.53-.92-.68-2.67-.64-4.49-.38-3.43.53-6.14.3-7.5-.85-.53-.47-1-1.14-4.38-.82a6.27 6.27 0 0 0-3.17.91zm-139.61 84l-13.1 14.63.22.05zM346 442.52a137.52 137.52 0 0 1-29.65 11.13c-7.12 2.5-15 4.11-18.89 6.66l-1.36.58a213.91 213.91 0 0 0 49.9-18.37zm39.38-31.71l-.69.63.31-.25zm-92.07 39.66c-.58.95 1.29.95 3.61.67l5.36-.88 5.56-1.69c1.19-.38 3.94-1.35 2.76-1.68-1-.31-2.41.41-3.92 1.08-2.81 1.39-5.22 2.06-6.73 1.12-.58-.36-1.16-.93-4 0a5.23 5.23 0 0 0-2.66 1.38zM194.65 47.6l5.72-1.15c1.52-.21 3.36-1 5-1.35l8-1.45a119.44 119.44 0 0 0-18.72 3.95zm-72.78 35.17c4.39-3.16 8.62-6.59 13.58-8.9 2.92-1.52 6.76-3 9-4.9 4-3.82 9.86-5.68 14.78-8.35a91.6 91.6 0 0 1 10.57-5c-17.01 7.02-33.43 15.76-47.93 27.15zM324.5 41.82h-.07c-8-3-16.13-6.18-24.79-7.84l.21.26a158.57 158.57 0 0 1 24.65 7.58z" fill="#000000"></path><path d="M143.37 26.86l1.5-.37c1.29-.14 5.39-2.21 7.81-3.23l21.71-8.94c7.65-2.72 16.93-5.72 25.9-7.13 12.41-1.84 24.88-4 37.69-3.53-17.75-.3-36.21.69-54.21 6.48-4.25 1.38-9.07 2.07-13.44 3.65a76 76 0 0 0-9.4 3.49c-9.33 4.27-18.61 8.53-27.83 11.72-4.17 1.38-5.57 3.41-8.08 4.53-9.32 3.84-19.36 11.77-27.78 16.15C91 54.43 84.84 59.32 79 64.66a121.81 121.81 0 0 0-16.79 16.55C55.05 88.91 49 97.5 42.11 105.6c-5.07 5.69-8.39 12.83-12.54 19.26a249.39 249.39 0 0 0-28.3 73.45c1.3-1.24 2.08-3.58 2.83-6.46 4.66-20.67 13.49-39.88 23.12-58.4 4.7-8.4 10.56-16.71 14.93-25.06a17.13 17.13 0 0 1 3-3.76c7.29-7 14.23-16.77 21.48-24.35a97.42 97.42 0 0 1 16.08-15c3.34-2.39 6.24-5.37 9.73-7.68 6.94-4.74 13.49-10 20.75-14.27 5-3 10.54-6.08 14.91-9.13 5.14-3.31 9.72-5.88 14.87-7.18-21.59 9.72-41.22 23.34-59 38.69a253.52 253.52 0 0 0-35 37.53c-23.07 28.88-38.44 64.74-45 101.6C-.75 228-.65 251.73 1.13 275.18l.74-.05a279.7 279.7 0 0 1 4.61-75.69 263.41 263.41 0 0 1 27.1-70.77c25.15-43.89 63.55-80.5 109.79-101.81zM475.29 163.78l-.82-3A239.14 239.14 0 0 0 425.37 83c20.94 23.8 39.03 50.69 49.92 80.78zM429.05 317.38a22.19 22.19 0 0 0-1.11 2.24 200.53 200.53 0 0 1-38.78 62.17c18.07-18.04 30.77-40.79 39.89-64.41zM81.46 338.85c8.07 13.61 15.83 27.68 27 39.19a83.55 83.55 0 0 0 16.15 15.26 16.44 16.44 0 0 1 2.67 2.49c5 5.9 12.58 11.47 19.73 15.16l14.61 8.66c2.7 1.69 5.55 3.17 8.41 4.69 5.84 2.9 12.06 5 18.12 7.5a91.47 91.47 0 0 0 13.18 3.45c5.28 1.09 9.73 1.08 14 3.42a26.17 26.17 0 0 0 6.51 1.32 96.7 96.7 0 0 0 18.39.42c6.35-.11 13.78-1.16 20.83-1.18 9.71-.38 19.35-2.3 29.1-3.88-13.72 2.36-27.63 2.51-42.05 3.65-3.43.3-7.13-.33-10.69-.53a45.89 45.89 0 0 0-7.69-.31c-7.9.43-15.79-1.41-22.8-3.77-3.08-1.33-4.95-.7-6.89-1.61-7.06-2.9-16.67-4.78-22.62-9.11-11.15-3.94-21.32-10.3-31.42-16.37-7-3.71-13.09-8.94-19-14.13-3.83-4.25-8.33-7.9-12.57-11.77a210.88 210.88 0 0 1-34.13-47.76c-.41 1.42.2 3.19 1.16 5.21z" fill="#000000"></path><path d="M80.9 155.55c-2.31 3.24-3.65 6.89-5 10.39-1.93 5.35-5.47 9.9-7.15 15.58-1.27 3.84-2.86 7.66-4 11.79 3.42-4.78 4.88-12.73 14.08-31.52a181.51 181.51 0 0 1 19.08-29.64l-.93.26a181.69 181.69 0 0 0-16.08 23.14zM97.32 375.32A169.45 169.45 0 0 0 149 419.88c-19.55-11.98-36.65-27.37-51.68-44.56zM296.63 431.13c7.56-1.09 14.17-4.94 21.37-6.9a225 225 0 0 1-56.61 11.29c6.68.73 12.91 0 20.38-1.17 4.85-.79 9.89-2.35 14.86-3.22z" fill="#000000"></path><path d="M69.55 329.83a163.66 163.66 0 0 0 22.08 38.4l.42-.48a175.52 175.52 0 0 1-20.87-35.92c21.13 45.68 61.3 82.31 108.66 99.11A187.31 187.31 0 0 1 118.31 394c-10-9-19.56-18.67-26.92-30.18-16.17-23.94-29.17-51-33.85-80-3.49-18.05-3.44-36.64-2.17-54.95l-.73-.1c-3.75 34.06.9 69.54 15.51 100.81zM71.15 422.67c-3.42-3.82-6.75-7.5-10.31-10.84-5.63-4.9-8.92-11.63-13.61-17.61A129.61 129.61 0 0 1 38 381c2.83 6.77 8.08 16.18 26.66 36.25A236.15 236.15 0 0 0 99 447.93l-.45-1.07c-9.99-7.1-18.62-15.8-27.4-24.19zM76.67 79c-20.21 19.35-37.52 42.2-48.95 68.11A273.23 273.23 0 0 1 76.67 79zM247.41.82c9.89 1 19.79.36 29.45 2.18a229.18 229.18 0 0 0-76.48.44l27-2c6.46-.52 13.44-.73 20.03-.62zM7.48 210.08c3.25-18 8.87-35.67 15.68-52.7l-.62-.1c-6.9 16.92-12.72 34.45-15.67 52.58z" fill="#000000"></path></g><defs><filter id="JM9nY3uA_sLioR1KG1nw9"><feColorMatrix type="matrix" values="0 0 0 0 0.765625  0 0 0 0 0.44140625  0 0 0 0 0.95703125  0 0 0 1 0"></feColorMatrix></filter></defs></svg></g> <g filter="url(#colors4687367488)"><svg xmlns="http://www.w3.org/2000/svg" xmlns:xlink="http://www.w3.org/1999/xlink" version="1.1" x="10" y="10.294524200938863" viewBox="2.5 2.497999906539917 37 45.374000549316406" enable-background="new 0 0 42 50.37" xml:space="preserve" width="40" height="41.17811" class="image-svg-icon"><path d="M39.5,38.498c0-10.032-8.031-18.206-18-18.475V2.498h-1v17.525c-9.969,0.269-18,8.442-18,18.475v0.5h9.032  c0.325,4.946,4.441,8.874,9.468,8.874c5.027,0,9.144-3.928,9.469-8.874H39.5V38.498z M21,46.872c-4.475,0-8.146-3.479-8.468-7.874  h16.937C29.146,43.393,25.475,46.872,21,46.872z M3.507,37.998c0.266-9.419,8.011-17,17.493-17s17.228,7.581,17.493,17H3.507z"></path></svg></g></g><mask id="527a0e8d-b262-41d5-8a86-cf4cafac7b5e"><g fill="white"><svg xmlns="http://www.w3.org/2000/svg" viewBox="0.00023 0.00334 475.28979 489.28769" style="overflow: visible;" width="60" height="61.76715840187772" x="0" y="0" filtersec="colorsf3426116504"><g transform="scale(1, 1) skewX(0)"><path d="M348.28 47.86c-6.89-3.19-13.55-6.92-20.81-9.23 3.72 1.61 7.48 3.13 9.24 5.21.26.27 2 1 3 1.52l2.7 1.45c9.94 4.1 18.07 10.92 27.25 16.24-7.43-3.36-13.36-8.49-20.21-12.29a26.45 26.45 0 0 1 5.29 3.56 13.73 13.73 0 0 0 3.56 2.39c4.14 1.77 7.24 4.61 12.68 8C362 61.15 355.5 54.58 348.05 52c-2.14-.8-4.24-1.89-6.35-2.87 9.55 4.13 18.32 9.72 27.19 15.14 37.11 24.73 67.05 60.5 83.28 102.2 1 2.92 2.48 6.34 1.9 8a203 203 0 0 0-19.43-38.16c-3.33-5.32-6.17-11.08-10.53-16-23.45-29.73-53.95-55.26-89.17-69.94-9.75-3.8-19.81-8.42-30.05-10.6-12.7-3.3-25.68-6.38-38.7-6.79-19.66 0-40.35.27-59.59 3.39a208 208 0 0 0-72.79 26.84c-5.89 3.4-10.52 6.6-13 10.16 2.65-.37 9.1-5.37 12.19-5.62-12.37 8.32-24.35 17.94-33.43 28.6 15.43-13.86 33.3-24.79 51.63-33.58A223.51 223.51 0 0 1 211 43.42c20.09-3.73 40.85-3.5 61.15-1.49a229.19 229.19 0 0 0-40.24-.5l3.4-.19c21.89-2.39 44.07 1 65 7.13 2.6.71 4.74 1.35 6.59 2.06 10.29 3.77 20.75 6.72 30.44 11.33a94.88 94.88 0 0 1 17.28 9 157.39 157.39 0 0 1 16.29 10.61c-3.82-1.78-7.35-4.65-11.5-6.8C344 65 327.3 57.91 310 52.41a12.47 12.47 0 0 1 1.68 1.26c1 1.22 4.4 2.91 7.92 4.39 7.69 2.8 13.9 7.94 22 10.7 11.24 7.54 23.94 14.09 33.69 23.61 11.71 9.26 22.22 20.63 31.61 32.52 4 5.15 9.25 11.24 11.17 18-2.89-1.76-5.67-6.69-8.72-10.39-3.39-4.32-6.37-8.91-10.12-12.9a196.22 196.22 0 0 0-53.5-43.82c-6.72-4.22-14-7.44-21.17-10.9-6.47-2.07-12.48-3.34-19.5-6.31-2.77-.92-6.13-1.17-9.44-2.89-2-1-1.89.81-5.62-.32-5.39-1.76-11.18-1.73-16.7-2.68-13.38-1.68-27.3-2.53-40.47-.83-9.63.75-19.16 3-28.69 4.82l-14.57 4-13.82 5.23.43.3c-5.33 1.8-10.18 4.64-15.25 7.13-8.58 3.73-16.5 9.06-24.31 14-19.38 13.86-37.35 30.79-50.16 50.93-6.8 10.73-13.59 22.14-18.81 34-6.84 17.43-12.81 35.39-14.9 54.18a209.6 209.6 0 0 0 0 48.09 196.32 196.32 0 0 0 25.3 75.8c8.07 14.78 18.68 28 30.28 40.31a229.1 229.1 0 0 0 26.93 23.13c14.26 9.09 28.89 18.23 45.18 23.33 5.7 2.31 9.53 4.64 14.61 5.91 9.9 3.12 20.08 4.61 30.25 6.49 8.87.54 17.78 2 26.72 1.65.87 0 .57.26 1.11.33 10.83.16 21.45-.89 32-1.46a18.54 18.54 0 0 0 3.05-.54c9.66-2.83 19.61-3.91 29-7.5l14.92-5.3c.56 1.9-5.76 5.4-8.91 8.33 4.71-2.39 6.89-4 11-5.15 4.48-1.31 13.47-5.95 14-8 .5-1.28.82-1.73 3.5-3.14 2.1-1.11 4.73-2.84 4.44-1.44-.24 1.21 1.42-.1 2.72-1a10.52 10.52 0 0 1 3.45-1.85c3.21-.26 7.41-3.69 11.52-6.2A209.49 209.49 0 0 0 427.36 359c18.19-29.53 29.29-63.79 29.91-98.5.09-3.61.12-7.77 1-11.27a21.7 21.7 0 0 1 .23 6.25c-.89 36.37-10.8 72.72-30 103.91-7.49 13.15-17.1 25-27.34 36.12-3.81 4.63-8.44 8.42-12.78 12.53 6.66-5.4 13.26-10.8 18.77-17.5A71.62 71.62 0 0 1 391 406.39a54.18 54.18 0 0 1 5-3.58 9.34 9.34 0 0 0 3.11-2.71c2.44-3.61 5.68-6 9.94-10.52-5.11 7.81-12.07 13.18-17.37 18.51-5.28 6.24-12.6 10.92-19.25 15.93-6.31 5.44-14.36 8.64-21.35 13.51 2.89.27 3.41.28.55 2.11l14.88-9.06a222.48 222.48 0 0 0 81.89-100.14c1.07-2.85 2.14-6.31 3.65-7.19a183.6 183.6 0 0 1-17.25 39 172.22 172.22 0 0 1-10.6 15.95c-20.76 32.13-52.9 56.9-87.67 73.42a219.4 219.4 0 0 1-30.53 11c-12.82 4.16-26.33 5.16-39.36 7.62-19.89 3.13-41.6 1.82-61.09-2.41a233.55 233.55 0 0 1-73.64-29.43c-3.52-2.2-6.66-3.87-9.56-5.32l2.17 1.42a33.72 33.72 0 0 1-6.6-3.75l-.8-.43c.92 2.86 8.41 7 10.25 9.34-13.78-7.62-26.15-17.92-37.95-27 12.38 12.89 26.16 24.71 41.53 34.12a74.76 74.76 0 0 0 12.52 6.57c3.44 1.46 7.24 3.23 10.53 5 7.84 4.18 16.58 6.47 24.79 10.12 3.43 1.12 7.59 3 10.84 3.29 5.95.65 12.31 2.6 18.49 3.21 15.78 2.49 31.58 2.4 47.84 3a48.72 48.72 0 0 0 5.73-.41 125.19 125.19 0 0 0 13.45-1.56c6.45-1.13 13.2-1.58 19.25-3.11 23.28-5.95 46.08-13.85 67.17-25.55 2.56-1.5 4.72-2.7 6.7-3.64 10.49-6.08 19.78-13.84 28.35-21.84 10.39-9.73 20.53-19.85 29-31.2-1.95 4.22-5.35 7.92-8.69 11.8-12.7 15.31-28.14 28.3-44.72 40a15 15 0 0 1 2.23-.65c1.78 0 5.36-2.35 9-4.75 7.79-5 15.55-9.73 22-17.11 12.5-9.41 21.88-23 32-34.73 9.59-14.38 18.72-29.62 25.44-45.82a163.12 163.12 0 0 1 9.21-22.76c.79 3.92-1.92 10.12-3.77 15.44a129.6 129.6 0 0 1-7.42 17.89 237.34 237.34 0 0 1-46.62 67.36c-7.09 6.19-13.84 12.71-21.38 18.46-6.37 4.81-11.27 10.55-19.52 14.57-3.07 1.63-6.17 4.19-10.29 5.7-2.55.83-.95 2.29-5.27 4.17l-18.24 9c-15.06 6.27-31 10.79-46.53 14.67-11.43 2.29-23.06 4.56-34.92 4.85a157.09 157.09 0 0 1-18.37.45l-18-.63.32.47-20.57-2.7a269.25 269.25 0 0 1-33.5-8.93c-28.19-8.94-54.24-24.62-77.36-42.88-12.32-9.94-23.64-22.08-33.76-34.63-15-18-25.67-39.14-34.69-60.58C15 320.83 9.6 301.47 7.46 281.72a241.54 241.54 0 0 1 7.89-97.89 228.07 228.07 0 0 1 25.14-55.9c7.25-12.3 16.21-23.61 25.51-34.29 13.38-15.43 29.21-28.43 45.7-40.21 6-4.21 11.3-5.52 16.53-8.75a200.37 200.37 0 0 1 33-15.11 191.75 191.75 0 0 1 30-8.57c1-.23.71.12 1.33.06a150.22 150.22 0 0 1 36.52-3.69 35.13 35.13 0 0 0 3.52-.22c11.46-1.2 22.67.26 33.88 1.26a90.16 90.16 0 0 1 17.56 3c-.51 1.47-5.6 1.27-9.92 1.76 8.51 1.49 17.19 2.22 25.5 4.72a7.71 7.71 0 0 0 1.74 0c1.32-.51 1.92-.58 5.1.43 2.49.79 5.87 1.54 4.53 2.28-.2.12.12.27.12.27 6.15 1.54 12 4.07 18 6.19 46 18.39 86.21 51.61 111.86 94.17C460.74 163 471.44 199.89 474 237.07c.3 3.87.7 8.38.23 12.15a24.91 24.91 0 0 1-.88-6.68C472 203.64 460.81 165 440.07 132a212.79 212.79 0 0 0-29.28-38.23 230 230 0 0 0-62.51-45.91zM238.07 19.1c-.83.82 1.21 1.18 3.76 1.37 1.73.17 3.69 0 5.93.3h6.36c1.38 0 4.57.28 3.49-.53-.92-.68-2.67-.64-4.49-.38-3.43.53-6.14.3-7.5-.85-.53-.47-1-1.14-4.38-.82a6.27 6.27 0 0 0-3.17.91zm-139.61 84l-13.1 14.63.22.05zM346 442.52a137.52 137.52 0 0 1-29.65 11.13c-7.12 2.5-15 4.11-18.89 6.66l-1.36.58a213.91 213.91 0 0 0 49.9-18.37zm39.38-31.71l-.69.63.31-.25zm-92.07 39.66c-.58.95 1.29.95 3.61.67l5.36-.88 5.56-1.69c1.19-.38 3.94-1.35 2.76-1.68-1-.31-2.41.41-3.92 1.08-2.81 1.39-5.22 2.06-6.73 1.12-.58-.36-1.16-.93-4 0a5.23 5.23 0 0 0-2.66 1.38zM194.65 47.6l5.72-1.15c1.52-.21 3.36-1 5-1.35l8-1.45a119.44 119.44 0 0 0-18.72 3.95zm-72.78 35.17c4.39-3.16 8.62-6.59 13.58-8.9 2.92-1.52 6.76-3 9-4.9 4-3.82 9.86-5.68 14.78-8.35a91.6 91.6 0 0 1 10.57-5c-17.01 7.02-33.43 15.76-47.93 27.15zM324.5 41.82h-.07c-8-3-16.13-6.18-24.79-7.84l.21.26a158.57 158.57 0 0 1 24.65 7.58z"></path><path d="M143.37 26.86l1.5-.37c1.29-.14 5.39-2.21 7.81-3.23l21.71-8.94c7.65-2.72 16.93-5.72 25.9-7.13 12.41-1.84 24.88-4 37.69-3.53-17.75-.3-36.21.69-54.21 6.48-4.25 1.38-9.07 2.07-13.44 3.65a76 76 0 0 0-9.4 3.49c-9.33 4.27-18.61 8.53-27.83 11.72-4.17 1.38-5.57 3.41-8.08 4.53-9.32 3.84-19.36 11.77-27.78 16.15C91 54.43 84.84 59.32 79 64.66a121.81 121.81 0 0 0-16.79 16.55C55.05 88.91 49 97.5 42.11 105.6c-5.07 5.69-8.39 12.83-12.54 19.26a249.39 249.39 0 0 0-28.3 73.45c1.3-1.24 2.08-3.58 2.83-6.46 4.66-20.67 13.49-39.88 23.12-58.4 4.7-8.4 10.56-16.71 14.93-25.06a17.13 17.13 0 0 1 3-3.76c7.29-7 14.23-16.77 21.48-24.35a97.42 97.42 0 0 1 16.08-15c3.34-2.39 6.24-5.37 9.73-7.68 6.94-4.74 13.49-10 20.75-14.27 5-3 10.54-6.08 14.91-9.13 5.14-3.31 9.72-5.88 14.87-7.18-21.59 9.72-41.22 23.34-59 38.69a253.52 253.52 0 0 0-35 37.53c-23.07 28.88-38.44 64.74-45 101.6C-.75 228-.65 251.73 1.13 275.18l.74-.05a279.7 279.7 0 0 1 4.61-75.69 263.41 263.41 0 0 1 27.1-70.77c25.15-43.89 63.55-80.5 109.79-101.81zM475.29 163.78l-.82-3A239.14 239.14 0 0 0 425.37 83c20.94 23.8 39.03 50.69 49.92 80.78zM429.05 317.38a22.19 22.19 0 0 0-1.11 2.24 200.53 200.53 0 0 1-38.78 62.17c18.07-18.04 30.77-40.79 39.89-64.41zM81.46 338.85c8.07 13.61 15.83 27.68 27 39.19a83.55 83.55 0 0 0 16.15 15.26 16.44 16.44 0 0 1 2.67 2.49c5 5.9 12.58 11.47 19.73 15.16l14.61 8.66c2.7 1.69 5.55 3.17 8.41 4.69 5.84 2.9 12.06 5 18.12 7.5a91.47 91.47 0 0 0 13.18 3.45c5.28 1.09 9.73 1.08 14 3.42a26.17 26.17 0 0 0 6.51 1.32 96.7 96.7 0 0 0 18.39.42c6.35-.11 13.78-1.16 20.83-1.18 9.71-.38 19.35-2.3 29.1-3.88-13.72 2.36-27.63 2.51-42.05 3.65-3.43.3-7.13-.33-10.69-.53a45.89 45.89 0 0 0-7.69-.31c-7.9.43-15.79-1.41-22.8-3.77-3.08-1.33-4.95-.7-6.89-1.61-7.06-2.9-16.67-4.78-22.62-9.11-11.15-3.94-21.32-10.3-31.42-16.37-7-3.71-13.09-8.94-19-14.13-3.83-4.25-8.33-7.9-12.57-11.77a210.88 210.88 0 0 1-34.13-47.76c-.41 1.42.2 3.19 1.16 5.21z"></path><path d="M80.9 155.55c-2.31 3.24-3.65 6.89-5 10.39-1.93 5.35-5.47 9.9-7.15 15.58-1.27 3.84-2.86 7.66-4 11.79 3.42-4.78 4.88-12.73 14.08-31.52a181.51 181.51 0 0 1 19.08-29.64l-.93.26a181.69 181.69 0 0 0-16.08 23.14zM97.32 375.32A169.45 169.45 0 0 0 149 419.88c-19.55-11.98-36.65-27.37-51.68-44.56zM296.63 431.13c7.56-1.09 14.17-4.94 21.37-6.9a225 225 0 0 1-56.61 11.29c6.68.73 12.91 0 20.38-1.17 4.85-.79 9.89-2.35 14.86-3.22z"></path><path d="M69.55 329.83a163.66 163.66 0 0 0 22.08 38.4l.42-.48a175.52 175.52 0 0 1-20.87-35.92c21.13 45.68 61.3 82.31 108.66 99.11A187.31 187.31 0 0 1 118.31 394c-10-9-19.56-18.67-26.92-30.18-16.17-23.94-29.17-51-33.85-80-3.49-18.05-3.44-36.64-2.17-54.95l-.73-.1c-3.75 34.06.9 69.54 15.51 100.81zM71.15 422.67c-3.42-3.82-6.75-7.5-10.31-10.84-5.63-4.9-8.92-11.63-13.61-17.61A129.61 129.61 0 0 1 38 381c2.83 6.77 8.08 16.18 26.66 36.25A236.15 236.15 0 0 0 99 447.93l-.45-1.07c-9.99-7.1-18.62-15.8-27.4-24.19zM76.67 79c-20.21 19.35-37.52 42.2-48.95 68.11A273.23 273.23 0 0 1 76.67 79zM247.41.82c9.89 1 19.79.36 29.45 2.18a229.18 229.18 0 0 0-76.48.44l27-2c6.46-.52 13.44-.73 20.03-.62zM7.48 210.08c3.25-18 8.87-35.67 15.68-52.7l-.62-.1c-6.9 16.92-12.72 34.45-15.67 52.58z"></path></g><defs></defs></svg></g> <g fill="black" filter="url(#9a0253e8-f5b1-498c-8f97-8a0688b06d9e)"><svg xmlns="http://www.w3.org/2000/svg" xmlns:xlink="http://www.w3.org/1999/xlink" version="1.1" x="10" y="10.294524200938863" viewBox="2.5 2.497999906539917 37 45.374000549316406" enable-background="new 0 0 42 50.37" xml:space="preserve" width="40" height="41.17811" class="image-svg-icon"><path d="M39.5,38.498c0-10.032-8.031-18.206-18-18.475V2.498h-1v17.525c-9.969,0.269-18,8.442-18,18.475v0.5h9.032  c0.325,4.946,4.441,8.874,9.468,8.874c5.027,0,9.144-3.928,9.469-8.874H39.5V38.498z M21,46.872c-4.475,0-8.146-3.479-8.468-7.874  h16.937C29.146,43.393,25.475,46.872,21,46.872z M3.507,37.998c0.266-9.419,8.011-17,17.493-17s17.228,7.581,17.493,17H3.507z"></path></svg></g><defs><filter id="9a0253e8-f5b1-498c-8f97-8a0688b06d9e"><feGaussianBlur in="SourceGraphic" stdDeviation="1.26"></feGaussianBlur><feComponentTransfer><feFuncA type="discrete" tableValues="0 1 1 1 1 1 1 1 1 1 1 1 1 1 0"></feFuncA></feComponentTransfer></filter></defs></mask></svg> <defs><filter id="colors4687367488"><feColorMatrix type="matrix" values="0 0 0 0 0.765625  0 0 0 0 0.44140625  0 0 0 0 0.95703125  0 0 0 1 0" class="icon-fecolormatrix"></feColorMatrix></filter> <filter id="colorsf3426116504"><feColorMatrix type="matrix" values="0 0 0 0 0.99609375  0 0 0 0 0.99609375  0 0 0 0 0.99609375  0 0 0 1 0" class="icon-fecolormatrix"></feColorMatrix></filter> <filter id="colorsb1156101514"><feColorMatrix type="matrix" values="0 0 0 0 0  0 0 0 0 0  0 0 0 0 0  0 0 0 1 0" class="icon-fecolormatrix"></feColorMatrix></filter></defs><rect v-gra="id" width="85.57991027832031" height="85.57991027832031" transform="translate(-6, -6)" style="pointer-events:none;" fill="url(#q7mf983kwPDUq2SZ1oEAC)"></rect></g> <g transform="translate(80.57991027832031,10.749454498291016)"><g data-gra="path-name" fill-rule="" class="tp-name iconsvg-namesvg" transform="matrix(1,0,0,1,0,0)" opacity="1"><g transform="scale(1.1000000000000005)"><g><path d="M26.08-17.16L26.08 0 21.29 0 21.29-17.16Q21.29-17.67 21.09-18.1 20.9-18.54 20.57-18.86 20.25-19.19 19.81-19.37 19.37-19.56 18.87-19.56L18.87-19.56Q18.37-19.56 17.93-19.37 17.5-19.19 17.17-18.86 16.84-18.54 16.66-18.1 16.48-17.67 16.48-17.16L16.48-17.16 16.48 0 11.67 0 11.67-17.16Q11.67-17.67 11.48-18.1 11.3-18.54 10.97-18.86 10.64-19.19 10.21-19.37 9.77-19.56 9.27-19.56L9.27-19.56Q8.77-19.56 8.33-19.37 7.89-19.19 7.57-18.86 7.24-18.54 7.06-18.1 6.87-17.67 6.87-17.16L6.87-17.16 6.87 0 2.06 0 2.06-17.16Q2.06-18.65 2.62-19.97 3.18-21.29 4.16-22.27 5.15-23.25 6.46-23.81 7.78-24.37 9.27-24.37L9.27-24.37Q10.61-24.37 11.85-23.89 13.09-23.41 14.08-22.51L14.08-22.51Q15.07-23.41 16.3-23.89 17.53-24.37 18.87-24.37L18.87-24.37Q20.36-24.37 21.68-23.81 23-23.25 23.98-22.27 24.96-21.29 25.52-19.97 26.08-18.65 26.08-17.16L26.08-17.16ZM36.35 6.87L34.01 6.84 34.01 2.23 36.55 2.26Q37.22 2.26 37.84 2.04 38.46 1.83 38.99 1.44 39.52 1.06 39.92 0.53 40.33 0 40.58-0.62L40.58-0.62Q39.82-0.3 39.04 0.02 38.26 0.34 37.48 0.34L37.48 0.34Q35.82 0.34 34.36-0.25 32.9-0.84 31.8-1.92 30.7-3 30.08-4.55 29.45-6.1 29.45-8.03L29.45-8.03 29.45-17.95 34.01-17.95 34.01-8.03Q34.01-7.07 34.28-6.36 34.56-5.65 35.03-5.17 35.5-4.69 36.13-4.46 36.76-4.22 37.48-4.22L37.48-4.22Q38.18-4.22 38.81-4.55 39.44-4.88 39.91-5.41 40.38-5.95 40.64-6.63 40.91-7.31 40.91-8.03L40.91-8.03 40.91-17.95 45.52-17.95 45.52-2.26Q45.5-0.37 44.78 1.29 44.06 2.95 42.81 4.19 41.57 5.43 39.91 6.15 38.25 6.87 36.35 6.87L36.35 6.87Z" transform="translate(-2.059999942779541, 25.8799991607666)"></path></g> <!----> <!----> <!----> <!----> <!----> <!----> <g data-gra="path-name-1" fill="#FB2E86" transform="translate(46.459999084472656,0)"><g transform="scale(1)"><path d="M7.04-9.6L7.04 0 2.23 0 2.23-24.03 19.06-24.03 19.06-19.22 7.04-19.22 7.04-14.41 14.25-14.41 14.25-9.6 7.04-9.6ZM34.59 0L33.08-2.1Q32.53-1.59 31.9-1.15 31.27-0.7 30.59-0.38 29.9-0.05 29.17 0.14 28.44 0.34 27.69 0.34L27.69 0.34Q26.03 0.34 24.57-0.25 23.11-0.84 22.01-1.92 20.92-3 20.29-4.55 19.66-6.1 19.66-8.03L19.66-8.03 19.66-17.95 24.22-17.95 24.22-8.03Q24.22-7.12 24.5-6.41 24.77-5.7 25.24-5.21 25.71-4.73 26.34-4.47 26.97-4.22 27.69-4.22L27.69-4.22Q28.39-4.22 29.02-4.55 29.65-4.88 30.12-5.41 30.59-5.95 30.86-6.63 31.12-7.31 31.12-8.03L31.12-8.03 31.12-17.95 35.7-17.95 35.7 0 34.59 0ZM43.76-9.89L43.76 0 39.19 0 39.19-17.95 40.29-17.95 41.8-15.82Q42.91-16.83 44.31-17.37 45.72-17.92 47.23-17.92L47.23-17.92 51.27-17.92 51.27-13.36 47.23-13.36Q46.51-13.36 45.87-13.09 45.24-12.82 44.77-12.35 44.3-11.88 44.03-11.25 43.76-10.61 43.76-9.89L43.76-9.89ZM57.97-10.26L57.97 0 53.4 0 53.4-17.95 54.5-17.95 56.01-16.21Q57.12-17.21 58.52-17.76 59.92-18.3 61.44-18.3L61.44-18.3Q63.09-18.3 64.54-17.67 66-17.05 67.09-15.95 68.18-14.85 68.81-13.38 69.44-11.92 69.44-10.26L69.44-10.26 69.44 0 64.86 0 64.86-10.26Q64.86-10.96 64.59-11.59 64.33-12.22 63.86-12.69 63.39-13.16 62.77-13.42 62.15-13.69 61.44-13.69L61.44-13.69Q60.72-13.69 60.09-13.42 59.45-13.16 58.98-12.69 58.51-12.22 58.24-11.59 57.97-10.96 57.97-10.26L57.97-10.26ZM78.09-22.83L78.09-22.83Q78.09-22.19 77.84-21.64 77.6-21.08 77.18-20.67 76.76-20.26 76.2-20.02 75.64-19.78 75-19.78L75-19.78Q74.37-19.78 73.8-20.02 73.24-20.26 72.83-20.67 72.42-21.08 72.18-21.64 71.93-22.19 71.93-22.83L71.93-22.83Q71.93-23.45 72.18-24.01 72.42-24.57 72.83-24.98 73.24-25.39 73.8-25.63 74.37-25.88 75-25.88L75-25.88Q75.64-25.88 76.2-25.63 76.76-25.39 77.18-24.98 77.6-24.57 77.84-24.01 78.09-23.45 78.09-22.83ZM77.3-17.95L77.3 0 72.69 0 72.69-17.95 77.3-17.95ZM90.64 0L90.64 0 80.18 0 80.18-4.56 90.64-4.56Q91.11-4.56 91.44-4.89 91.78-5.23 91.78-5.7L91.78-5.7Q91.78-6.18 91.44-6.34 91.11-6.49 90.64-6.49L90.64-6.49 85.88-6.49Q84.69-6.49 83.65-6.94 82.61-7.39 81.84-8.17 81.07-8.95 80.63-9.99 80.18-11.03 80.18-12.22L80.18-12.22Q80.18-13.41 80.63-14.45 81.07-15.49 81.84-16.26 82.61-17.03 83.65-17.47 84.69-17.92 85.88-17.92L85.88-17.92 95.15-17.92 95.15-13.36 85.88-13.36Q85.41-13.36 85.07-13.02 84.74-12.69 84.74-12.22L84.74-12.22Q84.74-11.73 85.07-11.39 85.41-11.04 85.88-11.04L85.88-11.04 90.64-11.04Q91.81-11.04 92.85-10.65 93.89-10.26 94.66-9.55 95.43-8.85 95.89-7.86 96.34-6.87 96.34-5.7L96.34-5.7Q96.34-4.51 95.89-3.48 95.43-2.45 94.66-1.67 93.89-0.89 92.85-0.44 91.81 0 90.64 0ZM103.34-10.26L103.34 0 98.77 0 98.77-25.09 103.34-25.09 103.34-17.16Q104.16-17.78 105.04-18.04 105.91-18.3 106.81-18.3L106.81-18.3Q108.47-18.3 109.93-17.67 111.39-17.05 112.47-15.95 113.55-14.85 114.18-13.38 114.81-11.92 114.81-10.26L114.81-10.26 114.81 0 110.2 0 110.2-10.26 110.23-10.26Q110.23-10.96 109.96-11.59 109.7-12.22 109.23-12.69 108.76-13.16 108.14-13.42 107.52-13.69 106.81-13.69L106.81-13.69Q106.09-13.69 105.46-13.42 104.82-13.16 104.35-12.69 103.88-12.22 103.61-11.59 103.34-10.96 103.34-10.26L103.34-10.26Z" transform="translate(-2.2300000190734863, 25.8799991607666)"></path></g></g></g></g> <g data-gra="path-slogan" fill-rule="" class="tp-slogan iconsvg-slogansvg" fill="#FB2E86" transform="matrix(1,0,0,1,19.087005615234375,42.025001525878906)" opacity="1"><!----> <!----> <g transform="scale(1, 1)"><g transform="scale(1)"><path d="M2.35-3.05L2.35 0L3.36 0L3.36-3.05L5.72-7.87L4.68-7.87L3.67-5.65C3.55-5.36 3.42-5.08 3.29-4.80C3.15-4.52 3.02-4.23 2.88-3.94L2.83-3.94C2.70-4.23 2.57-4.52 2.45-4.80C2.33-5.08 2.20-5.36 2.08-5.65L1.06-7.87L-0.01-7.87ZM9.53 0.14C10.02 0.14 10.48 0.05 10.89-0.14C11.30-0.34 11.66-0.61 11.96-0.97C12.26-1.32 12.49-1.75 12.65-2.26C12.82-2.77 12.90-3.34 12.90-3.97C12.90-4.60 12.82-5.16 12.65-5.66C12.49-6.16 12.26-6.58 11.96-6.93C11.66-7.28 11.30-7.55 10.89-7.73C10.48-7.92 10.02-8.02 9.53-8.02C9.03-8.02 8.58-7.92 8.17-7.74C7.75-7.56 7.40-7.29 7.10-6.94C6.81-6.59 6.58-6.17 6.41-5.67C6.25-5.17 6.17-4.60 6.17-3.97C6.17-3.34 6.25-2.77 6.41-2.26C6.58-1.75 6.81-1.32 7.10-0.97C7.40-0.61 7.75-0.34 8.17-0.14C8.58 0.05 9.03 0.14 9.53 0.14ZM9.53-0.73C9.18-0.73 8.86-0.81 8.57-0.96C8.29-1.11 8.05-1.33 7.84-1.61C7.64-1.90 7.48-2.24 7.37-2.63C7.26-3.03 7.20-3.48 7.20-3.97C7.20-4.46 7.26-4.90 7.37-5.29C7.48-5.68 7.64-6.02 7.84-6.29C8.05-6.56 8.29-6.77 8.57-6.92C8.86-7.07 9.18-7.14 9.53-7.14C9.88-7.14 10.20-7.07 10.48-6.92C10.77-6.77 11.01-6.56 11.21-6.29C11.42-6.02 11.58-5.68 11.69-5.29C11.80-4.90 11.86-4.46 11.86-3.97C11.86-3.48 11.80-3.03 11.69-2.63C11.58-2.24 11.42-1.90 11.21-1.61C11.01-1.33 10.77-1.11 10.48-0.96C10.20-0.81 9.88-0.73 9.53-0.73ZM14.56-7.87L14.56-3.25C14.56-2.62 14.63-2.09 14.77-1.66C14.92-1.22 15.11-0.87 15.37-0.61C15.62-0.34 15.92-0.15 16.27-0.03C16.61 0.09 16.99 0.14 17.39 0.14C17.79 0.14 18.16 0.09 18.50-0.03C18.85-0.15 19.15-0.34 19.40-0.61C19.65-0.87 19.85-1.22 19.99-1.66C20.14-2.09 20.21-2.62 20.21-3.25L20.21-7.87L19.25-7.87L19.25-3.23C19.25-2.76 19.20-2.36 19.10-2.04C19.01-1.72 18.88-1.46 18.71-1.27C18.54-1.08 18.34-0.94 18.12-0.86C17.90-0.77 17.65-0.73 17.39-0.73C17.13-0.73 16.89-0.77 16.67-0.86C16.44-0.94 16.25-1.08 16.09-1.27C15.92-1.46 15.79-1.72 15.70-2.04C15.60-2.36 15.55-2.76 15.55-3.23L15.55-7.87ZM23.33-4.14L23.33-7.07L24.65-7.07C25.26-7.07 25.74-6.96 26.06-6.76C26.39-6.55 26.56-6.18 26.56-5.66C26.56-5.15 26.39-4.77 26.06-4.52C25.74-4.27 25.26-4.14 24.65-4.14ZM26.65 0L27.78 0L25.79-3.43C26.32-3.57 26.75-3.82 27.07-4.19C27.39-4.56 27.55-5.05 27.55-5.66C27.55-6.07 27.48-6.42 27.35-6.70C27.21-6.98 27.02-7.20 26.78-7.38C26.53-7.56 26.24-7.68 25.90-7.76C25.56-7.83 25.19-7.87 24.79-7.87L22.33-7.87L22.33 0L23.33 0L23.33-3.32L24.76-3.32ZM31.75-1.72L31.15-1.02C31.50-0.66 31.90-0.38 32.38-0.17C32.85 0.04 33.36 0.14 33.91 0.14C34.33 0.14 34.70 0.09 35.03-0.03C35.36-0.15 35.64-0.31 35.87-0.51C36.10-0.71 36.28-0.95 36.40-1.22C36.53-1.50 36.59-1.79 36.59-2.10C36.59-2.39 36.55-2.64 36.46-2.86C36.38-3.08 36.26-3.27 36.12-3.44C35.98-3.60 35.80-3.75 35.60-3.87C35.40-3.99 35.19-4.10 34.97-4.20L33.85-4.68C33.69-4.74 33.54-4.81 33.38-4.89C33.23-4.97 33.09-5.05 32.96-5.15C32.84-5.25 32.73-5.37 32.66-5.50C32.58-5.63 32.54-5.80 32.54-5.99C32.54-6.35 32.68-6.63 32.95-6.83C33.21-7.04 33.57-7.14 34.01-7.14C34.38-7.14 34.71-7.07 35.00-6.94C35.29-6.81 35.56-6.63 35.80-6.40L36.34-7.04C36.06-7.33 35.72-7.57 35.32-7.75C34.92-7.93 34.48-8.02 34.01-8.02C33.65-8.02 33.32-7.96 33.02-7.86C32.72-7.76 32.46-7.61 32.24-7.42C32.02-7.23 31.85-7.01 31.72-6.76C31.60-6.50 31.54-6.22 31.54-5.93C31.54-5.64 31.58-5.39 31.68-5.17C31.78-4.95 31.90-4.76 32.05-4.60C32.20-4.44 32.38-4.30 32.57-4.19C32.76-4.08 32.95-3.98 33.13-3.90L34.26-3.41C34.44-3.32 34.62-3.24 34.78-3.16C34.94-3.08 35.07-2.99 35.19-2.89C35.31-2.79 35.40-2.67 35.47-2.53C35.53-2.39 35.57-2.22 35.57-2.02C35.57-1.63 35.42-1.32 35.14-1.09C34.85-0.85 34.44-0.73 33.92-0.73C33.52-0.73 33.12-0.82 32.74-1.00C32.36-1.18 32.03-1.42 31.75-1.72ZM38.14-7.87L38.14 0L39.13 0L39.13-3.12L40.55-3.12C40.98-3.12 41.37-3.17 41.73-3.27C42.09-3.37 42.39-3.52 42.65-3.72C42.90-3.92 43.10-4.17 43.24-4.48C43.38-4.78 43.45-5.14 43.45-5.56C43.45-5.99 43.38-6.35 43.24-6.65C43.10-6.94 42.91-7.18 42.65-7.36C42.40-7.54 42.10-7.67 41.74-7.75C41.38-7.83 40.98-7.87 40.55-7.87ZM40.43-3.94L39.13-3.94L39.13-7.07L40.43-7.07C41.11-7.07 41.62-6.96 41.95-6.74C42.29-6.52 42.46-6.12 42.46-5.56C42.46-5.00 42.29-4.59 41.96-4.33C41.63-4.07 41.12-3.94 40.43-3.94ZM47.80-3.20L45.43-3.20L45.80-4.40C45.95-4.84 46.08-5.28 46.21-5.72C46.34-6.15 46.46-6.60 46.58-7.06L46.63-7.06C46.76-6.60 46.89-6.15 47.02-5.72C47.14-5.28 47.28-4.84 47.42-4.40ZM48.05-2.40L48.79 0L49.86 0L47.20-7.87L46.07-7.87L43.40 0L44.42 0L45.18-2.40ZM50.40-3.94C50.40-3.30 50.49-2.72 50.66-2.21C50.83-1.71 51.07-1.28 51.38-0.93C51.69-0.58 52.05-0.32 52.47-0.13C52.89 0.05 53.35 0.14 53.84 0.14C54.35 0.14 54.80 0.04 55.19-0.16C55.58-0.36 55.93-0.64 56.24-1.00L55.68-1.61C55.42-1.33 55.15-1.11 54.87-0.96C54.59-0.81 54.25-0.73 53.87-0.73C53.49-0.73 53.15-0.81 52.85-0.96C52.55-1.11 52.30-1.33 52.09-1.61C51.88-1.89 51.72-2.23 51.61-2.62C51.49-3.02 51.43-3.46 51.43-3.96C51.43-4.45 51.49-4.89 51.61-5.28C51.73-5.67 51.90-6.01 52.12-6.28C52.33-6.56 52.59-6.77 52.90-6.92C53.20-7.07 53.54-7.14 53.92-7.14C54.25-7.14 54.55-7.07 54.80-6.94C55.05-6.81 55.28-6.63 55.49-6.41L56.05-7.04C55.82-7.30 55.52-7.53 55.16-7.72C54.80-7.92 54.38-8.02 53.90-8.02C53.40-8.02 52.93-7.92 52.51-7.73C52.08-7.55 51.71-7.28 51.40-6.92C51.08-6.57 50.84-6.14 50.66-5.64C50.49-5.14 50.40-4.57 50.40-3.94ZM57.71-7.87L57.71 0L62.36 0L62.36-0.85L58.70-0.85L58.70-3.71L61.69-3.71L61.69-4.56L58.70-4.56L58.70-7.03L62.24-7.03L62.24-7.87ZM63.52 1.46L63.76 2.04C64.24 1.83 64.63 1.54 64.91 1.15C65.19 0.77 65.33 0.32 65.33-0.20C65.33-0.56 65.25-0.85 65.11-1.06C64.96-1.26 64.76-1.37 64.50-1.37C64.30-1.37 64.13-1.31 63.98-1.18C63.84-1.06 63.77-0.89 63.77-0.67C63.77-0.45 63.84-0.28 63.98-0.16C64.12-0.05 64.28 0.01 64.48 0.01C64.53 0.01 64.57 0.01 64.60 0C64.60 0.33 64.50 0.62 64.31 0.86C64.12 1.11 63.85 1.31 63.52 1.46ZM72.35 0.14C72.84 0.14 73.30 0.05 73.71-0.14C74.12-0.34 74.48-0.61 74.78-0.97C75.08-1.32 75.31-1.75 75.47-2.26C75.64-2.77 75.72-3.34 75.72-3.97C75.72-4.60 75.64-5.16 75.47-5.66C75.31-6.16 75.08-6.58 74.78-6.93C74.48-7.28 74.12-7.55 73.71-7.73C73.30-7.92 72.84-8.02 72.35-8.02C71.85-8.02 71.40-7.92 70.99-7.74C70.57-7.56 70.22-7.29 69.92-6.94C69.63-6.59 69.40-6.17 69.23-5.67C69.07-5.17 68.99-4.60 68.99-3.97C68.99-3.34 69.07-2.77 69.23-2.26C69.40-1.75 69.63-1.32 69.92-0.97C70.22-0.61 70.57-0.34 70.99-0.14C71.40 0.05 71.85 0.14 72.35 0.14ZM72.35-0.73C72.00-0.73 71.68-0.81 71.39-0.96C71.11-1.11 70.87-1.33 70.66-1.61C70.46-1.90 70.30-2.24 70.19-2.63C70.08-3.03 70.02-3.48 70.02-3.97C70.02-4.46 70.08-4.90 70.19-5.29C70.30-5.68 70.46-6.02 70.66-6.29C70.87-6.56 71.11-6.77 71.39-6.92C71.68-7.07 72.00-7.14 72.35-7.14C72.70-7.14 73.02-7.07 73.30-6.92C73.59-6.77 73.83-6.56 74.03-6.29C74.24-6.02 74.40-5.68 74.51-5.29C74.62-4.90 74.68-4.46 74.68-3.97C74.68-3.48 74.62-3.03 74.51-2.63C74.40-2.24 74.24-1.90 74.03-1.61C73.83-1.33 73.59-1.11 73.30-0.96C73.02-0.81 72.70-0.73 72.35-0.73ZM77.38-7.87L77.38-3.25C77.38-2.62 77.45-2.09 77.59-1.66C77.74-1.22 77.93-0.87 78.19-0.61C78.44-0.34 78.74-0.15 79.09-0.03C79.43 0.09 79.81 0.14 80.21 0.14C80.61 0.14 80.98 0.09 81.32-0.03C81.67-0.15 81.97-0.34 82.22-0.61C82.47-0.87 82.67-1.22 82.81-1.66C82.96-2.09 83.03-2.62 83.03-3.25L83.03-7.87L82.07-7.87L82.07-3.23C82.07-2.76 82.02-2.36 81.92-2.04C81.83-1.72 81.70-1.46 81.53-1.27C81.36-1.08 81.16-0.94 80.94-0.86C80.72-0.77 80.47-0.73 80.21-0.73C79.95-0.73 79.71-0.77 79.49-0.86C79.26-0.94 79.07-1.08 78.91-1.27C78.74-1.46 78.61-1.72 78.52-2.04C78.42-2.36 78.37-2.76 78.37-3.23L78.37-7.87ZM86.15-4.14L86.15-7.07L87.47-7.07C88.08-7.07 88.56-6.96 88.88-6.76C89.21-6.55 89.38-6.18 89.38-5.66C89.38-5.15 89.21-4.77 88.88-4.52C88.56-4.27 88.08-4.14 87.47-4.14ZM89.47 0L90.60 0L88.61-3.43C89.14-3.57 89.57-3.82 89.89-4.19C90.21-4.56 90.37-5.05 90.37-5.66C90.37-6.07 90.30-6.42 90.17-6.70C90.03-6.98 89.84-7.20 89.60-7.38C89.35-7.56 89.06-7.68 88.72-7.76C88.38-7.83 88.01-7.87 87.61-7.87L85.15-7.87L85.15 0L86.15 0L86.15-3.32L87.58-3.32ZM94.55-7.87L94.55 0L95.54 0L95.54-3.12L96.96-3.12C97.39-3.12 97.79-3.17 98.14-3.27C98.50-3.37 98.80-3.52 99.06-3.72C99.32-3.92 99.51-4.17 99.65-4.48C99.79-4.78 99.86-5.14 99.86-5.56C99.86-5.99 99.79-6.35 99.65-6.65C99.51-6.94 99.32-7.18 99.07-7.36C98.81-7.54 98.51-7.67 98.15-7.75C97.79-7.83 97.39-7.87 96.96-7.87ZM96.84-3.94L95.54-3.94L95.54-7.07L96.84-7.07C97.52-7.07 98.03-6.96 98.36-6.74C98.70-6.52 98.87-6.12 98.87-5.56C98.87-5.00 98.70-4.59 98.37-4.33C98.04-4.07 97.53-3.94 96.84-3.94ZM104.21-3.20L101.84-3.20L102.22-4.40C102.36-4.84 102.50-5.28 102.62-5.72C102.75-6.15 102.88-6.60 103.00-7.06L103.04-7.06C103.17-6.60 103.30-6.15 103.43-5.72C103.56-5.28 103.69-4.84 103.84-4.40ZM104.46-2.40L105.20 0L106.27 0L103.61-7.87L102.48-7.87L99.82 0L100.84 0L101.59-2.40ZM107.41-1.72L106.81-1.02C107.16-0.66 107.56-0.38 108.04-0.17C108.51 0.04 109.02 0.14 109.57 0.14C109.99 0.14 110.36 0.09 110.69-0.03C111.02-0.15 111.30-0.31 111.53-0.51C111.76-0.71 111.94-0.95 112.06-1.22C112.19-1.50 112.25-1.79 112.25-2.10C112.25-2.39 112.21-2.64 112.12-2.86C112.04-3.08 111.92-3.27 111.78-3.44C111.64-3.60 111.46-3.75 111.26-3.87C111.06-3.99 110.85-4.10 110.63-4.20L109.51-4.68C109.35-4.74 109.20-4.81 109.04-4.89C108.89-4.97 108.75-5.05 108.62-5.15C108.50-5.25 108.39-5.37 108.32-5.50C108.24-5.63 108.20-5.80 108.20-5.99C108.20-6.35 108.34-6.63 108.61-6.83C108.87-7.04 109.23-7.14 109.67-7.14C110.04-7.14 110.37-7.07 110.66-6.94C110.95-6.81 111.22-6.63 111.46-6.40L112.00-7.04C111.72-7.33 111.38-7.57 110.98-7.75C110.58-7.93 110.14-8.02 109.67-8.02C109.31-8.02 108.98-7.96 108.68-7.86C108.38-7.76 108.12-7.61 107.90-7.42C107.68-7.23 107.51-7.01 107.38-6.76C107.26-6.50 107.20-6.22 107.20-5.93C107.20-5.64 107.24-5.39 107.34-5.17C107.44-4.95 107.56-4.76 107.71-4.60C107.86-4.44 108.04-4.30 108.23-4.19C108.42-4.08 108.61-3.98 108.79-3.90L109.92-3.41C110.10-3.32 110.28-3.24 110.44-3.16C110.60-3.08 110.73-2.99 110.85-2.89C110.97-2.79 111.06-2.67 111.13-2.53C111.19-2.39 111.23-2.22 111.23-2.02C111.23-1.63 111.08-1.32 110.80-1.09C110.51-0.85 110.10-0.73 109.58-0.73C109.18-0.73 108.78-0.82 108.40-1.00C108.02-1.18 107.69-1.42 107.41-1.72ZM113.65-1.72L113.05-1.02C113.40-0.66 113.80-0.38 114.28-0.17C114.75 0.04 115.26 0.14 115.81 0.14C116.23 0.14 116.60 0.09 116.93-0.03C117.26-0.15 117.54-0.31 117.77-0.51C118.00-0.71 118.18-0.95 118.30-1.22C118.43-1.50 118.49-1.79 118.49-2.10C118.49-2.39 118.45-2.64 118.36-2.86C118.28-3.08 118.16-3.27 118.02-3.44C117.88-3.60 117.70-3.75 117.50-3.87C117.30-3.99 117.09-4.10 116.87-4.20L115.75-4.68C115.59-4.74 115.44-4.81 115.28-4.89C115.13-4.97 114.99-5.05 114.86-5.15C114.74-5.25 114.63-5.37 114.56-5.50C114.48-5.63 114.44-5.80 114.44-5.99C114.44-6.35 114.58-6.63 114.85-6.83C115.11-7.04 115.47-7.14 115.91-7.14C116.28-7.14 116.61-7.07 116.90-6.94C117.19-6.81 117.46-6.63 117.70-6.40L118.24-7.04C117.96-7.33 117.62-7.57 117.22-7.75C116.82-7.93 116.38-8.02 115.91-8.02C115.55-8.02 115.22-7.96 114.92-7.86C114.62-7.76 114.36-7.61 114.14-7.42C113.92-7.23 113.75-7.01 113.62-6.76C113.50-6.50 113.44-6.22 113.44-5.93C113.44-5.64 113.48-5.39 113.58-5.17C113.68-4.95 113.80-4.76 113.95-4.60C114.10-4.44 114.28-4.30 114.47-4.19C114.66-4.08 114.85-3.98 115.03-3.90L116.16-3.41C116.34-3.32 116.52-3.24 116.68-3.16C116.84-3.08 116.97-2.99 117.09-2.89C117.21-2.79 117.30-2.67 117.37-2.53C117.43-2.39 117.47-2.22 117.47-2.02C117.47-1.63 117.32-1.32 117.04-1.09C116.75-0.85 116.34-0.73 115.82-0.73C115.42-0.73 115.02-0.82 114.64-1.00C114.26-1.18 113.93-1.42 113.65-1.72ZM120.04-7.87L120.04 0L121.03 0L121.03-7.87ZM126.10 0.14C126.59 0.14 127.05 0.05 127.46-0.14C127.87-0.34 128.23-0.61 128.53-0.97C128.83-1.32 129.06-1.75 129.22-2.26C129.39-2.77 129.47-3.34 129.47-3.97C129.47-4.60 129.39-5.16 129.22-5.66C129.06-6.16 128.83-6.58 128.53-6.93C128.23-7.28 127.87-7.55 127.46-7.73C127.05-7.92 126.59-8.02 126.10-8.02C125.60-8.02 125.15-7.92 124.73-7.74C124.32-7.56 123.97-7.29 123.67-6.94C123.38-6.59 123.15-6.17 122.98-5.67C122.82-5.17 122.74-4.60 122.74-3.97C122.74-3.34 122.82-2.77 122.98-2.26C123.15-1.75 123.38-1.32 123.67-0.97C123.97-0.61 124.32-0.34 124.73-0.14C125.15 0.05 125.60 0.14 126.10 0.14ZM126.10-0.73C125.74-0.73 125.43-0.81 125.14-0.96C124.86-1.11 124.61-1.33 124.41-1.61C124.21-1.90 124.05-2.24 123.94-2.63C123.82-3.03 123.77-3.48 123.77-3.97C123.77-4.46 123.82-4.90 123.94-5.29C124.05-5.68 124.21-6.02 124.41-6.29C124.61-6.56 124.86-6.77 125.14-6.92C125.43-7.07 125.74-7.14 126.10-7.14C126.45-7.14 126.77-7.07 127.05-6.92C127.33-6.77 127.58-6.56 127.78-6.29C127.99-6.02 128.14-5.68 128.26-5.29C128.37-4.90 128.42-4.46 128.42-3.97C128.42-3.48 128.37-3.03 128.26-2.63C128.14-2.24 127.99-1.90 127.78-1.61C127.58-1.33 127.33-1.11 127.05-0.96C126.77-0.81 126.45-0.73 126.10-0.73ZM131.16-7.87L131.16 0L132.11 0L132.11-4.12C132.11-4.53 132.09-4.95 132.07-5.36C132.04-5.77 132.01-6.18 131.98-6.58L132.02-6.58L132.88-4.96L135.73 0L136.76 0L136.76-7.87L135.82-7.87L135.82-3.80C135.82-3.39 135.83-2.97 135.86-2.54C135.89-2.11 135.91-1.70 135.94-1.30L135.89-1.30L135.04-2.93L132.19-7.87Z" transform="translate(0.012, 8.016)"></path></g></g></g></g></g><defs v-gra="od"></defs><defs v-gra="id"><filter id="d9ddcc75-980b-49d1-a181-5e9b7d7c0b14" filterUnits="userSpaceOnUse"><feColorMatrix type="matrix" values="0 0 0 0 0.99609375  0 0 0 0 0.99609375  0 0 0 0 0.99609375  0 0 0 1 0"></feColorMatrix></filter><linearGradient x1="0" y1="1" x2="0" y2="0" id="q7mf983kwPDUq2SZ1oEAC"><stop offset="0%" stop-color="#fb2e86"></stop><stop offset="100%" stop-color="#fa70cd"></stop></linearGradient><filter id="42443b3f1de60f6b6fd3b6a9844b4764" filterUnits="userSpaceOnUse"><feColorMatrix type="matrix" values="0 0 0 0 0.99609375  0 0 0 0 0.99609375  0 0 0 0 0.99609375  0 0 0 1 0"></feColorMatrix></filter></defs><mask v-gra="im" id="31a7030d-7d98-4085-a4f8-751964a7bf66"><g fill="#c471f5" class="iconsvg-imagesvg icon_container" filter="url(#d9ddcc75-980b-49d1-a181-5e9b7d7c0b14)"><rect fill="#FB2E86" fill-opacity="0" stroke-width="2" x="0" y="0" width="73.57990777984891" height="73.57990777984891" class="image-rect"></rect> <svg viewBox="0 0 60 61.76715840187772" x="0" y="0" width="73.57990777984891" height="73.57990777984891" class="image-svg-svg bn" style="overflow: visible;"><g hollow-target="iconBnOutline"><g mask="url(#527a0e8d-b262-41d5-8a86-cf4cafac7b5e)"><svg xmlns="http://www.w3.org/2000/svg" viewBox="0.00023 0.00334 475.28979 489.28769" style="overflow: visible;" width="60" height="61.76715840187772" x="0" y="0" filtersec="colorsf3426116504"><g transform="scale(1, 1) skewX(0)"><path d="M348.28 47.86c-6.89-3.19-13.55-6.92-20.81-9.23 3.72 1.61 7.48 3.13 9.24 5.21.26.27 2 1 3 1.52l2.7 1.45c9.94 4.1 18.07 10.92 27.25 16.24-7.43-3.36-13.36-8.49-20.21-12.29a26.45 26.45 0 0 1 5.29 3.56 13.73 13.73 0 0 0 3.56 2.39c4.14 1.77 7.24 4.61 12.68 8C362 61.15 355.5 54.58 348.05 52c-2.14-.8-4.24-1.89-6.35-2.87 9.55 4.13 18.32 9.72 27.19 15.14 37.11 24.73 67.05 60.5 83.28 102.2 1 2.92 2.48 6.34 1.9 8a203 203 0 0 0-19.43-38.16c-3.33-5.32-6.17-11.08-10.53-16-23.45-29.73-53.95-55.26-89.17-69.94-9.75-3.8-19.81-8.42-30.05-10.6-12.7-3.3-25.68-6.38-38.7-6.79-19.66 0-40.35.27-59.59 3.39a208 208 0 0 0-72.79 26.84c-5.89 3.4-10.52 6.6-13 10.16 2.65-.37 9.1-5.37 12.19-5.62-12.37 8.32-24.35 17.94-33.43 28.6 15.43-13.86 33.3-24.79 51.63-33.58A223.51 223.51 0 0 1 211 43.42c20.09-3.73 40.85-3.5 61.15-1.49a229.19 229.19 0 0 0-40.24-.5l3.4-.19c21.89-2.39 44.07 1 65 7.13 2.6.71 4.74 1.35 6.59 2.06 10.29 3.77 20.75 6.72 30.44 11.33a94.88 94.88 0 0 1 17.28 9 157.39 157.39 0 0 1 16.29 10.61c-3.82-1.78-7.35-4.65-11.5-6.8C344 65 327.3 57.91 310 52.41a12.47 12.47 0 0 1 1.68 1.26c1 1.22 4.4 2.91 7.92 4.39 7.69 2.8 13.9 7.94 22 10.7 11.24 7.54 23.94 14.09 33.69 23.61 11.71 9.26 22.22 20.63 31.61 32.52 4 5.15 9.25 11.24 11.17 18-2.89-1.76-5.67-6.69-8.72-10.39-3.39-4.32-6.37-8.91-10.12-12.9a196.22 196.22 0 0 0-53.5-43.82c-6.72-4.22-14-7.44-21.17-10.9-6.47-2.07-12.48-3.34-19.5-6.31-2.77-.92-6.13-1.17-9.44-2.89-2-1-1.89.81-5.62-.32-5.39-1.76-11.18-1.73-16.7-2.68-13.38-1.68-27.3-2.53-40.47-.83-9.63.75-19.16 3-28.69 4.82l-14.57 4-13.82 5.23.43.3c-5.33 1.8-10.18 4.64-15.25 7.13-8.58 3.73-16.5 9.06-24.31 14-19.38 13.86-37.35 30.79-50.16 50.93-6.8 10.73-13.59 22.14-18.81 34-6.84 17.43-12.81 35.39-14.9 54.18a209.6 209.6 0 0 0 0 48.09 196.32 196.32 0 0 0 25.3 75.8c8.07 14.78 18.68 28 30.28 40.31a229.1 229.1 0 0 0 26.93 23.13c14.26 9.09 28.89 18.23 45.18 23.33 5.7 2.31 9.53 4.64 14.61 5.91 9.9 3.12 20.08 4.61 30.25 6.49 8.87.54 17.78 2 26.72 1.65.87 0 .57.26 1.11.33 10.83.16 21.45-.89 32-1.46a18.54 18.54 0 0 0 3.05-.54c9.66-2.83 19.61-3.91 29-7.5l14.92-5.3c.56 1.9-5.76 5.4-8.91 8.33 4.71-2.39 6.89-4 11-5.15 4.48-1.31 13.47-5.95 14-8 .5-1.28.82-1.73 3.5-3.14 2.1-1.11 4.73-2.84 4.44-1.44-.24 1.21 1.42-.1 2.72-1a10.52 10.52 0 0 1 3.45-1.85c3.21-.26 7.41-3.69 11.52-6.2A209.49 209.49 0 0 0 427.36 359c18.19-29.53 29.29-63.79 29.91-98.5.09-3.61.12-7.77 1-11.27a21.7 21.7 0 0 1 .23 6.25c-.89 36.37-10.8 72.72-30 103.91-7.49 13.15-17.1 25-27.34 36.12-3.81 4.63-8.44 8.42-12.78 12.53 6.66-5.4 13.26-10.8 18.77-17.5A71.62 71.62 0 0 1 391 406.39a54.18 54.18 0 0 1 5-3.58 9.34 9.34 0 0 0 3.11-2.71c2.44-3.61 5.68-6 9.94-10.52-5.11 7.81-12.07 13.18-17.37 18.51-5.28 6.24-12.6 10.92-19.25 15.93-6.31 5.44-14.36 8.64-21.35 13.51 2.89.27 3.41.28.55 2.11l14.88-9.06a222.48 222.48 0 0 0 81.89-100.14c1.07-2.85 2.14-6.31 3.65-7.19a183.6 183.6 0 0 1-17.25 39 172.22 172.22 0 0 1-10.6 15.95c-20.76 32.13-52.9 56.9-87.67 73.42a219.4 219.4 0 0 1-30.53 11c-12.82 4.16-26.33 5.16-39.36 7.62-19.89 3.13-41.6 1.82-61.09-2.41a233.55 233.55 0 0 1-73.64-29.43c-3.52-2.2-6.66-3.87-9.56-5.32l2.17 1.42a33.72 33.72 0 0 1-6.6-3.75l-.8-.43c.92 2.86 8.41 7 10.25 9.34-13.78-7.62-26.15-17.92-37.95-27 12.38 12.89 26.16 24.71 41.53 34.12a74.76 74.76 0 0 0 12.52 6.57c3.44 1.46 7.24 3.23 10.53 5 7.84 4.18 16.58 6.47 24.79 10.12 3.43 1.12 7.59 3 10.84 3.29 5.95.65 12.31 2.6 18.49 3.21 15.78 2.49 31.58 2.4 47.84 3a48.72 48.72 0 0 0 5.73-.41 125.19 125.19 0 0 0 13.45-1.56c6.45-1.13 13.2-1.58 19.25-3.11 23.28-5.95 46.08-13.85 67.17-25.55 2.56-1.5 4.72-2.7 6.7-3.64 10.49-6.08 19.78-13.84 28.35-21.84 10.39-9.73 20.53-19.85 29-31.2-1.95 4.22-5.35 7.92-8.69 11.8-12.7 15.31-28.14 28.3-44.72 40a15 15 0 0 1 2.23-.65c1.78 0 5.36-2.35 9-4.75 7.79-5 15.55-9.73 22-17.11 12.5-9.41 21.88-23 32-34.73 9.59-14.38 18.72-29.62 25.44-45.82a163.12 163.12 0 0 1 9.21-22.76c.79 3.92-1.92 10.12-3.77 15.44a129.6 129.6 0 0 1-7.42 17.89 237.34 237.34 0 0 1-46.62 67.36c-7.09 6.19-13.84 12.71-21.38 18.46-6.37 4.81-11.27 10.55-19.52 14.57-3.07 1.63-6.17 4.19-10.29 5.7-2.55.83-.95 2.29-5.27 4.17l-18.24 9c-15.06 6.27-31 10.79-46.53 14.67-11.43 2.29-23.06 4.56-34.92 4.85a157.09 157.09 0 0 1-18.37.45l-18-.63.32.47-20.57-2.7a269.25 269.25 0 0 1-33.5-8.93c-28.19-8.94-54.24-24.62-77.36-42.88-12.32-9.94-23.64-22.08-33.76-34.63-15-18-25.67-39.14-34.69-60.58C15 320.83 9.6 301.47 7.46 281.72a241.54 241.54 0 0 1 7.89-97.89 228.07 228.07 0 0 1 25.14-55.9c7.25-12.3 16.21-23.61 25.51-34.29 13.38-15.43 29.21-28.43 45.7-40.21 6-4.21 11.3-5.52 16.53-8.75a200.37 200.37 0 0 1 33-15.11 191.75 191.75 0 0 1 30-8.57c1-.23.71.12 1.33.06a150.22 150.22 0 0 1 36.52-3.69 35.13 35.13 0 0 0 3.52-.22c11.46-1.2 22.67.26 33.88 1.26a90.16 90.16 0 0 1 17.56 3c-.51 1.47-5.6 1.27-9.92 1.76 8.51 1.49 17.19 2.22 25.5 4.72a7.71 7.71 0 0 0 1.74 0c1.32-.51 1.92-.58 5.1.43 2.49.79 5.87 1.54 4.53 2.28-.2.12.12.27.12.27 6.15 1.54 12 4.07 18 6.19 46 18.39 86.21 51.61 111.86 94.17C460.74 163 471.44 199.89 474 237.07c.3 3.87.7 8.38.23 12.15a24.91 24.91 0 0 1-.88-6.68C472 203.64 460.81 165 440.07 132a212.79 212.79 0 0 0-29.28-38.23 230 230 0 0 0-62.51-45.91zM238.07 19.1c-.83.82 1.21 1.18 3.76 1.37 1.73.17 3.69 0 5.93.3h6.36c1.38 0 4.57.28 3.49-.53-.92-.68-2.67-.64-4.49-.38-3.43.53-6.14.3-7.5-.85-.53-.47-1-1.14-4.38-.82a6.27 6.27 0 0 0-3.17.91zm-139.61 84l-13.1 14.63.22.05zM346 442.52a137.52 137.52 0 0 1-29.65 11.13c-7.12 2.5-15 4.11-18.89 6.66l-1.36.58a213.91 213.91 0 0 0 49.9-18.37zm39.38-31.71l-.69.63.31-.25zm-92.07 39.66c-.58.95 1.29.95 3.61.67l5.36-.88 5.56-1.69c1.19-.38 3.94-1.35 2.76-1.68-1-.31-2.41.41-3.92 1.08-2.81 1.39-5.22 2.06-6.73 1.12-.58-.36-1.16-.93-4 0a5.23 5.23 0 0 0-2.66 1.38zM194.65 47.6l5.72-1.15c1.52-.21 3.36-1 5-1.35l8-1.45a119.44 119.44 0 0 0-18.72 3.95zm-72.78 35.17c4.39-3.16 8.62-6.59 13.58-8.9 2.92-1.52 6.76-3 9-4.9 4-3.82 9.86-5.68 14.78-8.35a91.6 91.6 0 0 1 10.57-5c-17.01 7.02-33.43 15.76-47.93 27.15zM324.5 41.82h-.07c-8-3-16.13-6.18-24.79-7.84l.21.26a158.57 158.57 0 0 1 24.65 7.58z" fill="#000000"></path><path d="M143.37 26.86l1.5-.37c1.29-.14 5.39-2.21 7.81-3.23l21.71-8.94c7.65-2.72 16.93-5.72 25.9-7.13 12.41-1.84 24.88-4 37.69-3.53-17.75-.3-36.21.69-54.21 6.48-4.25 1.38-9.07 2.07-13.44 3.65a76 76 0 0 0-9.4 3.49c-9.33 4.27-18.61 8.53-27.83 11.72-4.17 1.38-5.57 3.41-8.08 4.53-9.32 3.84-19.36 11.77-27.78 16.15C91 54.43 84.84 59.32 79 64.66a121.81 121.81 0 0 0-16.79 16.55C55.05 88.91 49 97.5 42.11 105.6c-5.07 5.69-8.39 12.83-12.54 19.26a249.39 249.39 0 0 0-28.3 73.45c1.3-1.24 2.08-3.58 2.83-6.46 4.66-20.67 13.49-39.88 23.12-58.4 4.7-8.4 10.56-16.71 14.93-25.06a17.13 17.13 0 0 1 3-3.76c7.29-7 14.23-16.77 21.48-24.35a97.42 97.42 0 0 1 16.08-15c3.34-2.39 6.24-5.37 9.73-7.68 6.94-4.74 13.49-10 20.75-14.27 5-3 10.54-6.08 14.91-9.13 5.14-3.31 9.72-5.88 14.87-7.18-21.59 9.72-41.22 23.34-59 38.69a253.52 253.52 0 0 0-35 37.53c-23.07 28.88-38.44 64.74-45 101.6C-.75 228-.65 251.73 1.13 275.18l.74-.05a279.7 279.7 0 0 1 4.61-75.69 263.41 263.41 0 0 1 27.1-70.77c25.15-43.89 63.55-80.5 109.79-101.81zM475.29 163.78l-.82-3A239.14 239.14 0 0 0 425.37 83c20.94 23.8 39.03 50.69 49.92 80.78zM429.05 317.38a22.19 22.19 0 0 0-1.11 2.24 200.53 200.53 0 0 1-38.78 62.17c18.07-18.04 30.77-40.79 39.89-64.41zM81.46 338.85c8.07 13.61 15.83 27.68 27 39.19a83.55 83.55 0 0 0 16.15 15.26 16.44 16.44 0 0 1 2.67 2.49c5 5.9 12.58 11.47 19.73 15.16l14.61 8.66c2.7 1.69 5.55 3.17 8.41 4.69 5.84 2.9 12.06 5 18.12 7.5a91.47 91.47 0 0 0 13.18 3.45c5.28 1.09 9.73 1.08 14 3.42a26.17 26.17 0 0 0 6.51 1.32 96.7 96.7 0 0 0 18.39.42c6.35-.11 13.78-1.16 20.83-1.18 9.71-.38 19.35-2.3 29.1-3.88-13.72 2.36-27.63 2.51-42.05 3.65-3.43.3-7.13-.33-10.69-.53a45.89 45.89 0 0 0-7.69-.31c-7.9.43-15.79-1.41-22.8-3.77-3.08-1.33-4.95-.7-6.89-1.61-7.06-2.9-16.67-4.78-22.62-9.11-11.15-3.94-21.32-10.3-31.42-16.37-7-3.71-13.09-8.94-19-14.13-3.83-4.25-8.33-7.9-12.57-11.77a210.88 210.88 0 0 1-34.13-47.76c-.41 1.42.2 3.19 1.16 5.21z" fill="#000000"></path><path d="M80.9 155.55c-2.31 3.24-3.65 6.89-5 10.39-1.93 5.35-5.47 9.9-7.15 15.58-1.27 3.84-2.86 7.66-4 11.79 3.42-4.78 4.88-12.73 14.08-31.52a181.51 181.51 0 0 1 19.08-29.64l-.93.26a181.69 181.69 0 0 0-16.08 23.14zM97.32 375.32A169.45 169.45 0 0 0 149 419.88c-19.55-11.98-36.65-27.37-51.68-44.56zM296.63 431.13c7.56-1.09 14.17-4.94 21.37-6.9a225 225 0 0 1-56.61 11.29c6.68.73 12.91 0 20.38-1.17 4.85-.79 9.89-2.35 14.86-3.22z" fill="#000000"></path><path d="M69.55 329.83a163.66 163.66 0 0 0 22.08 38.4l.42-.48a175.52 175.52 0 0 1-20.87-35.92c21.13 45.68 61.3 82.31 108.66 99.11A187.31 187.31 0 0 1 118.31 394c-10-9-19.56-18.67-26.92-30.18-16.17-23.94-29.17-51-33.85-80-3.49-18.05-3.44-36.64-2.17-54.95l-.73-.1c-3.75 34.06.9 69.54 15.51 100.81zM71.15 422.67c-3.42-3.82-6.75-7.5-10.31-10.84-5.63-4.9-8.92-11.63-13.61-17.61A129.61 129.61 0 0 1 38 381c2.83 6.77 8.08 16.18 26.66 36.25A236.15 236.15 0 0 0 99 447.93l-.45-1.07c-9.99-7.1-18.62-15.8-27.4-24.19zM76.67 79c-20.21 19.35-37.52 42.2-48.95 68.11A273.23 273.23 0 0 1 76.67 79zM247.41.82c9.89 1 19.79.36 29.45 2.18a229.18 229.18 0 0 0-76.48.44l27-2c6.46-.52 13.44-.73 20.03-.62zM7.48 210.08c3.25-18 8.87-35.67 15.68-52.7l-.62-.1c-6.9 16.92-12.72 34.45-15.67 52.58z" fill="#000000"></path></g><defs><filter id="JM9nY3uA_sLioR1KG1nw9"><feColorMatrix type="matrix" values="0 0 0 0 0.765625  0 0 0 0 0.44140625  0 0 0 0 0.95703125  0 0 0 1 0"></feColorMatrix></filter></defs></svg></g> <g><svg xmlns="http://www.w3.org/2000/svg" xmlns:xlink="http://www.w3.org/1999/xlink" version="1.1" x="10" y="10.294524200938863" viewBox="2.5 2.497999906539917 37 45.374000549316406" enable-background="new 0 0 42 50.37" xml:space="preserve" width="40" height="41.17811" class="image-svg-icon"><path d="M39.5,38.498c0-10.032-8.031-18.206-18-18.475V2.498h-1v17.525c-9.969,0.269-18,8.442-18,18.475v0.5h9.032  c0.325,4.946,4.441,8.874,9.468,8.874c5.027,0,9.144-3.928,9.469-8.874H39.5V38.498z M21,46.872c-4.475,0-8.146-3.479-8.468-7.874  h16.937C29.146,43.393,25.475,46.872,21,46.872z M3.507,37.998c0.266-9.419,8.011-17,17.493-17s17.228,7.581,17.493,17H3.507z"></path></svg></g></g><mask id="527a0e8d-b262-41d5-8a86-cf4cafac7b5e"><g fill="white"><svg xmlns="http://www.w3.org/2000/svg" viewBox="0.00023 0.00334 475.28979 489.28769" style="overflow: visible;" width="60" height="61.76715840187772" x="0" y="0" filtersec="colorsf3426116504"><g transform="scale(1, 1) skewX(0)"><path d="M348.28 47.86c-6.89-3.19-13.55-6.92-20.81-9.23 3.72 1.61 7.48 3.13 9.24 5.21.26.27 2 1 3 1.52l2.7 1.45c9.94 4.1 18.07 10.92 27.25 16.24-7.43-3.36-13.36-8.49-20.21-12.29a26.45 26.45 0 0 1 5.29 3.56 13.73 13.73 0 0 0 3.56 2.39c4.14 1.77 7.24 4.61 12.68 8C362 61.15 355.5 54.58 348.05 52c-2.14-.8-4.24-1.89-6.35-2.87 9.55 4.13 18.32 9.72 27.19 15.14 37.11 24.73 67.05 60.5 83.28 102.2 1 2.92 2.48 6.34 1.9 8a203 203 0 0 0-19.43-38.16c-3.33-5.32-6.17-11.08-10.53-16-23.45-29.73-53.95-55.26-89.17-69.94-9.75-3.8-19.81-8.42-30.05-10.6-12.7-3.3-25.68-6.38-38.7-6.79-19.66 0-40.35.27-59.59 3.39a208 208 0 0 0-72.79 26.84c-5.89 3.4-10.52 6.6-13 10.16 2.65-.37 9.1-5.37 12.19-5.62-12.37 8.32-24.35 17.94-33.43 28.6 15.43-13.86 33.3-24.79 51.63-33.58A223.51 223.51 0 0 1 211 43.42c20.09-3.73 40.85-3.5 61.15-1.49a229.19 229.19 0 0 0-40.24-.5l3.4-.19c21.89-2.39 44.07 1 65 7.13 2.6.71 4.74 1.35 6.59 2.06 10.29 3.77 20.75 6.72 30.44 11.33a94.88 94.88 0 0 1 17.28 9 157.39 157.39 0 0 1 16.29 10.61c-3.82-1.78-7.35-4.65-11.5-6.8C344 65 327.3 57.91 310 52.41a12.47 12.47 0 0 1 1.68 1.26c1 1.22 4.4 2.91 7.92 4.39 7.69 2.8 13.9 7.94 22 10.7 11.24 7.54 23.94 14.09 33.69 23.61 11.71 9.26 22.22 20.63 31.61 32.52 4 5.15 9.25 11.24 11.17 18-2.89-1.76-5.67-6.69-8.72-10.39-3.39-4.32-6.37-8.91-10.12-12.9a196.22 196.22 0 0 0-53.5-43.82c-6.72-4.22-14-7.44-21.17-10.9-6.47-2.07-12.48-3.34-19.5-6.31-2.77-.92-6.13-1.17-9.44-2.89-2-1-1.89.81-5.62-.32-5.39-1.76-11.18-1.73-16.7-2.68-13.38-1.68-27.3-2.53-40.47-.83-9.63.75-19.16 3-28.69 4.82l-14.57 4-13.82 5.23.43.3c-5.33 1.8-10.18 4.64-15.25 7.13-8.58 3.73-16.5 9.06-24.31 14-19.38 13.86-37.35 30.79-50.16 50.93-6.8 10.73-13.59 22.14-18.81 34-6.84 17.43-12.81 35.39-14.9 54.18a209.6 209.6 0 0 0 0 48.09 196.32 196.32 0 0 0 25.3 75.8c8.07 14.78 18.68 28 30.28 40.31a229.1 229.1 0 0 0 26.93 23.13c14.26 9.09 28.89 18.23 45.18 23.33 5.7 2.31 9.53 4.64 14.61 5.91 9.9 3.12 20.08 4.61 30.25 6.49 8.87.54 17.78 2 26.72 1.65.87 0 .57.26 1.11.33 10.83.16 21.45-.89 32-1.46a18.54 18.54 0 0 0 3.05-.54c9.66-2.83 19.61-3.91 29-7.5l14.92-5.3c.56 1.9-5.76 5.4-8.91 8.33 4.71-2.39 6.89-4 11-5.15 4.48-1.31 13.47-5.95 14-8 .5-1.28.82-1.73 3.5-3.14 2.1-1.11 4.73-2.84 4.44-1.44-.24 1.21 1.42-.1 2.72-1a10.52 10.52 0 0 1 3.45-1.85c3.21-.26 7.41-3.69 11.52-6.2A209.49 209.49 0 0 0 427.36 359c18.19-29.53 29.29-63.79 29.91-98.5.09-3.61.12-7.77 1-11.27a21.7 21.7 0 0 1 .23 6.25c-.89 36.37-10.8 72.72-30 103.91-7.49 13.15-17.1 25-27.34 36.12-3.81 4.63-8.44 8.42-12.78 12.53 6.66-5.4 13.26-10.8 18.77-17.5A71.62 71.62 0 0 1 391 406.39a54.18 54.18 0 0 1 5-3.58 9.34 9.34 0 0 0 3.11-2.71c2.44-3.61 5.68-6 9.94-10.52-5.11 7.81-12.07 13.18-17.37 18.51-5.28 6.24-12.6 10.92-19.25 15.93-6.31 5.44-14.36 8.64-21.35 13.51 2.89.27 3.41.28.55 2.11l14.88-9.06a222.48 222.48 0 0 0 81.89-100.14c1.07-2.85 2.14-6.31 3.65-7.19a183.6 183.6 0 0 1-17.25 39 172.22 172.22 0 0 1-10.6 15.95c-20.76 32.13-52.9 56.9-87.67 73.42a219.4 219.4 0 0 1-30.53 11c-12.82 4.16-26.33 5.16-39.36 7.62-19.89 3.13-41.6 1.82-61.09-2.41a233.55 233.55 0 0 1-73.64-29.43c-3.52-2.2-6.66-3.87-9.56-5.32l2.17 1.42a33.72 33.72 0 0 1-6.6-3.75l-.8-.43c.92 2.86 8.41 7 10.25 9.34-13.78-7.62-26.15-17.92-37.95-27 12.38 12.89 26.16 24.71 41.53 34.12a74.76 74.76 0 0 0 12.52 6.57c3.44 1.46 7.24 3.23 10.53 5 7.84 4.18 16.58 6.47 24.79 10.12 3.43 1.12 7.59 3 10.84 3.29 5.95.65 12.31 2.6 18.49 3.21 15.78 2.49 31.58 2.4 47.84 3a48.72 48.72 0 0 0 5.73-.41 125.19 125.19 0 0 0 13.45-1.56c6.45-1.13 13.2-1.58 19.25-3.11 23.28-5.95 46.08-13.85 67.17-25.55 2.56-1.5 4.72-2.7 6.7-3.64 10.49-6.08 19.78-13.84 28.35-21.84 10.39-9.73 20.53-19.85 29-31.2-1.95 4.22-5.35 7.92-8.69 11.8-12.7 15.31-28.14 28.3-44.72 40a15 15 0 0 1 2.23-.65c1.78 0 5.36-2.35 9-4.75 7.79-5 15.55-9.73 22-17.11 12.5-9.41 21.88-23 32-34.73 9.59-14.38 18.72-29.62 25.44-45.82a163.12 163.12 0 0 1 9.21-22.76c.79 3.92-1.92 10.12-3.77 15.44a129.6 129.6 0 0 1-7.42 17.89 237.34 237.34 0 0 1-46.62 67.36c-7.09 6.19-13.84 12.71-21.38 18.46-6.37 4.81-11.27 10.55-19.52 14.57-3.07 1.63-6.17 4.19-10.29 5.7-2.55.83-.95 2.29-5.27 4.17l-18.24 9c-15.06 6.27-31 10.79-46.53 14.67-11.43 2.29-23.06 4.56-34.92 4.85a157.09 157.09 0 0 1-18.37.45l-18-.63.32.47-20.57-2.7a269.25 269.25 0 0 1-33.5-8.93c-28.19-8.94-54.24-24.62-77.36-42.88-12.32-9.94-23.64-22.08-33.76-34.63-15-18-25.67-39.14-34.69-60.58C15 320.83 9.6 301.47 7.46 281.72a241.54 241.54 0 0 1 7.89-97.89 228.07 228.07 0 0 1 25.14-55.9c7.25-12.3 16.21-23.61 25.51-34.29 13.38-15.43 29.21-28.43 45.7-40.21 6-4.21 11.3-5.52 16.53-8.75a200.37 200.37 0 0 1 33-15.11 191.75 191.75 0 0 1 30-8.57c1-.23.71.12 1.33.06a150.22 150.22 0 0 1 36.52-3.69 35.13 35.13 0 0 0 3.52-.22c11.46-1.2 22.67.26 33.88 1.26a90.16 90.16 0 0 1 17.56 3c-.51 1.47-5.6 1.27-9.92 1.76 8.51 1.49 17.19 2.22 25.5 4.72a7.71 7.71 0 0 0 1.74 0c1.32-.51 1.92-.58 5.1.43 2.49.79 5.87 1.54 4.53 2.28-.2.12.12.27.12.27 6.15 1.54 12 4.07 18 6.19 46 18.39 86.21 51.61 111.86 94.17C460.74 163 471.44 199.89 474 237.07c.3 3.87.7 8.38.23 12.15a24.91 24.91 0 0 1-.88-6.68C472 203.64 460.81 165 440.07 132a212.79 212.79 0 0 0-29.28-38.23 230 230 0 0 0-62.51-45.91zM238.07 19.1c-.83.82 1.21 1.18 3.76 1.37 1.73.17 3.69 0 5.93.3h6.36c1.38 0 4.57.28 3.49-.53-.92-.68-2.67-.64-4.49-.38-3.43.53-6.14.3-7.5-.85-.53-.47-1-1.14-4.38-.82a6.27 6.27 0 0 0-3.17.91zm-139.61 84l-13.1 14.63.22.05zM346 442.52a137.52 137.52 0 0 1-29.65 11.13c-7.12 2.5-15 4.11-18.89 6.66l-1.36.58a213.91 213.91 0 0 0 49.9-18.37zm39.38-31.71l-.69.63.31-.25zm-92.07 39.66c-.58.95 1.29.95 3.61.67l5.36-.88 5.56-1.69c1.19-.38 3.94-1.35 2.76-1.68-1-.31-2.41.41-3.92 1.08-2.81 1.39-5.22 2.06-6.73 1.12-.58-.36-1.16-.93-4 0a5.23 5.23 0 0 0-2.66 1.38zM194.65 47.6l5.72-1.15c1.52-.21 3.36-1 5-1.35l8-1.45a119.44 119.44 0 0 0-18.72 3.95zm-72.78 35.17c4.39-3.16 8.62-6.59 13.58-8.9 2.92-1.52 6.76-3 9-4.9 4-3.82 9.86-5.68 14.78-8.35a91.6 91.6 0 0 1 10.57-5c-17.01 7.02-33.43 15.76-47.93 27.15zM324.5 41.82h-.07c-8-3-16.13-6.18-24.79-7.84l.21.26a158.57 158.57 0 0 1 24.65 7.58z"></path><path d="M143.37 26.86l1.5-.37c1.29-.14 5.39-2.21 7.81-3.23l21.71-8.94c7.65-2.72 16.93-5.72 25.9-7.13 12.41-1.84 24.88-4 37.69-3.53-17.75-.3-36.21.69-54.21 6.48-4.25 1.38-9.07 2.07-13.44 3.65a76 76 0 0 0-9.4 3.49c-9.33 4.27-18.61 8.53-27.83 11.72-4.17 1.38-5.57 3.41-8.08 4.53-9.32 3.84-19.36 11.77-27.78 16.15C91 54.43 84.84 59.32 79 64.66a121.81 121.81 0 0 0-16.79 16.55C55.05 88.91 49 97.5 42.11 105.6c-5.07 5.69-8.39 12.83-12.54 19.26a249.39 249.39 0 0 0-28.3 73.45c1.3-1.24 2.08-3.58 2.83-6.46 4.66-20.67 13.49-39.88 23.12-58.4 4.7-8.4 10.56-16.71 14.93-25.06a17.13 17.13 0 0 1 3-3.76c7.29-7 14.23-16.77 21.48-24.35a97.42 97.42 0 0 1 16.08-15c3.34-2.39 6.24-5.37 9.73-7.68 6.94-4.74 13.49-10 20.75-14.27 5-3 10.54-6.08 14.91-9.13 5.14-3.31 9.72-5.88 14.87-7.18-21.59 9.72-41.22 23.34-59 38.69a253.52 253.52 0 0 0-35 37.53c-23.07 28.88-38.44 64.74-45 101.6C-.75 228-.65 251.73 1.13 275.18l.74-.05a279.7 279.7 0 0 1 4.61-75.69 263.41 263.41 0 0 1 27.1-70.77c25.15-43.89 63.55-80.5 109.79-101.81zM475.29 163.78l-.82-3A239.14 239.14 0 0 0 425.37 83c20.94 23.8 39.03 50.69 49.92 80.78zM429.05 317.38a22.19 22.19 0 0 0-1.11 2.24 200.53 200.53 0 0 1-38.78 62.17c18.07-18.04 30.77-40.79 39.89-64.41zM81.46 338.85c8.07 13.61 15.83 27.68 27 39.19a83.55 83.55 0 0 0 16.15 15.26 16.44 16.44 0 0 1 2.67 2.49c5 5.9 12.58 11.47 19.73 15.16l14.61 8.66c2.7 1.69 5.55 3.17 8.41 4.69 5.84 2.9 12.06 5 18.12 7.5a91.47 91.47 0 0 0 13.18 3.45c5.28 1.09 9.73 1.08 14 3.42a26.17 26.17 0 0 0 6.51 1.32 96.7 96.7 0 0 0 18.39.42c6.35-.11 13.78-1.16 20.83-1.18 9.71-.38 19.35-2.3 29.1-3.88-13.72 2.36-27.63 2.51-42.05 3.65-3.43.3-7.13-.33-10.69-.53a45.89 45.89 0 0 0-7.69-.31c-7.9.43-15.79-1.41-22.8-3.77-3.08-1.33-4.95-.7-6.89-1.61-7.06-2.9-16.67-4.78-22.62-9.11-11.15-3.94-21.32-10.3-31.42-16.37-7-3.71-13.09-8.94-19-14.13-3.83-4.25-8.33-7.9-12.57-11.77a210.88 210.88 0 0 1-34.13-47.76c-.41 1.42.2 3.19 1.16 5.21z"></path><path d="M80.9 155.55c-2.31 3.24-3.65 6.89-5 10.39-1.93 5.35-5.47 9.9-7.15 15.58-1.27 3.84-2.86 7.66-4 11.79 3.42-4.78 4.88-12.73 14.08-31.52a181.51 181.51 0 0 1 19.08-29.64l-.93.26a181.69 181.69 0 0 0-16.08 23.14zM97.32 375.32A169.45 169.45 0 0 0 149 419.88c-19.55-11.98-36.65-27.37-51.68-44.56zM296.63 431.13c7.56-1.09 14.17-4.94 21.37-6.9a225 225 0 0 1-56.61 11.29c6.68.73 12.91 0 20.38-1.17 4.85-.79 9.89-2.35 14.86-3.22z"></path><path d="M69.55 329.83a163.66 163.66 0 0 0 22.08 38.4l.42-.48a175.52 175.52 0 0 1-20.87-35.92c21.13 45.68 61.3 82.31 108.66 99.11A187.31 187.31 0 0 1 118.31 394c-10-9-19.56-18.67-26.92-30.18-16.17-23.94-29.17-51-33.85-80-3.49-18.05-3.44-36.64-2.17-54.95l-.73-.1c-3.75 34.06.9 69.54 15.51 100.81zM71.15 422.67c-3.42-3.82-6.75-7.5-10.31-10.84-5.63-4.9-8.92-11.63-13.61-17.61A129.61 129.61 0 0 1 38 381c2.83 6.77 8.08 16.18 26.66 36.25A236.15 236.15 0 0 0 99 447.93l-.45-1.07c-9.99-7.1-18.62-15.8-27.4-24.19zM76.67 79c-20.21 19.35-37.52 42.2-48.95 68.11A273.23 273.23 0 0 1 76.67 79zM247.41.82c9.89 1 19.79.36 29.45 2.18a229.18 229.18 0 0 0-76.48.44l27-2c6.46-.52 13.44-.73 20.03-.62zM7.48 210.08c3.25-18 8.87-35.67 15.68-52.7l-.62-.1c-6.9 16.92-12.72 34.45-15.67 52.58z"></path></g><defs></defs></svg></g> <g fill="black"><svg xmlns="http://www.w3.org/2000/svg" xmlns:xlink="http://www.w3.org/1999/xlink" version="1.1" x="10" y="10.294524200938863" viewBox="2.5 2.497999906539917 37 45.374000549316406" enable-background="new 0 0 42 50.37" xml:space="preserve" width="40" height="41.17811" class="image-svg-icon"><path d="M39.5,38.498c0-10.032-8.031-18.206-18-18.475V2.498h-1v17.525c-9.969,0.269-18,8.442-18,18.475v0.5h9.032  c0.325,4.946,4.441,8.874,9.468,8.874c5.027,0,9.144-3.928,9.469-8.874H39.5V38.498z M21,46.872c-4.475,0-8.146-3.479-8.468-7.874  h16.937C29.146,43.393,25.475,46.872,21,46.872z M3.507,37.998c0.266-9.419,8.011-17,17.493-17s17.228,7.581,17.493,17H3.507z"></path></svg></g><defs><filter id="9a0253e8-f5b1-498c-8f97-8a0688b06d9e"><feGaussianBlur in="SourceGraphic" stdDeviation="1.26"></feGaussianBlur><feComponentTransfer><feFuncA type="discrete" tableValues="0 1 1 1 1 1 1 1 1 1 1 1 1 1 0"></feFuncA></feComponentTransfer></filter></defs></mask></svg> <defs><filter id="colors4687367488"><feColorMatrix type="matrix" values="0 0 0 0 0.765625  0 0 0 0 0.44140625  0 0 0 0 0.95703125  0 0 0 1 0" class="icon-fecolormatrix"></feColorMatrix></filter> <filter id="colorsf3426116504"><feColorMatrix type="matrix" values="0 0 0 0 0.99609375  0 0 0 0 0.99609375  0 0 0 0 0.99609375  0 0 0 1 0" class="icon-fecolormatrix"></feColorMatrix></filter> <filter id="colorsb1156101514"><feColorMatrix type="matrix" values="0 0 0 0 0  0 0 0 0 0  0 0 0 0 0  0 0 0 1 0" class="icon-fecolormatrix"></feColorMatrix></filter></defs></g></mask></svg>