<svg data-v-70b83f88="" version="1.0" xmlns="http://www.w3.org/2000/svg" xmlns:xlink="http://www.w3.org/1999/xlink" width="100%" height="100%" viewBox="0 0 340.000000 250.000000" preserveAspectRatio="xMidYMid meet" color-interpolation-filters="sRGB" style="margin: auto;"> <rect data-v-70b83f88="" x="0" y="0" width="100%" height="100%" fill="#ffffff" fill-opacity="0" class="background"></rect> <rect data-v-70b83f88="" x="0" y="0" width="100%" height="100%" fill="url(#watermark)" fill-opacity="1" class="watermarklayer"></rect> <g data-v-70b83f88="" class="iconmbgsvg" transform="translate(87.33000183105469,41.17613983154297)"><g fill="#000000" hollow-target="textNormalTran"><g opacity="1" transform="matrix(1,0,0,1,26.419998168945312,0)" mask="url(#2c59154b-1ea7-4623-a039-e0555a86ec9b)"><g><rect fill="#000000" fill-opacity="0" stroke-width="2" x="0" y="0" width="112.5" height="167.64771626555398" class="image-rect"></rect> <svg filter="url(#colors6868722650)" x="0" y="0" width="112.5" height="167.64771626555398" filtersec="colorsf4113861660" class="image-svg-svg primary" style="overflow: visible;"><svg xmlns="http://www.w3.org/2000/svg" xmlns:xlink="http://www.w3.org/1999/xlink" version="1.1" x="0px" y="0px" viewBox="32.099998474121094 23.399999618530273 35.70000457763672 53.19999694824219" xml:space="preserve"><g><path d="M52.5,52v-6.9c0-1.1-0.8-1.9-1.9-2V23.9c0-0.3-0.2-0.5-0.5-0.5h-0.2c-0.3,0-0.5,0.2-0.5,0.5v19.2c-1,0.1-1.9,0.9-1.9,2V52   c-8.7,1.2-15.4,8.6-15.4,17.7h35.7C67.8,60.6,61.2,53.2,52.5,52z"></path><path d="M50,76.6c4,0,7.4-2.4,8.9-5.7H41.1C42.6,74.3,46,76.6,50,76.6z"></path></g></svg></svg> <defs><filter id="colors6868722650"><feColorMatrix type="matrix" values="0 0 0 0 0.99609375  0 0 0 0 0  0 0 0 0 0.99609375  0 0 0 1 0" class="icon-fecolormatrix"></feColorMatrix></filter> <filter id="colorsf4113861660"><feColorMatrix type="matrix" values="0 0 0 0 0.99609375  0 0 0 0 0.99609375  0 0 0 0 0.99609375  0 0 0 1 0" class="icon-fecolormatrix"></feColorMatrix></filter> <filter id="colorsb8110473198"><feColorMatrix type="matrix" values="0 0 0 0 0  0 0 0 0 0  0 0 0 0 0  0 0 0 1 0" class="icon-fecolormatrix"></feColorMatrix></filter></defs></g><rect v-gra="id" width="124.5" height="179.64772033691406" transform="translate(-6, -6)" style="pointer-events:none;" fill="url(#R_ntg-aBWHDjjuaOw83el)"></rect></g> <g transform="translate(0,58.8758602142334)"><g data-gra="path-name" fill-rule="" class="tp-name" transform="matrix(1,0,0,1,0,0)" opacity="1"><g transform="scale(1)"><g><path d="M26.95-17.73L26.95 0 21.99 0 21.99-17.73Q21.99-18.25 21.8-18.7 21.6-19.15 21.26-19.49 20.92-19.83 20.47-20.02 20.02-20.21 19.5-20.21L19.5-20.21Q18.98-20.21 18.53-20.02 18.08-19.83 17.74-19.49 17.4-19.15 17.21-18.7 17.02-18.25 17.02-17.73L17.02-17.73 17.02 0 12.05 0 12.05-17.73Q12.05-18.25 11.86-18.7 11.67-19.15 11.33-19.49 11-19.83 10.55-20.02 10.1-20.21 9.58-20.21L9.58-20.21Q9.06-20.21 8.61-20.02 8.16-19.83 7.82-19.49 7.48-19.15 7.29-18.7 7.1-18.25 7.1-17.73L7.1-17.73 7.1 0 2.13 0 2.13-17.73Q2.13-19.28 2.71-20.63 3.29-21.99 4.3-23.01 5.32-24.02 6.68-24.6 8.04-25.18 9.58-25.18L9.58-25.18Q10.96-25.18 12.24-24.69 13.53-24.19 14.55-23.26L14.55-23.26Q15.57-24.19 16.84-24.69 18.11-25.18 19.5-25.18L19.5-25.18Q21.04-25.18 22.4-24.6 23.76-24.02 24.77-23.01 25.79-21.99 26.37-20.63 26.95-19.28 26.95-17.73L26.95-17.73ZM37.56 7.1L35.14 7.07 35.14 2.3 37.77 2.34Q38.46 2.34 39.1 2.11 39.75 1.89 40.29 1.49 40.84 1.09 41.25 0.55 41.67 0 41.93-0.64L41.93-0.64Q41.15-0.31 40.34 0.02 39.54 0.35 38.72 0.35L38.72 0.35Q37.01 0.35 35.5-0.26 34-0.87 32.86-1.98 31.73-3.1 31.08-4.7 30.43-6.3 30.43-8.3L30.43-8.3 30.43-18.55 35.14-18.55 35.14-8.3Q35.14-7.31 35.42-6.57 35.71-5.84 36.2-5.34 36.68-4.85 37.33-4.61 37.98-4.36 38.72-4.36L38.72-4.36Q39.45-4.36 40.1-4.7 40.75-5.04 41.23-5.59 41.72-6.15 42-6.85 42.27-7.55 42.27-8.3L42.27-8.3 42.27-18.55 47.04-18.55 47.04-2.34Q47.02-0.38 46.27 1.33 45.53 3.05 44.24 4.33 42.95 5.61 41.23 6.36 39.52 7.1 37.56 7.1L37.56 7.1ZM56.11-9.92L56.11 0 51.14 0 51.14-24.83 68.53-24.83 68.53-19.86 56.11-19.86 56.11-14.89 63.56-14.89 63.56-9.92 56.11-9.92ZM84.58 0L83.02-2.16Q82.45-1.65 81.8-1.19 81.15-0.73 80.44-0.39 79.73-0.05 78.98 0.15 78.23 0.35 77.45 0.35L77.45 0.35Q75.73 0.35 74.23-0.26 72.72-0.87 71.59-1.98 70.45-3.1 69.8-4.7 69.15-6.3 69.15-8.3L69.15-8.3 69.15-18.55 73.86-18.55 73.86-8.3Q73.86-7.36 74.15-6.62 74.43-5.89 74.92-5.39 75.4-4.88 76.05-4.62 76.7-4.36 77.45-4.36L77.45-4.36Q78.18-4.36 78.82-4.7 79.47-5.04 79.96-5.59 80.44-6.15 80.72-6.85 81-7.55 81-8.3L81-8.3 81-18.55 85.73-18.55 85.73 0 84.58 0ZM94.06-10.22L94.06 0 89.33 0 89.33-18.55 90.47-18.55 92.03-16.35Q93.17-17.39 94.63-17.95 96.08-18.51 97.64-18.51L97.64-18.51 101.81-18.51 101.81-13.8 97.64-13.8Q96.9-13.8 96.24-13.53 95.58-13.25 95.1-12.76 94.61-12.28 94.33-11.62 94.06-10.96 94.06-10.22L94.06-10.22ZM108.74-10.6L108.74 0 104.01 0 104.01-18.55 105.16-18.55 106.72-16.75Q107.86-17.79 109.3-18.35 110.75-18.91 112.33-18.91L112.33-18.91Q114.02-18.91 115.53-18.26 117.04-17.61 118.16-16.48 119.29-15.34 119.94-13.83 120.59-12.31 120.59-10.6L120.59-10.6 120.59 0 115.86 0 115.86-10.6Q115.86-11.33 115.58-11.98 115.31-12.63 114.82-13.11 114.34-13.59 113.69-13.87 113.05-14.15 112.33-14.15L112.33-14.15Q111.58-14.15 110.92-13.87 110.27-13.59 109.78-13.11 109.3-12.63 109.02-11.98 108.74-11.33 108.74-10.6L108.74-10.6ZM129.52-23.59L129.52-23.59Q129.52-22.93 129.27-22.36 129.02-21.79 128.59-21.36 128.16-20.94 127.58-20.69 127-20.44 126.34-20.44L126.34-20.44Q125.68-20.44 125.1-20.69 124.52-20.94 124.09-21.36 123.67-21.79 123.42-22.36 123.17-22.93 123.17-23.59L123.17-23.59Q123.17-24.23 123.42-24.81 123.67-25.39 124.09-25.81 124.52-26.24 125.1-26.49 125.68-26.74 126.34-26.74L126.34-26.74Q127-26.74 127.58-26.49 128.16-26.24 128.59-25.81 129.02-25.39 129.27-24.81 129.52-24.23 129.52-23.59ZM128.71-18.55L128.71 0 123.95 0 123.95-18.55 128.71-18.55ZM142.5 0L142.5 0 131.69 0 131.69-4.71 142.5-4.71Q142.98-4.71 143.33-5.06 143.67-5.4 143.67-5.89L143.67-5.89Q143.67-6.39 143.33-6.55 142.98-6.7 142.5-6.7L142.5-6.7 137.58-6.7Q136.35-6.7 135.27-7.17 134.2-7.64 133.4-8.44 132.61-9.25 132.15-10.32 131.69-11.4 131.69-12.63L131.69-12.63Q131.69-13.85 132.15-14.93 132.61-16 133.4-16.8 134.2-17.6 135.27-18.05 136.35-18.51 137.58-18.51L137.58-18.51 147.15-18.51 147.15-13.8 137.58-13.8Q137.09-13.8 136.75-13.46 136.4-13.11 136.4-12.63L136.4-12.63Q136.4-12.12 136.75-11.77 137.09-11.41 137.58-11.41L137.58-11.41 142.5-11.41Q143.71-11.41 144.78-11.01 145.86-10.6 146.65-9.87 147.45-9.14 147.92-8.12 148.38-7.1 148.38-5.89L148.38-5.89Q148.38-4.66 147.92-3.59 147.45-2.53 146.65-1.72 145.86-0.92 144.78-0.46 143.71 0 142.5 0ZM155.62-10.6L155.62 0 150.89 0 150.89-25.93 155.62-25.93 155.62-17.73Q156.47-18.37 157.37-18.64 158.27-18.91 159.21-18.91L159.21-18.91Q160.92-18.91 162.43-18.26 163.94-17.61 165.05-16.48 166.17-15.34 166.82-13.83 167.47-12.31 167.47-10.6L167.47-10.6 167.47 0 162.71 0 162.71-10.6 162.74-10.6Q162.74-11.33 162.46-11.98 162.19-12.63 161.7-13.11 161.22-13.59 160.58-13.87 159.93-14.15 159.21-14.15L159.21-14.15Q158.46-14.15 157.8-13.87 157.15-13.59 156.66-13.11 156.18-12.63 155.9-11.98 155.62-11.33 155.62-10.6L155.62-10.6Z" transform="translate(-2.130000114440918, 26.739999771118164)"></path></g> <!----> <!----> <!----> <!----> <!----> <!----> <!----></g></g> <g data-gra="path-slogan" fill-rule="" class="tp-slogan" fill="#000000" transform="matrix(1,0,0,1,14.285003662109375,39.84000015258789)" opacity="1"><!----> <!----> <g transform="scale(1, 1)"><g transform="scale(1)"><path d="M2.35-3.05L2.35 0L3.36 0L3.36-3.05L5.72-7.87L4.68-7.87L3.67-5.65C3.55-5.36 3.42-5.08 3.29-4.80C3.15-4.52 3.02-4.23 2.88-3.94L2.83-3.94C2.70-4.23 2.57-4.52 2.45-4.80C2.33-5.08 2.20-5.36 2.08-5.65L1.06-7.87L-0.01-7.87ZM9.53 0.14C10.02 0.14 10.48 0.05 10.89-0.14C11.30-0.34 11.66-0.61 11.96-0.97C12.26-1.32 12.49-1.75 12.65-2.26C12.82-2.77 12.90-3.34 12.90-3.97C12.90-4.60 12.82-5.16 12.65-5.66C12.49-6.16 12.26-6.58 11.96-6.93C11.66-7.28 11.30-7.55 10.89-7.73C10.48-7.92 10.02-8.02 9.53-8.02C9.03-8.02 8.58-7.92 8.17-7.74C7.75-7.56 7.40-7.29 7.10-6.94C6.81-6.59 6.58-6.17 6.41-5.67C6.25-5.17 6.17-4.60 6.17-3.97C6.17-3.34 6.25-2.77 6.41-2.26C6.58-1.75 6.81-1.32 7.10-0.97C7.40-0.61 7.75-0.34 8.17-0.14C8.58 0.05 9.03 0.14 9.53 0.14ZM9.53-0.73C9.18-0.73 8.86-0.81 8.57-0.96C8.29-1.11 8.05-1.33 7.84-1.61C7.64-1.90 7.48-2.24 7.37-2.63C7.26-3.03 7.20-3.48 7.20-3.97C7.20-4.46 7.26-4.90 7.37-5.29C7.48-5.68 7.64-6.02 7.84-6.29C8.05-6.56 8.29-6.77 8.57-6.92C8.86-7.07 9.18-7.14 9.53-7.14C9.88-7.14 10.20-7.07 10.48-6.92C10.77-6.77 11.01-6.56 11.21-6.29C11.42-6.02 11.58-5.68 11.69-5.29C11.80-4.90 11.86-4.46 11.86-3.97C11.86-3.48 11.80-3.03 11.69-2.63C11.58-2.24 11.42-1.90 11.21-1.61C11.01-1.33 10.77-1.11 10.48-0.96C10.20-0.81 9.88-0.73 9.53-0.73ZM14.56-7.87L14.56-3.25C14.56-2.62 14.63-2.09 14.77-1.66C14.92-1.22 15.11-0.87 15.37-0.61C15.62-0.34 15.92-0.15 16.27-0.03C16.61 0.09 16.99 0.14 17.39 0.14C17.79 0.14 18.16 0.09 18.50-0.03C18.85-0.15 19.15-0.34 19.40-0.61C19.65-0.87 19.85-1.22 19.99-1.66C20.14-2.09 20.21-2.62 20.21-3.25L20.21-7.87L19.25-7.87L19.25-3.23C19.25-2.76 19.20-2.36 19.10-2.04C19.01-1.72 18.88-1.46 18.71-1.27C18.54-1.08 18.34-0.94 18.12-0.86C17.90-0.77 17.65-0.73 17.39-0.73C17.13-0.73 16.89-0.77 16.67-0.86C16.44-0.94 16.25-1.08 16.09-1.27C15.92-1.46 15.79-1.72 15.70-2.04C15.60-2.36 15.55-2.76 15.55-3.23L15.55-7.87ZM23.33-4.14L23.33-7.07L24.65-7.07C25.26-7.07 25.74-6.96 26.06-6.76C26.39-6.55 26.56-6.18 26.56-5.66C26.56-5.15 26.39-4.77 26.06-4.52C25.74-4.27 25.26-4.14 24.65-4.14ZM26.65 0L27.78 0L25.79-3.43C26.32-3.57 26.75-3.82 27.07-4.19C27.39-4.56 27.55-5.05 27.55-5.66C27.55-6.07 27.48-6.42 27.35-6.70C27.21-6.98 27.02-7.20 26.78-7.38C26.53-7.56 26.24-7.68 25.90-7.76C25.56-7.83 25.19-7.87 24.79-7.87L22.33-7.87L22.33 0L23.33 0L23.33-3.32L24.76-3.32ZM31.75-1.72L31.15-1.02C31.50-0.66 31.90-0.38 32.38-0.17C32.85 0.04 33.36 0.14 33.91 0.14C34.33 0.14 34.70 0.09 35.03-0.03C35.36-0.15 35.64-0.31 35.87-0.51C36.10-0.71 36.28-0.95 36.40-1.22C36.53-1.50 36.59-1.79 36.59-2.10C36.59-2.39 36.55-2.64 36.46-2.86C36.38-3.08 36.26-3.27 36.12-3.44C35.98-3.60 35.80-3.75 35.60-3.87C35.40-3.99 35.19-4.10 34.97-4.20L33.85-4.68C33.69-4.74 33.54-4.81 33.38-4.89C33.23-4.97 33.09-5.05 32.96-5.15C32.84-5.25 32.73-5.37 32.66-5.50C32.58-5.63 32.54-5.80 32.54-5.99C32.54-6.35 32.68-6.63 32.95-6.83C33.21-7.04 33.57-7.14 34.01-7.14C34.38-7.14 34.71-7.07 35.00-6.94C35.29-6.81 35.56-6.63 35.80-6.40L36.34-7.04C36.06-7.33 35.72-7.57 35.32-7.75C34.92-7.93 34.48-8.02 34.01-8.02C33.65-8.02 33.32-7.96 33.02-7.86C32.72-7.76 32.46-7.61 32.24-7.42C32.02-7.23 31.85-7.01 31.72-6.76C31.60-6.50 31.54-6.22 31.54-5.93C31.54-5.64 31.58-5.39 31.68-5.17C31.78-4.95 31.90-4.76 32.05-4.60C32.20-4.44 32.38-4.30 32.57-4.19C32.76-4.08 32.95-3.98 33.13-3.90L34.26-3.41C34.44-3.32 34.62-3.24 34.78-3.16C34.94-3.08 35.07-2.99 35.19-2.89C35.31-2.79 35.40-2.67 35.47-2.53C35.53-2.39 35.57-2.22 35.57-2.02C35.57-1.63 35.42-1.32 35.14-1.09C34.85-0.85 34.44-0.73 33.92-0.73C33.52-0.73 33.12-0.82 32.74-1.00C32.36-1.18 32.03-1.42 31.75-1.72ZM38.14-7.87L38.14 0L39.13 0L39.13-3.12L40.55-3.12C40.98-3.12 41.37-3.17 41.73-3.27C42.09-3.37 42.39-3.52 42.65-3.72C42.90-3.92 43.10-4.17 43.24-4.48C43.38-4.78 43.45-5.14 43.45-5.56C43.45-5.99 43.38-6.35 43.24-6.65C43.10-6.94 42.91-7.18 42.65-7.36C42.40-7.54 42.10-7.67 41.74-7.75C41.38-7.83 40.98-7.87 40.55-7.87ZM40.43-3.94L39.13-3.94L39.13-7.07L40.43-7.07C41.11-7.07 41.62-6.96 41.95-6.74C42.29-6.52 42.46-6.12 42.46-5.56C42.46-5.00 42.29-4.59 41.96-4.33C41.63-4.07 41.12-3.94 40.43-3.94ZM47.80-3.20L45.43-3.20L45.80-4.40C45.95-4.84 46.08-5.28 46.21-5.72C46.34-6.15 46.46-6.60 46.58-7.06L46.63-7.06C46.76-6.60 46.89-6.15 47.02-5.72C47.14-5.28 47.28-4.84 47.42-4.40ZM48.05-2.40L48.79 0L49.86 0L47.20-7.87L46.07-7.87L43.40 0L44.42 0L45.18-2.40ZM50.40-3.94C50.40-3.30 50.49-2.72 50.66-2.21C50.83-1.71 51.07-1.28 51.38-0.93C51.69-0.58 52.05-0.32 52.47-0.13C52.89 0.05 53.35 0.14 53.84 0.14C54.35 0.14 54.80 0.04 55.19-0.16C55.58-0.36 55.93-0.64 56.24-1.00L55.68-1.61C55.42-1.33 55.15-1.11 54.87-0.96C54.59-0.81 54.25-0.73 53.87-0.73C53.49-0.73 53.15-0.81 52.85-0.96C52.55-1.11 52.30-1.33 52.09-1.61C51.88-1.89 51.72-2.23 51.61-2.62C51.49-3.02 51.43-3.46 51.43-3.96C51.43-4.45 51.49-4.89 51.61-5.28C51.73-5.67 51.90-6.01 52.12-6.28C52.33-6.56 52.59-6.77 52.90-6.92C53.20-7.07 53.54-7.14 53.92-7.14C54.25-7.14 54.55-7.07 54.80-6.94C55.05-6.81 55.28-6.63 55.49-6.41L56.05-7.04C55.82-7.30 55.52-7.53 55.16-7.72C54.80-7.92 54.38-8.02 53.90-8.02C53.40-8.02 52.93-7.92 52.51-7.73C52.08-7.55 51.71-7.28 51.40-6.92C51.08-6.57 50.84-6.14 50.66-5.64C50.49-5.14 50.40-4.57 50.40-3.94ZM57.71-7.87L57.71 0L62.36 0L62.36-0.85L58.70-0.85L58.70-3.71L61.69-3.71L61.69-4.56L58.70-4.56L58.70-7.03L62.24-7.03L62.24-7.87ZM63.52 1.46L63.76 2.04C64.24 1.83 64.63 1.54 64.91 1.15C65.19 0.77 65.33 0.32 65.33-0.20C65.33-0.56 65.25-0.85 65.11-1.06C64.96-1.26 64.76-1.37 64.50-1.37C64.30-1.37 64.13-1.31 63.98-1.18C63.84-1.06 63.77-0.89 63.77-0.67C63.77-0.45 63.84-0.28 63.98-0.16C64.12-0.05 64.28 0.01 64.48 0.01C64.53 0.01 64.57 0.01 64.60 0C64.60 0.33 64.50 0.62 64.31 0.86C64.12 1.11 63.85 1.31 63.52 1.46ZM72.35 0.14C72.84 0.14 73.30 0.05 73.71-0.14C74.12-0.34 74.48-0.61 74.78-0.97C75.08-1.32 75.31-1.75 75.47-2.26C75.64-2.77 75.72-3.34 75.72-3.97C75.72-4.60 75.64-5.16 75.47-5.66C75.31-6.16 75.08-6.58 74.78-6.93C74.48-7.28 74.12-7.55 73.71-7.73C73.30-7.92 72.84-8.02 72.35-8.02C71.85-8.02 71.40-7.92 70.99-7.74C70.57-7.56 70.22-7.29 69.92-6.94C69.63-6.59 69.40-6.17 69.23-5.67C69.07-5.17 68.99-4.60 68.99-3.97C68.99-3.34 69.07-2.77 69.23-2.26C69.40-1.75 69.63-1.32 69.92-0.97C70.22-0.61 70.57-0.34 70.99-0.14C71.40 0.05 71.85 0.14 72.35 0.14ZM72.35-0.73C72.00-0.73 71.68-0.81 71.39-0.96C71.11-1.11 70.87-1.33 70.66-1.61C70.46-1.90 70.30-2.24 70.19-2.63C70.08-3.03 70.02-3.48 70.02-3.97C70.02-4.46 70.08-4.90 70.19-5.29C70.30-5.68 70.46-6.02 70.66-6.29C70.87-6.56 71.11-6.77 71.39-6.92C71.68-7.07 72.00-7.14 72.35-7.14C72.70-7.14 73.02-7.07 73.30-6.92C73.59-6.77 73.83-6.56 74.03-6.29C74.24-6.02 74.40-5.68 74.51-5.29C74.62-4.90 74.68-4.46 74.68-3.97C74.68-3.48 74.62-3.03 74.51-2.63C74.40-2.24 74.24-1.90 74.03-1.61C73.83-1.33 73.59-1.11 73.30-0.96C73.02-0.81 72.70-0.73 72.35-0.73ZM77.38-7.87L77.38-3.25C77.38-2.62 77.45-2.09 77.59-1.66C77.74-1.22 77.93-0.87 78.19-0.61C78.44-0.34 78.74-0.15 79.09-0.03C79.43 0.09 79.81 0.14 80.21 0.14C80.61 0.14 80.98 0.09 81.32-0.03C81.67-0.15 81.97-0.34 82.22-0.61C82.47-0.87 82.67-1.22 82.81-1.66C82.96-2.09 83.03-2.62 83.03-3.25L83.03-7.87L82.07-7.87L82.07-3.23C82.07-2.76 82.02-2.36 81.92-2.04C81.83-1.72 81.70-1.46 81.53-1.27C81.36-1.08 81.16-0.94 80.94-0.86C80.72-0.77 80.47-0.73 80.21-0.73C79.95-0.73 79.71-0.77 79.49-0.86C79.26-0.94 79.07-1.08 78.91-1.27C78.74-1.46 78.61-1.72 78.52-2.04C78.42-2.36 78.37-2.76 78.37-3.23L78.37-7.87ZM86.15-4.14L86.15-7.07L87.47-7.07C88.08-7.07 88.56-6.96 88.88-6.76C89.21-6.55 89.38-6.18 89.38-5.66C89.38-5.15 89.21-4.77 88.88-4.52C88.56-4.27 88.08-4.14 87.47-4.14ZM89.47 0L90.60 0L88.61-3.43C89.14-3.57 89.57-3.82 89.89-4.19C90.21-4.56 90.37-5.05 90.37-5.66C90.37-6.07 90.30-6.42 90.17-6.70C90.03-6.98 89.84-7.20 89.60-7.38C89.35-7.56 89.06-7.68 88.72-7.76C88.38-7.83 88.01-7.87 87.61-7.87L85.15-7.87L85.15 0L86.15 0L86.15-3.32L87.58-3.32ZM94.55-7.87L94.55 0L95.54 0L95.54-3.12L96.96-3.12C97.39-3.12 97.79-3.17 98.14-3.27C98.50-3.37 98.80-3.52 99.06-3.72C99.32-3.92 99.51-4.17 99.65-4.48C99.79-4.78 99.86-5.14 99.86-5.56C99.86-5.99 99.79-6.35 99.65-6.65C99.51-6.94 99.32-7.18 99.07-7.36C98.81-7.54 98.51-7.67 98.15-7.75C97.79-7.83 97.39-7.87 96.96-7.87ZM96.84-3.94L95.54-3.94L95.54-7.07L96.84-7.07C97.52-7.07 98.03-6.96 98.36-6.74C98.70-6.52 98.87-6.12 98.87-5.56C98.87-5.00 98.70-4.59 98.37-4.33C98.04-4.07 97.53-3.94 96.84-3.94ZM104.21-3.20L101.84-3.20L102.22-4.40C102.36-4.84 102.50-5.28 102.62-5.72C102.75-6.15 102.88-6.60 103.00-7.06L103.04-7.06C103.17-6.60 103.30-6.15 103.43-5.72C103.56-5.28 103.69-4.84 103.84-4.40ZM104.46-2.40L105.20 0L106.27 0L103.61-7.87L102.48-7.87L99.82 0L100.84 0L101.59-2.40ZM107.41-1.72L106.81-1.02C107.16-0.66 107.56-0.38 108.04-0.17C108.51 0.04 109.02 0.14 109.57 0.14C109.99 0.14 110.36 0.09 110.69-0.03C111.02-0.15 111.30-0.31 111.53-0.51C111.76-0.71 111.94-0.95 112.06-1.22C112.19-1.50 112.25-1.79 112.25-2.10C112.25-2.39 112.21-2.64 112.12-2.86C112.04-3.08 111.92-3.27 111.78-3.44C111.64-3.60 111.46-3.75 111.26-3.87C111.06-3.99 110.85-4.10 110.63-4.20L109.51-4.68C109.35-4.74 109.20-4.81 109.04-4.89C108.89-4.97 108.75-5.05 108.62-5.15C108.50-5.25 108.39-5.37 108.32-5.50C108.24-5.63 108.20-5.80 108.20-5.99C108.20-6.35 108.34-6.63 108.61-6.83C108.87-7.04 109.23-7.14 109.67-7.14C110.04-7.14 110.37-7.07 110.66-6.94C110.95-6.81 111.22-6.63 111.46-6.40L112.00-7.04C111.72-7.33 111.38-7.57 110.98-7.75C110.58-7.93 110.14-8.02 109.67-8.02C109.31-8.02 108.98-7.96 108.68-7.86C108.38-7.76 108.12-7.61 107.90-7.42C107.68-7.23 107.51-7.01 107.38-6.76C107.26-6.50 107.20-6.22 107.20-5.93C107.20-5.64 107.24-5.39 107.34-5.17C107.44-4.95 107.56-4.76 107.71-4.60C107.86-4.44 108.04-4.30 108.23-4.19C108.42-4.08 108.61-3.98 108.79-3.90L109.92-3.41C110.10-3.32 110.28-3.24 110.44-3.16C110.60-3.08 110.73-2.99 110.85-2.89C110.97-2.79 111.06-2.67 111.13-2.53C111.19-2.39 111.23-2.22 111.23-2.02C111.23-1.63 111.08-1.32 110.80-1.09C110.51-0.85 110.10-0.73 109.58-0.73C109.18-0.73 108.78-0.82 108.40-1.00C108.02-1.18 107.69-1.42 107.41-1.72ZM113.65-1.72L113.05-1.02C113.40-0.66 113.80-0.38 114.28-0.17C114.75 0.04 115.26 0.14 115.81 0.14C116.23 0.14 116.60 0.09 116.93-0.03C117.26-0.15 117.54-0.31 117.77-0.51C118.00-0.71 118.18-0.95 118.30-1.22C118.43-1.50 118.49-1.79 118.49-2.10C118.49-2.39 118.45-2.64 118.36-2.86C118.28-3.08 118.16-3.27 118.02-3.44C117.88-3.60 117.70-3.75 117.50-3.87C117.30-3.99 117.09-4.10 116.87-4.20L115.75-4.68C115.59-4.74 115.44-4.81 115.28-4.89C115.13-4.97 114.99-5.05 114.86-5.15C114.74-5.25 114.63-5.37 114.56-5.50C114.48-5.63 114.44-5.80 114.44-5.99C114.44-6.35 114.58-6.63 114.85-6.83C115.11-7.04 115.47-7.14 115.91-7.14C116.28-7.14 116.61-7.07 116.90-6.94C117.19-6.81 117.46-6.63 117.70-6.40L118.24-7.04C117.96-7.33 117.62-7.57 117.22-7.75C116.82-7.93 116.38-8.02 115.91-8.02C115.55-8.02 115.22-7.96 114.92-7.86C114.62-7.76 114.36-7.61 114.14-7.42C113.92-7.23 113.75-7.01 113.62-6.76C113.50-6.50 113.44-6.22 113.44-5.93C113.44-5.64 113.48-5.39 113.58-5.17C113.68-4.95 113.80-4.76 113.95-4.60C114.10-4.44 114.28-4.30 114.47-4.19C114.66-4.08 114.85-3.98 115.03-3.90L116.16-3.41C116.34-3.32 116.52-3.24 116.68-3.16C116.84-3.08 116.97-2.99 117.09-2.89C117.21-2.79 117.30-2.67 117.37-2.53C117.43-2.39 117.47-2.22 117.47-2.02C117.47-1.63 117.32-1.32 117.04-1.09C116.75-0.85 116.34-0.73 115.82-0.73C115.42-0.73 115.02-0.82 114.64-1.00C114.26-1.18 113.93-1.42 113.65-1.72ZM120.04-7.87L120.04 0L121.03 0L121.03-7.87ZM126.10 0.14C126.59 0.14 127.05 0.05 127.46-0.14C127.87-0.34 128.23-0.61 128.53-0.97C128.83-1.32 129.06-1.75 129.22-2.26C129.39-2.77 129.47-3.34 129.47-3.97C129.47-4.60 129.39-5.16 129.22-5.66C129.06-6.16 128.83-6.58 128.53-6.93C128.23-7.28 127.87-7.55 127.46-7.73C127.05-7.92 126.59-8.02 126.10-8.02C125.60-8.02 125.15-7.92 124.73-7.74C124.32-7.56 123.97-7.29 123.67-6.94C123.38-6.59 123.15-6.17 122.98-5.67C122.82-5.17 122.74-4.60 122.74-3.97C122.74-3.34 122.82-2.77 122.98-2.26C123.15-1.75 123.38-1.32 123.67-0.97C123.97-0.61 124.32-0.34 124.73-0.14C125.15 0.05 125.60 0.14 126.10 0.14ZM126.10-0.73C125.74-0.73 125.43-0.81 125.14-0.96C124.86-1.11 124.61-1.33 124.41-1.61C124.21-1.90 124.05-2.24 123.94-2.63C123.82-3.03 123.77-3.48 123.77-3.97C123.77-4.46 123.82-4.90 123.94-5.29C124.05-5.68 124.21-6.02 124.41-6.29C124.61-6.56 124.86-6.77 125.14-6.92C125.43-7.07 125.74-7.14 126.10-7.14C126.45-7.14 126.77-7.07 127.05-6.92C127.33-6.77 127.58-6.56 127.78-6.29C127.99-6.02 128.14-5.68 128.26-5.29C128.37-4.90 128.42-4.46 128.42-3.97C128.42-3.48 128.37-3.03 128.26-2.63C128.14-2.24 127.99-1.90 127.78-1.61C127.58-1.33 127.33-1.11 127.05-0.96C126.77-0.81 126.45-0.73 126.10-0.73ZM131.16-7.87L131.16 0L132.11 0L132.11-4.12C132.11-4.53 132.09-4.95 132.07-5.36C132.04-5.77 132.01-6.18 131.98-6.58L132.02-6.58L132.88-4.96L135.73 0L136.76 0L136.76-7.87L135.82-7.87L135.82-3.80C135.82-3.39 135.83-2.97 135.86-2.54C135.89-2.11 135.91-1.70 135.94-1.30L135.89-1.30L135.04-2.93L132.19-7.87Z" transform="translate(0.012, 8.016)"></path></g></g></g></g></g></g><defs v-gra="od"></defs><defs v-gra="id"><filter id="5ab8c0e5-f750-4828-9978-439834a7fbf3" filterUnits="userSpaceOnUse"><feColorMatrix type="matrix" values="0 0 0 0 0.99609375  0 0 0 0 0.99609375  0 0 0 0 0.99609375  0 0 0 1 0"></feColorMatrix></filter><linearGradient x1="0" y1="1" x2="0" y2="0" id="R_ntg-aBWHDjjuaOw83el"><stop offset="0%" stop-color="#fb2e86"></stop><stop offset="50%" stop-color="#a348ff"></stop><stop offset="100%" stop-color="#3978ff"></stop></linearGradient><filter id="42443b3f1de60f6b6fd3b6a9844b4764" filterUnits="userSpaceOnUse"><feColorMatrix type="matrix" values="0 0 0 0 0.99609375  0 0 0 0 0.99609375  0 0 0 0 0.99609375  0 0 0 1 0"></feColorMatrix></filter></defs><mask v-gra="im" id="2c59154b-1ea7-4623-a039-e0555a86ec9b"><g opacity="0.55" filter="url(#5ab8c0e5-f750-4828-9978-439834a7fbf3)"><g><rect fill="#000000" fill-opacity="0" stroke-width="2" x="0" y="0" width="112.5" height="167.64771626555398" class="image-rect"></rect> <svg x="0" y="0" width="112.5" height="167.64771626555398" filtersec="colorsf4113861660" class="image-svg-svg primary" style="overflow: visible;"><svg xmlns="http://www.w3.org/2000/svg" xmlns:xlink="http://www.w3.org/1999/xlink" version="1.1" x="0px" y="0px" viewBox="32.099998474121094 23.399999618530273 35.70000457763672 53.19999694824219" xml:space="preserve"><g><path d="M52.5,52v-6.9c0-1.1-0.8-1.9-1.9-2V23.9c0-0.3-0.2-0.5-0.5-0.5h-0.2c-0.3,0-0.5,0.2-0.5,0.5v19.2c-1,0.1-1.9,0.9-1.9,2V52   c-8.7,1.2-15.4,8.6-15.4,17.7h35.7C67.8,60.6,61.2,53.2,52.5,52z"></path><path d="M50,76.6c4,0,7.4-2.4,8.9-5.7H41.1C42.6,74.3,46,76.6,50,76.6z"></path></g></svg></svg> <defs><filter id="colors6868722650"><feColorMatrix type="matrix" values="0 0 0 0 0.99609375  0 0 0 0 0  0 0 0 0 0.99609375  0 0 0 1 0" class="icon-fecolormatrix"></feColorMatrix></filter> <filter id="colorsf4113861660"><feColorMatrix type="matrix" values="0 0 0 0 0.99609375  0 0 0 0 0.99609375  0 0 0 0 0.99609375  0 0 0 1 0" class="icon-fecolormatrix"></feColorMatrix></filter> <filter id="colorsb8110473198"><feColorMatrix type="matrix" values="0 0 0 0 0  0 0 0 0 0  0 0 0 0 0  0 0 0 1 0" class="icon-fecolormatrix"></feColorMatrix></filter></defs></g></g></mask></svg>