<svg data-v-70b83f88="" version="1.0" xmlns="http://www.w3.org/2000/svg" xmlns:xlink="http://www.w3.org/1999/xlink"
  width="100%" height="100%" viewBox="22 90 150 80" preserveAspectRatio="xMidYMid meet"
  color-interpolation-filters="sRGB" style="margin: auto;">
  <g data-v-70b83f88="" fill="#FB2E86" class="icon-text-wrapper icon-svg-group iconsvg"
    transform="translate(42.23804473876953,88.21004486083984)">
    <g fill="#c471f5" class="iconsvg-imagesvg icon_container" transform="matrix(1,0,0,1,0,0)"
      mask="url(#31a7030d-7d98-4085-a4f8-751964a7bf66)" opacity="1">
      <rect fill="#FB2E86" fill-opacity="0" stroke-width="2" x="0" y="0" width="73.57990777984891"
        height="73.57990777984891" class="image-rect"></rect> 
        <svg viewBox="0 0 60 61.76715840187772" x="0" y="0"
        width="73.57990777984891" height="73.57990777984891" class="image-svg-svg bn" style="overflow: visible;">
          <g hollow-target="iconBnOutline">
          <g mask="url(#527a0e8d-b262-41d5-8a86-cf4cafac7b5e)"><svg xmlns="http://www.w3.org/2000/svg"
              viewBox="0.00023 0.00334 475.28979 489.28769" style="overflow: visible;" width="60"
              height="61.76715840187772" x="0" y="0" filtersec="colorsf3426116504" filter="url(#JM9nY3uA_sLioR1KG1nw9)">
              <g transform="scale(1, 1) skewX(0)">
                <path
                  d="M348.28 47.86c-6.89-3.19-13.55-6.92-20.81-9.23 3.72 1.61 7.48 3.13 9.24 5.21.26.27 2 1 3 1.52l2.7 1.45c9.94 4.1 18.07 10.92 27.25 16.24-7.43-3.36-13.36-8.49-20.21-12.29a26.45 26.45 0 0 1 5.29 3.56 13.73 13.73 0 0 0 3.56 2.39c4.14 1.77 7.24 4.61 12.68 8C362 61.15 355.5 54.58 348.05 52c-2.14-.8-4.24-1.89-6.35-2.87 9.55 4.13 18.32 9.72 27.19 15.14 37.11 24.73 67.05 60.5 83.28 102.2 1 2.92 2.48 6.34 1.9 8a203 203 0 0 0-19.43-38.16c-3.33-5.32-6.17-11.08-10.53-16-23.45-29.73-53.95-55.26-89.17-69.94-9.75-3.8-19.81-8.42-30.05-10.6-12.7-3.3-25.68-6.38-38.7-6.79-19.66 0-40.35.27-59.59 3.39a208 208 0 0 0-72.79 26.84c-5.89 3.4-10.52 6.6-13 10.16 2.65-.37 9.1-5.37 12.19-5.62-12.37 8.32-24.35 17.94-33.43 28.6 15.43-13.86 33.3-24.79 51.63-33.58A223.51 223.51 0 0 1 211 43.42c20.09-3.73 40.85-3.5 61.15-1.49a229.19 229.19 0 0 0-40.24-.5l3.4-.19c21.89-2.39 44.07 1 65 7.13 2.6.71 4.74 1.35 6.59 2.06 10.29 3.77 20.75 6.72 30.44 11.33a94.88 94.88 0 0 1 17.28 9 157.39 157.39 0 0 1 16.29 10.61c-3.82-1.78-7.35-4.65-11.5-6.8C344 65 327.3 57.91 310 52.41a12.47 12.47 0 0 1 1.68 1.26c1 1.22 4.4 2.91 7.92 4.39 7.69 2.8 13.9 7.94 22 10.7 11.24 7.54 23.94 14.09 33.69 23.61 11.71 9.26 22.22 20.63 31.61 32.52 4 5.15 9.25 11.24 11.17 18-2.89-1.76-5.67-6.69-8.72-10.39-3.39-4.32-6.37-8.91-10.12-12.9a196.22 196.22 0 0 0-53.5-43.82c-6.72-4.22-14-7.44-21.17-10.9-6.47-2.07-12.48-3.34-19.5-6.31-2.77-.92-6.13-1.17-9.44-2.89-2-1-1.89.81-5.62-.32-5.39-1.76-11.18-1.73-16.7-2.68-13.38-1.68-27.3-2.53-40.47-.83-9.63.75-19.16 3-28.69 4.82l-14.57 4-13.82 5.23.43.3c-5.33 1.8-10.18 4.64-15.25 7.13-8.58 3.73-16.5 9.06-24.31 14-19.38 13.86-37.35 30.79-50.16 50.93-6.8 10.73-13.59 22.14-18.81 34-6.84 17.43-12.81 35.39-14.9 54.18a209.6 209.6 0 0 0 0 48.09 196.32 196.32 0 0 0 25.3 75.8c8.07 14.78 18.68 28 30.28 40.31a229.1 229.1 0 0 0 26.93 23.13c14.26 9.09 28.89 18.23 45.18 23.33 5.7 2.31 9.53 4.64 14.61 5.91 9.9 3.12 20.08 4.61 30.25 6.49 8.87.54 17.78 2 26.72 1.65.87 0 .57.26 1.11.33 10.83.16 21.45-.89 32-1.46a18.54 18.54 0 0 0 3.05-.54c9.66-2.83 19.61-3.91 29-7.5l14.92-5.3c.56 1.9-5.76 5.4-8.91 8.33 4.71-2.39 6.89-4 11-5.15 4.48-1.31 13.47-5.95 14-8 .5-1.28.82-1.73 3.5-3.14 2.1-1.11 4.73-2.84 4.44-1.44-.24 1.21 1.42-.1 2.72-1a10.52 10.52 0 0 1 3.45-1.85c3.21-.26 7.41-3.69 11.52-6.2A209.49 209.49 0 0 0 427.36 359c18.19-29.53 29.29-63.79 29.91-98.5.09-3.61.12-7.77 1-11.27a21.7 21.7 0 0 1 .23 6.25c-.89 36.37-10.8 72.72-30 103.91-7.49 13.15-17.1 25-27.34 36.12-3.81 4.63-8.44 8.42-12.78 12.53 6.66-5.4 13.26-10.8 18.77-17.5A71.62 71.62 0 0 1 391 406.39a54.18 54.18 0 0 1 5-3.58 9.34 9.34 0 0 0 3.11-2.71c2.44-3.61 5.68-6 9.94-10.52-5.11 7.81-12.07 13.18-17.37 18.51-5.28 6.24-12.6 10.92-19.25 15.93-6.31 5.44-14.36 8.64-21.35 13.51 2.89.27 3.41.28.55 2.11l14.88-9.06a222.48 222.48 0 0 0 81.89-100.14c1.07-2.85 2.14-6.31 3.65-7.19a183.6 183.6 0 0 1-17.25 39 172.22 172.22 0 0 1-10.6 15.95c-20.76 32.13-52.9 56.9-87.67 73.42a219.4 219.4 0 0 1-30.53 11c-12.82 4.16-26.33 5.16-39.36 7.62-19.89 3.13-41.6 1.82-61.09-2.41a233.55 233.55 0 0 1-73.64-29.43c-3.52-2.2-6.66-3.87-9.56-5.32l2.17 1.42a33.72 33.72 0 0 1-6.6-3.75l-.8-.43c.92 2.86 8.41 7 10.25 9.34-13.78-7.62-26.15-17.92-37.95-27 12.38 12.89 26.16 24.71 41.53 34.12a74.76 74.76 0 0 0 12.52 6.57c3.44 1.46 7.24 3.23 10.53 5 7.84 4.18 16.58 6.47 24.79 10.12 3.43 1.12 7.59 3 10.84 3.29 5.95.65 12.31 2.6 18.49 3.21 15.78 2.49 31.58 2.4 47.84 3a48.72 48.72 0 0 0 5.73-.41 125.19 125.19 0 0 0 13.45-1.56c6.45-1.13 13.2-1.58 19.25-3.11 23.28-5.95 46.08-13.85 67.17-25.55 2.56-1.5 4.72-2.7 6.7-3.64 10.49-6.08 19.78-13.84 28.35-21.84 10.39-9.73 20.53-19.85 29-31.2-1.95 4.22-5.35 7.92-8.69 11.8-12.7 15.31-28.14 28.3-44.72 40a15 15 0 0 1 2.23-.65c1.78 0 5.36-2.35 9-4.75 7.79-5 15.55-9.73 22-17.11 12.5-9.41 21.88-23 32-34.73 9.59-14.38 18.72-29.62 25.44-45.82a163.12 163.12 0 0 1 9.21-22.76c.79 3.92-1.92 10.12-3.77 15.44a129.6 129.6 0 0 1-7.42 17.89 237.34 237.34 0 0 1-46.62 67.36c-7.09 6.19-13.84 12.71-21.38 18.46-6.37 4.81-11.27 10.55-19.52 14.57-3.07 1.63-6.17 4.19-10.29 5.7-2.55.83-.95 2.29-5.27 4.17l-18.24 9c-15.06 6.27-31 10.79-46.53 14.67-11.43 2.29-23.06 4.56-34.92 4.85a157.09 157.09 0 0 1-18.37.45l-18-.63.32.47-20.57-2.7a269.25 269.25 0 0 1-33.5-8.93c-28.19-8.94-54.24-24.62-77.36-42.88-12.32-9.94-23.64-22.08-33.76-34.63-15-18-25.67-39.14-34.69-60.58C15 320.83 9.6 301.47 7.46 281.72a241.54 241.54 0 0 1 7.89-97.89 228.07 228.07 0 0 1 25.14-55.9c7.25-12.3 16.21-23.61 25.51-34.29 13.38-15.43 29.21-28.43 45.7-40.21 6-4.21 11.3-5.52 16.53-8.75a200.37 200.37 0 0 1 33-15.11 191.75 191.75 0 0 1 30-8.57c1-.23.71.12 1.33.06a150.22 150.22 0 0 1 36.52-3.69 35.13 35.13 0 0 0 3.52-.22c11.46-1.2 22.67.26 33.88 1.26a90.16 90.16 0 0 1 17.56 3c-.51 1.47-5.6 1.27-9.92 1.76 8.51 1.49 17.19 2.22 25.5 4.72a7.71 7.71 0 0 0 1.74 0c1.32-.51 1.92-.58 5.1.43 2.49.79 5.87 1.54 4.53 2.28-.2.12.12.27.12.27 6.15 1.54 12 4.07 18 6.19 46 18.39 86.21 51.61 111.86 94.17C460.74 163 471.44 199.89 474 237.07c.3 3.87.7 8.38.23 12.15a24.91 24.91 0 0 1-.88-6.68C472 203.64 460.81 165 440.07 132a212.79 212.79 0 0 0-29.28-38.23 230 230 0 0 0-62.51-45.91zM238.07 19.1c-.83.82 1.21 1.18 3.76 1.37 1.73.17 3.69 0 5.93.3h6.36c1.38 0 4.57.28 3.49-.53-.92-.68-2.67-.64-4.49-.38-3.43.53-6.14.3-7.5-.85-.53-.47-1-1.14-4.38-.82a6.27 6.27 0 0 0-3.17.91zm-139.61 84l-13.1 14.63.22.05zM346 442.52a137.52 137.52 0 0 1-29.65 11.13c-7.12 2.5-15 4.11-18.89 6.66l-1.36.58a213.91 213.91 0 0 0 49.9-18.37zm39.38-31.71l-.69.63.31-.25zm-92.07 39.66c-.58.95 1.29.95 3.61.67l5.36-.88 5.56-1.69c1.19-.38 3.94-1.35 2.76-1.68-1-.31-2.41.41-3.92 1.08-2.81 1.39-5.22 2.06-6.73 1.12-.58-.36-1.16-.93-4 0a5.23 5.23 0 0 0-2.66 1.38zM194.65 47.6l5.72-1.15c1.52-.21 3.36-1 5-1.35l8-1.45a119.44 119.44 0 0 0-18.72 3.95zm-72.78 35.17c4.39-3.16 8.62-6.59 13.58-8.9 2.92-1.52 6.76-3 9-4.9 4-3.82 9.86-5.68 14.78-8.35a91.6 91.6 0 0 1 10.57-5c-17.01 7.02-33.43 15.76-47.93 27.15zM324.5 41.82h-.07c-8-3-16.13-6.18-24.79-7.84l.21.26a158.57 158.57 0 0 1 24.65 7.58z"
                  fill="#000000"></path>
                <path
                  d="M143.37 26.86l1.5-.37c1.29-.14 5.39-2.21 7.81-3.23l21.71-8.94c7.65-2.72 16.93-5.72 25.9-7.13 12.41-1.84 24.88-4 37.69-3.53-17.75-.3-36.21.69-54.21 6.48-4.25 1.38-9.07 2.07-13.44 3.65a76 76 0 0 0-9.4 3.49c-9.33 4.27-18.61 8.53-27.83 11.72-4.17 1.38-5.57 3.41-8.08 4.53-9.32 3.84-19.36 11.77-27.78 16.15C91 54.43 84.84 59.32 79 64.66a121.81 121.81 0 0 0-16.79 16.55C55.05 88.91 49 97.5 42.11 105.6c-5.07 5.69-8.39 12.83-12.54 19.26a249.39 249.39 0 0 0-28.3 73.45c1.3-1.24 2.08-3.58 2.83-6.46 4.66-20.67 13.49-39.88 23.12-58.4 4.7-8.4 10.56-16.71 14.93-25.06a17.13 17.13 0 0 1 3-3.76c7.29-7 14.23-16.77 21.48-24.35a97.42 97.42 0 0 1 16.08-15c3.34-2.39 6.24-5.37 9.73-7.68 6.94-4.74 13.49-10 20.75-14.27 5-3 10.54-6.08 14.91-9.13 5.14-3.31 9.72-5.88 14.87-7.18-21.59 9.72-41.22 23.34-59 38.69a253.52 253.52 0 0 0-35 37.53c-23.07 28.88-38.44 64.74-45 101.6C-.75 228-.65 251.73 1.13 275.18l.74-.05a279.7 279.7 0 0 1 4.61-75.69 263.41 263.41 0 0 1 27.1-70.77c25.15-43.89 63.55-80.5 109.79-101.81zM475.29 163.78l-.82-3A239.14 239.14 0 0 0 425.37 83c20.94 23.8 39.03 50.69 49.92 80.78zM429.05 317.38a22.19 22.19 0 0 0-1.11 2.24 200.53 200.53 0 0 1-38.78 62.17c18.07-18.04 30.77-40.79 39.89-64.41zM81.46 338.85c8.07 13.61 15.83 27.68 27 39.19a83.55 83.55 0 0 0 16.15 15.26 16.44 16.44 0 0 1 2.67 2.49c5 5.9 12.58 11.47 19.73 15.16l14.61 8.66c2.7 1.69 5.55 3.17 8.41 4.69 5.84 2.9 12.06 5 18.12 7.5a91.47 91.47 0 0 0 13.18 3.45c5.28 1.09 9.73 1.08 14 3.42a26.17 26.17 0 0 0 6.51 1.32 96.7 96.7 0 0 0 18.39.42c6.35-.11 13.78-1.16 20.83-1.18 9.71-.38 19.35-2.3 29.1-3.88-13.72 2.36-27.63 2.51-42.05 3.65-3.43.3-7.13-.33-10.69-.53a45.89 45.89 0 0 0-7.69-.31c-7.9.43-15.79-1.41-22.8-3.77-3.08-1.33-4.95-.7-6.89-1.61-7.06-2.9-16.67-4.78-22.62-9.11-11.15-3.94-21.32-10.3-31.42-16.37-7-3.71-13.09-8.94-19-14.13-3.83-4.25-8.33-7.9-12.57-11.77a210.88 210.88 0 0 1-34.13-47.76c-.41 1.42.2 3.19 1.16 5.21z"
                  fill="#000000"></path>
                <path
                  d="M80.9 155.55c-2.31 3.24-3.65 6.89-5 10.39-1.93 5.35-5.47 9.9-7.15 15.58-1.27 3.84-2.86 7.66-4 11.79 3.42-4.78 4.88-12.73 14.08-31.52a181.51 181.51 0 0 1 19.08-29.64l-.93.26a181.69 181.69 0 0 0-16.08 23.14zM97.32 375.32A169.45 169.45 0 0 0 149 419.88c-19.55-11.98-36.65-27.37-51.68-44.56zM296.63 431.13c7.56-1.09 14.17-4.94 21.37-6.9a225 225 0 0 1-56.61 11.29c6.68.73 12.91 0 20.38-1.17 4.85-.79 9.89-2.35 14.86-3.22z"
                  fill="#000000"></path>
                <path
                  d="M69.55 329.83a163.66 163.66 0 0 0 22.08 38.4l.42-.48a175.52 175.52 0 0 1-20.87-35.92c21.13 45.68 61.3 82.31 108.66 99.11A187.31 187.31 0 0 1 118.31 394c-10-9-19.56-18.67-26.92-30.18-16.17-23.94-29.17-51-33.85-80-3.49-18.05-3.44-36.64-2.17-54.95l-.73-.1c-3.75 34.06.9 69.54 15.51 100.81zM71.15 422.67c-3.42-3.82-6.75-7.5-10.31-10.84-5.63-4.9-8.92-11.63-13.61-17.61A129.61 129.61 0 0 1 38 381c2.83 6.77 8.08 16.18 26.66 36.25A236.15 236.15 0 0 0 99 447.93l-.45-1.07c-9.99-7.1-18.62-15.8-27.4-24.19zM76.67 79c-20.21 19.35-37.52 42.2-48.95 68.11A273.23 273.23 0 0 1 76.67 79zM247.41.82c9.89 1 19.79.36 29.45 2.18a229.18 229.18 0 0 0-76.48.44l27-2c6.46-.52 13.44-.73 20.03-.62zM7.48 210.08c3.25-18 8.87-35.67 15.68-52.7l-.62-.1c-6.9 16.92-12.72 34.45-15.67 52.58z"
                  fill="#000000"></path>
              </g>
              <defs>
                <filter id="JM9nY3uA_sLioR1KG1nw9">
                  <feColorMatrix type="matrix"
                    values="0 0 0 0 0.765625  0 0 0 0 0.44140625  0 0 0 0 0.95703125  0 0 0 1 0"></feColorMatrix>
                </filter>
              </defs>
            </svg></g>
          <g filter="url(#colors4687367488)"><svg xmlns="http://www.w3.org/2000/svg"
              xmlns:xlink="http://www.w3.org/1999/xlink" version="1.1" x="10" y="10.294524200938863"
              viewBox="2.5 2.497999906539917 37 45.374000549316406" enable-background="new 0 0 42 50.37"
              xml:space="preserve" width="40" height="41.17811" class="image-svg-icon">
              <path
                d="M39.5,38.498c0-10.032-8.031-18.206-18-18.475V2.498h-1v17.525c-9.969,0.269-18,8.442-18,18.475v0.5h9.032  c0.325,4.946,4.441,8.874,9.468,8.874c5.027,0,9.144-3.928,9.469-8.874H39.5V38.498z M21,46.872c-4.475,0-8.146-3.479-8.468-7.874  h16.937C29.146,43.393,25.475,46.872,21,46.872z M3.507,37.998c0.266-9.419,8.011-17,17.493-17s17.228,7.581,17.493,17H3.507z">
              </path>
            </svg></g>
        </g>
        <mask id="527a0e8d-b262-41d5-8a86-cf4cafac7b5e">
          <g fill="white"><svg xmlns="http://www.w3.org/2000/svg" viewBox="0.00023 0.00334 475.28979 489.28769"
              style="overflow: visible;" width="60" height="61.76715840187772" x="0" y="0"
              filtersec="colorsf3426116504">
              <g transform="scale(1, 1) skewX(0)">
                <path
                  d="M348.28 47.86c-6.89-3.19-13.55-6.92-20.81-9.23 3.72 1.61 7.48 3.13 9.24 5.21.26.27 2 1 3 1.52l2.7 1.45c9.94 4.1 18.07 10.92 27.25 16.24-7.43-3.36-13.36-8.49-20.21-12.29a26.45 26.45 0 0 1 5.29 3.56 13.73 13.73 0 0 0 3.56 2.39c4.14 1.77 7.24 4.61 12.68 8C362 61.15 355.5 54.58 348.05 52c-2.14-.8-4.24-1.89-6.35-2.87 9.55 4.13 18.32 9.72 27.19 15.14 37.11 24.73 67.05 60.5 83.28 102.2 1 2.92 2.48 6.34 1.9 8a203 203 0 0 0-19.43-38.16c-3.33-5.32-6.17-11.08-10.53-16-23.45-29.73-53.95-55.26-89.17-69.94-9.75-3.8-19.81-8.42-30.05-10.6-12.7-3.3-25.68-6.38-38.7-6.79-19.66 0-40.35.27-59.59 3.39a208 208 0 0 0-72.79 26.84c-5.89 3.4-10.52 6.6-13 10.16 2.65-.37 9.1-5.37 12.19-5.62-12.37 8.32-24.35 17.94-33.43 28.6 15.43-13.86 33.3-24.79 51.63-33.58A223.51 223.51 0 0 1 211 43.42c20.09-3.73 40.85-3.5 61.15-1.49a229.19 229.19 0 0 0-40.24-.5l3.4-.19c21.89-2.39 44.07 1 65 7.13 2.6.71 4.74 1.35 6.59 2.06 10.29 3.77 20.75 6.72 30.44 11.33a94.88 94.88 0 0 1 17.28 9 157.39 157.39 0 0 1 16.29 10.61c-3.82-1.78-7.35-4.65-11.5-6.8C344 65 327.3 57.91 310 52.41a12.47 12.47 0 0 1 1.68 1.26c1 1.22 4.4 2.91 7.92 4.39 7.69 2.8 13.9 7.94 22 10.7 11.24 7.54 23.94 14.09 33.69 23.61 11.71 9.26 22.22 20.63 31.61 32.52 4 5.15 9.25 11.24 11.17 18-2.89-1.76-5.67-6.69-8.72-10.39-3.39-4.32-6.37-8.91-10.12-12.9a196.22 196.22 0 0 0-53.5-43.82c-6.72-4.22-14-7.44-21.17-10.9-6.47-2.07-12.48-3.34-19.5-6.31-2.77-.92-6.13-1.17-9.44-2.89-2-1-1.89.81-5.62-.32-5.39-1.76-11.18-1.73-16.7-2.68-13.38-1.68-27.3-2.53-40.47-.83-9.63.75-19.16 3-28.69 4.82l-14.57 4-13.82 5.23.43.3c-5.33 1.8-10.18 4.64-15.25 7.13-8.58 3.73-16.5 9.06-24.31 14-19.38 13.86-37.35 30.79-50.16 50.93-6.8 10.73-13.59 22.14-18.81 34-6.84 17.43-12.81 35.39-14.9 54.18a209.6 209.6 0 0 0 0 48.09 196.32 196.32 0 0 0 25.3 75.8c8.07 14.78 18.68 28 30.28 40.31a229.1 229.1 0 0 0 26.93 23.13c14.26 9.09 28.89 18.23 45.18 23.33 5.7 2.31 9.53 4.64 14.61 5.91 9.9 3.12 20.08 4.61 30.25 6.49 8.87.54 17.78 2 26.72 1.65.87 0 .57.26 1.11.33 10.83.16 21.45-.89 32-1.46a18.54 18.54 0 0 0 3.05-.54c9.66-2.83 19.61-3.91 29-7.5l14.92-5.3c.56 1.9-5.76 5.4-8.91 8.33 4.71-2.39 6.89-4 11-5.15 4.48-1.31 13.47-5.95 14-8 .5-1.28.82-1.73 3.5-3.14 2.1-1.11 4.73-2.84 4.44-1.44-.24 1.21 1.42-.1 2.72-1a10.52 10.52 0 0 1 3.45-1.85c3.21-.26 7.41-3.69 11.52-6.2A209.49 209.49 0 0 0 427.36 359c18.19-29.53 29.29-63.79 29.91-98.5.09-3.61.12-7.77 1-11.27a21.7 21.7 0 0 1 .23 6.25c-.89 36.37-10.8 72.72-30 103.91-7.49 13.15-17.1 25-27.34 36.12-3.81 4.63-8.44 8.42-12.78 12.53 6.66-5.4 13.26-10.8 18.77-17.5A71.62 71.62 0 0 1 391 406.39a54.18 54.18 0 0 1 5-3.58 9.34 9.34 0 0 0 3.11-2.71c2.44-3.61 5.68-6 9.94-10.52-5.11 7.81-12.07 13.18-17.37 18.51-5.28 6.24-12.6 10.92-19.25 15.93-6.31 5.44-14.36 8.64-21.35 13.51 2.89.27 3.41.28.55 2.11l14.88-9.06a222.48 222.48 0 0 0 81.89-100.14c1.07-2.85 2.14-6.31 3.65-7.19a183.6 183.6 0 0 1-17.25 39 172.22 172.22 0 0 1-10.6 15.95c-20.76 32.13-52.9 56.9-87.67 73.42a219.4 219.4 0 0 1-30.53 11c-12.82 4.16-26.33 5.16-39.36 7.62-19.89 3.13-41.6 1.82-61.09-2.41a233.55 233.55 0 0 1-73.64-29.43c-3.52-2.2-6.66-3.87-9.56-5.32l2.17 1.42a33.72 33.72 0 0 1-6.6-3.75l-.8-.43c.92 2.86 8.41 7 10.25 9.34-13.78-7.62-26.15-17.92-37.95-27 12.38 12.89 26.16 24.71 41.53 34.12a74.76 74.76 0 0 0 12.52 6.57c3.44 1.46 7.24 3.23 10.53 5 7.84 4.18 16.58 6.47 24.79 10.12 3.43 1.12 7.59 3 10.84 3.29 5.95.65 12.31 2.6 18.49 3.21 15.78 2.49 31.58 2.4 47.84 3a48.72 48.72 0 0 0 5.73-.41 125.19 125.19 0 0 0 13.45-1.56c6.45-1.13 13.2-1.58 19.25-3.11 23.28-5.95 46.08-13.85 67.17-25.55 2.56-1.5 4.72-2.7 6.7-3.64 10.49-6.08 19.78-13.84 28.35-21.84 10.39-9.73 20.53-19.85 29-31.2-1.95 4.22-5.35 7.92-8.69 11.8-12.7 15.31-28.14 28.3-44.72 40a15 15 0 0 1 2.23-.65c1.78 0 5.36-2.35 9-4.75 7.79-5 15.55-9.73 22-17.11 12.5-9.41 21.88-23 32-34.73 9.59-14.38 18.72-29.62 25.44-45.82a163.12 163.12 0 0 1 9.21-22.76c.79 3.92-1.92 10.12-3.77 15.44a129.6 129.6 0 0 1-7.42 17.89 237.34 237.34 0 0 1-46.62 67.36c-7.09 6.19-13.84 12.71-21.38 18.46-6.37 4.81-11.27 10.55-19.52 14.57-3.07 1.63-6.17 4.19-10.29 5.7-2.55.83-.95 2.29-5.27 4.17l-18.24 9c-15.06 6.27-31 10.79-46.53 14.67-11.43 2.29-23.06 4.56-34.92 4.85a157.09 157.09 0 0 1-18.37.45l-18-.63.32.47-20.57-2.7a269.25 269.25 0 0 1-33.5-8.93c-28.19-8.94-54.24-24.62-77.36-42.88-12.32-9.94-23.64-22.08-33.76-34.63-15-18-25.67-39.14-34.69-60.58C15 320.83 9.6 301.47 7.46 281.72a241.54 241.54 0 0 1 7.89-97.89 228.07 228.07 0 0 1 25.14-55.9c7.25-12.3 16.21-23.61 25.51-34.29 13.38-15.43 29.21-28.43 45.7-40.21 6-4.21 11.3-5.52 16.53-8.75a200.37 200.37 0 0 1 33-15.11 191.75 191.75 0 0 1 30-8.57c1-.23.71.12 1.33.06a150.22 150.22 0 0 1 36.52-3.69 35.13 35.13 0 0 0 3.52-.22c11.46-1.2 22.67.26 33.88 1.26a90.16 90.16 0 0 1 17.56 3c-.51 1.47-5.6 1.27-9.92 1.76 8.51 1.49 17.19 2.22 25.5 4.72a7.71 7.71 0 0 0 1.74 0c1.32-.51 1.92-.58 5.1.43 2.49.79 5.87 1.54 4.53 2.28-.2.12.12.27.12.27 6.15 1.54 12 4.07 18 6.19 46 18.39 86.21 51.61 111.86 94.17C460.74 163 471.44 199.89 474 237.07c.3 3.87.7 8.38.23 12.15a24.91 24.91 0 0 1-.88-6.68C472 203.64 460.81 165 440.07 132a212.79 212.79 0 0 0-29.28-38.23 230 230 0 0 0-62.51-45.91zM238.07 19.1c-.83.82 1.21 1.18 3.76 1.37 1.73.17 3.69 0 5.93.3h6.36c1.38 0 4.57.28 3.49-.53-.92-.68-2.67-.64-4.49-.38-3.43.53-6.14.3-7.5-.85-.53-.47-1-1.14-4.38-.82a6.27 6.27 0 0 0-3.17.91zm-139.61 84l-13.1 14.63.22.05zM346 442.52a137.52 137.52 0 0 1-29.65 11.13c-7.12 2.5-15 4.11-18.89 6.66l-1.36.58a213.91 213.91 0 0 0 49.9-18.37zm39.38-31.71l-.69.63.31-.25zm-92.07 39.66c-.58.95 1.29.95 3.61.67l5.36-.88 5.56-1.69c1.19-.38 3.94-1.35 2.76-1.68-1-.31-2.41.41-3.92 1.08-2.81 1.39-5.22 2.06-6.73 1.12-.58-.36-1.16-.93-4 0a5.23 5.23 0 0 0-2.66 1.38zM194.65 47.6l5.72-1.15c1.52-.21 3.36-1 5-1.35l8-1.45a119.44 119.44 0 0 0-18.72 3.95zm-72.78 35.17c4.39-3.16 8.62-6.59 13.58-8.9 2.92-1.52 6.76-3 9-4.9 4-3.82 9.86-5.68 14.78-8.35a91.6 91.6 0 0 1 10.57-5c-17.01 7.02-33.43 15.76-47.93 27.15zM324.5 41.82h-.07c-8-3-16.13-6.18-24.79-7.84l.21.26a158.57 158.57 0 0 1 24.65 7.58z">
                </path>
                <path
                  d="M143.37 26.86l1.5-.37c1.29-.14 5.39-2.21 7.81-3.23l21.71-8.94c7.65-2.72 16.93-5.72 25.9-7.13 12.41-1.84 24.88-4 37.69-3.53-17.75-.3-36.21.69-54.21 6.48-4.25 1.38-9.07 2.07-13.44 3.65a76 76 0 0 0-9.4 3.49c-9.33 4.27-18.61 8.53-27.83 11.72-4.17 1.38-5.57 3.41-8.08 4.53-9.32 3.84-19.36 11.77-27.78 16.15C91 54.43 84.84 59.32 79 64.66a121.81 121.81 0 0 0-16.79 16.55C55.05 88.91 49 97.5 42.11 105.6c-5.07 5.69-8.39 12.83-12.54 19.26a249.39 249.39 0 0 0-28.3 73.45c1.3-1.24 2.08-3.58 2.83-6.46 4.66-20.67 13.49-39.88 23.12-58.4 4.7-8.4 10.56-16.71 14.93-25.06a17.13 17.13 0 0 1 3-3.76c7.29-7 14.23-16.77 21.48-24.35a97.42 97.42 0 0 1 16.08-15c3.34-2.39 6.24-5.37 9.73-7.68 6.94-4.74 13.49-10 20.75-14.27 5-3 10.54-6.08 14.91-9.13 5.14-3.31 9.72-5.88 14.87-7.18-21.59 9.72-41.22 23.34-59 38.69a253.52 253.52 0 0 0-35 37.53c-23.07 28.88-38.44 64.74-45 101.6C-.75 228-.65 251.73 1.13 275.18l.74-.05a279.7 279.7 0 0 1 4.61-75.69 263.41 263.41 0 0 1 27.1-70.77c25.15-43.89 63.55-80.5 109.79-101.81zM475.29 163.78l-.82-3A239.14 239.14 0 0 0 425.37 83c20.94 23.8 39.03 50.69 49.92 80.78zM429.05 317.38a22.19 22.19 0 0 0-1.11 2.24 200.53 200.53 0 0 1-38.78 62.17c18.07-18.04 30.77-40.79 39.89-64.41zM81.46 338.85c8.07 13.61 15.83 27.68 27 39.19a83.55 83.55 0 0 0 16.15 15.26 16.44 16.44 0 0 1 2.67 2.49c5 5.9 12.58 11.47 19.73 15.16l14.61 8.66c2.7 1.69 5.55 3.17 8.41 4.69 5.84 2.9 12.06 5 18.12 7.5a91.47 91.47 0 0 0 13.18 3.45c5.28 1.09 9.73 1.08 14 3.42a26.17 26.17 0 0 0 6.51 1.32 96.7 96.7 0 0 0 18.39.42c6.35-.11 13.78-1.16 20.83-1.18 9.71-.38 19.35-2.3 29.1-3.88-13.72 2.36-27.63 2.51-42.05 3.65-3.43.3-7.13-.33-10.69-.53a45.89 45.89 0 0 0-7.69-.31c-7.9.43-15.79-1.41-22.8-3.77-3.08-1.33-4.95-.7-6.89-1.61-7.06-2.9-16.67-4.78-22.62-9.11-11.15-3.94-21.32-10.3-31.42-16.37-7-3.71-13.09-8.94-19-14.13-3.83-4.25-8.33-7.9-12.57-11.77a210.88 210.88 0 0 1-34.13-47.76c-.41 1.42.2 3.19 1.16 5.21z">
                </path>
                <path
                  d="M80.9 155.55c-2.31 3.24-3.65 6.89-5 10.39-1.93 5.35-5.47 9.9-7.15 15.58-1.27 3.84-2.86 7.66-4 11.79 3.42-4.78 4.88-12.73 14.08-31.52a181.51 181.51 0 0 1 19.08-29.64l-.93.26a181.69 181.69 0 0 0-16.08 23.14zM97.32 375.32A169.45 169.45 0 0 0 149 419.88c-19.55-11.98-36.65-27.37-51.68-44.56zM296.63 431.13c7.56-1.09 14.17-4.94 21.37-6.9a225 225 0 0 1-56.61 11.29c6.68.73 12.91 0 20.38-1.17 4.85-.79 9.89-2.35 14.86-3.22z">
                </path>
                <path
                  d="M69.55 329.83a163.66 163.66 0 0 0 22.08 38.4l.42-.48a175.52 175.52 0 0 1-20.87-35.92c21.13 45.68 61.3 82.31 108.66 99.11A187.31 187.31 0 0 1 118.31 394c-10-9-19.56-18.67-26.92-30.18-16.17-23.94-29.17-51-33.85-80-3.49-18.05-3.44-36.64-2.17-54.95l-.73-.1c-3.75 34.06.9 69.54 15.51 100.81zM71.15 422.67c-3.42-3.82-6.75-7.5-10.31-10.84-5.63-4.9-8.92-11.63-13.61-17.61A129.61 129.61 0 0 1 38 381c2.83 6.77 8.08 16.18 26.66 36.25A236.15 236.15 0 0 0 99 447.93l-.45-1.07c-9.99-7.1-18.62-15.8-27.4-24.19zM76.67 79c-20.21 19.35-37.52 42.2-48.95 68.11A273.23 273.23 0 0 1 76.67 79zM247.41.82c9.89 1 19.79.36 29.45 2.18a229.18 229.18 0 0 0-76.48.44l27-2c6.46-.52 13.44-.73 20.03-.62zM7.48 210.08c3.25-18 8.87-35.67 15.68-52.7l-.62-.1c-6.9 16.92-12.72 34.45-15.67 52.58z">
                </path>
              </g>
              <defs></defs>
            </svg></g>
          <g fill="black" filter="url(#9a0253e8-f5b1-498c-8f97-8a0688b06d9e)"><svg xmlns="http://www.w3.org/2000/svg"
              xmlns:xlink="http://www.w3.org/1999/xlink" version="1.1" x="10" y="10.294524200938863"
              viewBox="2.5 2.497999906539917 37 45.374000549316406" enable-background="new 0 0 42 50.37"
              xml:space="preserve" width="40" height="41.17811" class="image-svg-icon">
              <path
                d="M39.5,38.498c0-10.032-8.031-18.206-18-18.475V2.498h-1v17.525c-9.969,0.269-18,8.442-18,18.475v0.5h9.032  c0.325,4.946,4.441,8.874,9.468,8.874c5.027,0,9.144-3.928,9.469-8.874H39.5V38.498z M21,46.872c-4.475,0-8.146-3.479-8.468-7.874  h16.937C29.146,43.393,25.475,46.872,21,46.872z M3.507,37.998c0.266-9.419,8.011-17,17.493-17s17.228,7.581,17.493,17H3.507z">
              </path>
            </svg></g>
          <defs>
            <filter id="9a0253e8-f5b1-498c-8f97-8a0688b06d9e">
              <feGaussianBlur in="SourceGraphic" stdDeviation="1.26"></feGaussianBlur>
              <feComponentTransfer>
                <feFuncA type="discrete" tableValues="0 1 1 1 1 1 1 1 1 1 1 1 1 1 0"></feFuncA>
              </feComponentTransfer>
            </filter>
          </defs>
        </mask>
      </svg>
      <defs>
        <filter id="colors4687367488">
          <feColorMatrix type="matrix" values="0 0 0 0 0.765625  0 0 0 0 0.44140625  0 0 0 0 0.95703125  0 0 0 1 0"
            class="icon-fecolormatrix"></feColorMatrix>
        </filter>
        <filter id="colorsf3426116504">
          <feColorMatrix type="matrix" values="0 0 0 0 0.99609375  0 0 0 0 0.99609375  0 0 0 0 0.99609375  0 0 0 1 0"
            class="icon-fecolormatrix"></feColorMatrix>
        </filter>
        <filter id="colorsb1156101514">
          <feColorMatrix type="matrix" values="0 0 0 0 0  0 0 0 0 0  0 0 0 0 0  0 0 0 1 0" class="icon-fecolormatrix">
          </feColorMatrix>
        </filter>
      </defs>
      <rect v-gra="id" width="85.57991027832031" height="85.57991027832031" transform="translate(-6, -6)"
        style="pointer-events:none;" fill="url(#q7mf983kwPDUq2SZ1oEAC)"></rect>
    </g>
  </g>
  <defs v-gra="od"></defs>
  <defs v-gra="id">
    <filter id="d9ddcc75-980b-49d1-a181-5e9b7d7c0b14" filterUnits="userSpaceOnUse">
      <feColorMatrix type="matrix" values="0 0 0 0 0.99609375  0 0 0 0 0.99609375  0 0 0 0 0.99609375  0 0 0 1 0">
      </feColorMatrix>
    </filter>
    <linearGradient x1="0" y1="1" x2="0" y2="0" id="q7mf983kwPDUq2SZ1oEAC">
      <stop offset="0%" stop-color="#fb2e86"></stop>
      <stop offset="100%" stop-color="#fa70cd"></stop>
    </linearGradient>
    <filter id="42443b3f1de60f6b6fd3b6a9844b4764" filterUnits="userSpaceOnUse">
      <feColorMatrix type="matrix" values="0 0 0 0 0.99609375  0 0 0 0 0.99609375  0 0 0 0 0.99609375  0 0 0 1 0">
      </feColorMatrix>
    </filter>
  </defs>
  <mask v-gra="im" id="31a7030d-7d98-4085-a4f8-751964a7bf66">
    <g fill="#c471f5" class="iconsvg-imagesvg icon_container" filter="url(#d9ddcc75-980b-49d1-a181-5e9b7d7c0b14)">
      <rect fill="#FB2E86" fill-opacity="0" stroke-width="2" x="0" y="0" width="73.57990777984891"
        height="73.57990777984891" class="image-rect"></rect> <svg viewBox="0 0 60 61.76715840187772" x="0" y="0"
        width="73.57990777984891" height="73.57990777984891" class="image-svg-svg bn" style="overflow: visible;">
        <g hollow-target="iconBnOutline">
          <g mask="url(#527a0e8d-b262-41d5-8a86-cf4cafac7b5e)"><svg xmlns="http://www.w3.org/2000/svg"
              viewBox="0.00023 0.00334 475.28979 489.28769" style="overflow: visible;" width="60"
              height="61.76715840187772" x="0" y="0" filtersec="colorsf3426116504">
              <g transform="scale(1, 1) skewX(0)">
                <path
                  d="M348.28 47.86c-6.89-3.19-13.55-6.92-20.81-9.23 3.72 1.61 7.48 3.13 9.24 5.21.26.27 2 1 3 1.52l2.7 1.45c9.94 4.1 18.07 10.92 27.25 16.24-7.43-3.36-13.36-8.49-20.21-12.29a26.45 26.45 0 0 1 5.29 3.56 13.73 13.73 0 0 0 3.56 2.39c4.14 1.77 7.24 4.61 12.68 8C362 61.15 355.5 54.58 348.05 52c-2.14-.8-4.24-1.89-6.35-2.87 9.55 4.13 18.32 9.72 27.19 15.14 37.11 24.73 67.05 60.5 83.28 102.2 1 2.92 2.48 6.34 1.9 8a203 203 0 0 0-19.43-38.16c-3.33-5.32-6.17-11.08-10.53-16-23.45-29.73-53.95-55.26-89.17-69.94-9.75-3.8-19.81-8.42-30.05-10.6-12.7-3.3-25.68-6.38-38.7-6.79-19.66 0-40.35.27-59.59 3.39a208 208 0 0 0-72.79 26.84c-5.89 3.4-10.52 6.6-13 10.16 2.65-.37 9.1-5.37 12.19-5.62-12.37 8.32-24.35 17.94-33.43 28.6 15.43-13.86 33.3-24.79 51.63-33.58A223.51 223.51 0 0 1 211 43.42c20.09-3.73 40.85-3.5 61.15-1.49a229.19 229.19 0 0 0-40.24-.5l3.4-.19c21.89-2.39 44.07 1 65 7.13 2.6.71 4.74 1.35 6.59 2.06 10.29 3.77 20.75 6.72 30.44 11.33a94.88 94.88 0 0 1 17.28 9 157.39 157.39 0 0 1 16.29 10.61c-3.82-1.78-7.35-4.65-11.5-6.8C344 65 327.3 57.91 310 52.41a12.47 12.47 0 0 1 1.68 1.26c1 1.22 4.4 2.91 7.92 4.39 7.69 2.8 13.9 7.94 22 10.7 11.24 7.54 23.94 14.09 33.69 23.61 11.71 9.26 22.22 20.63 31.61 32.52 4 5.15 9.25 11.24 11.17 18-2.89-1.76-5.67-6.69-8.72-10.39-3.39-4.32-6.37-8.91-10.12-12.9a196.22 196.22 0 0 0-53.5-43.82c-6.72-4.22-14-7.44-21.17-10.9-6.47-2.07-12.48-3.34-19.5-6.31-2.77-.92-6.13-1.17-9.44-2.89-2-1-1.89.81-5.62-.32-5.39-1.76-11.18-1.73-16.7-2.68-13.38-1.68-27.3-2.53-40.47-.83-9.63.75-19.16 3-28.69 4.82l-14.57 4-13.82 5.23.43.3c-5.33 1.8-10.18 4.64-15.25 7.13-8.58 3.73-16.5 9.06-24.31 14-19.38 13.86-37.35 30.79-50.16 50.93-6.8 10.73-13.59 22.14-18.81 34-6.84 17.43-12.81 35.39-14.9 54.18a209.6 209.6 0 0 0 0 48.09 196.32 196.32 0 0 0 25.3 75.8c8.07 14.78 18.68 28 30.28 40.31a229.1 229.1 0 0 0 26.93 23.13c14.26 9.09 28.89 18.23 45.18 23.33 5.7 2.31 9.53 4.64 14.61 5.91 9.9 3.12 20.08 4.61 30.25 6.49 8.87.54 17.78 2 26.72 1.65.87 0 .57.26 1.11.33 10.83.16 21.45-.89 32-1.46a18.54 18.54 0 0 0 3.05-.54c9.66-2.83 19.61-3.91 29-7.5l14.92-5.3c.56 1.9-5.76 5.4-8.91 8.33 4.71-2.39 6.89-4 11-5.15 4.48-1.31 13.47-5.95 14-8 .5-1.28.82-1.73 3.5-3.14 2.1-1.11 4.73-2.84 4.44-1.44-.24 1.21 1.42-.1 2.72-1a10.52 10.52 0 0 1 3.45-1.85c3.21-.26 7.41-3.69 11.52-6.2A209.49 209.49 0 0 0 427.36 359c18.19-29.53 29.29-63.79 29.91-98.5.09-3.61.12-7.77 1-11.27a21.7 21.7 0 0 1 .23 6.25c-.89 36.37-10.8 72.72-30 103.91-7.49 13.15-17.1 25-27.34 36.12-3.81 4.63-8.44 8.42-12.78 12.53 6.66-5.4 13.26-10.8 18.77-17.5A71.62 71.62 0 0 1 391 406.39a54.18 54.18 0 0 1 5-3.58 9.34 9.34 0 0 0 3.11-2.71c2.44-3.61 5.68-6 9.94-10.52-5.11 7.81-12.07 13.18-17.37 18.51-5.28 6.24-12.6 10.92-19.25 15.93-6.31 5.44-14.36 8.64-21.35 13.51 2.89.27 3.41.28.55 2.11l14.88-9.06a222.48 222.48 0 0 0 81.89-100.14c1.07-2.85 2.14-6.31 3.65-7.19a183.6 183.6 0 0 1-17.25 39 172.22 172.22 0 0 1-10.6 15.95c-20.76 32.13-52.9 56.9-87.67 73.42a219.4 219.4 0 0 1-30.53 11c-12.82 4.16-26.33 5.16-39.36 7.62-19.89 3.13-41.6 1.82-61.09-2.41a233.55 233.55 0 0 1-73.64-29.43c-3.52-2.2-6.66-3.87-9.56-5.32l2.17 1.42a33.72 33.72 0 0 1-6.6-3.75l-.8-.43c.92 2.86 8.41 7 10.25 9.34-13.78-7.62-26.15-17.92-37.95-27 12.38 12.89 26.16 24.71 41.53 34.12a74.76 74.76 0 0 0 12.52 6.57c3.44 1.46 7.24 3.23 10.53 5 7.84 4.18 16.58 6.47 24.79 10.12 3.43 1.12 7.59 3 10.84 3.29 5.95.65 12.31 2.6 18.49 3.21 15.78 2.49 31.58 2.4 47.84 3a48.72 48.72 0 0 0 5.73-.41 125.19 125.19 0 0 0 13.45-1.56c6.45-1.13 13.2-1.58 19.25-3.11 23.28-5.95 46.08-13.85 67.17-25.55 2.56-1.5 4.72-2.7 6.7-3.64 10.49-6.08 19.78-13.84 28.35-21.84 10.39-9.73 20.53-19.85 29-31.2-1.95 4.22-5.35 7.92-8.69 11.8-12.7 15.31-28.14 28.3-44.72 40a15 15 0 0 1 2.23-.65c1.78 0 5.36-2.35 9-4.75 7.79-5 15.55-9.73 22-17.11 12.5-9.41 21.88-23 32-34.73 9.59-14.38 18.72-29.62 25.44-45.82a163.12 163.12 0 0 1 9.21-22.76c.79 3.92-1.92 10.12-3.77 15.44a129.6 129.6 0 0 1-7.42 17.89 237.34 237.34 0 0 1-46.62 67.36c-7.09 6.19-13.84 12.71-21.38 18.46-6.37 4.81-11.27 10.55-19.52 14.57-3.07 1.63-6.17 4.19-10.29 5.7-2.55.83-.95 2.29-5.27 4.17l-18.24 9c-15.06 6.27-31 10.79-46.53 14.67-11.43 2.29-23.06 4.56-34.92 4.85a157.09 157.09 0 0 1-18.37.45l-18-.63.32.47-20.57-2.7a269.25 269.25 0 0 1-33.5-8.93c-28.19-8.94-54.24-24.62-77.36-42.88-12.32-9.94-23.64-22.08-33.76-34.63-15-18-25.67-39.14-34.69-60.58C15 320.83 9.6 301.47 7.46 281.72a241.54 241.54 0 0 1 7.89-97.89 228.07 228.07 0 0 1 25.14-55.9c7.25-12.3 16.21-23.61 25.51-34.29 13.38-15.43 29.21-28.43 45.7-40.21 6-4.21 11.3-5.52 16.53-8.75a200.37 200.37 0 0 1 33-15.11 191.75 191.75 0 0 1 30-8.57c1-.23.71.12 1.33.06a150.22 150.22 0 0 1 36.52-3.69 35.13 35.13 0 0 0 3.52-.22c11.46-1.2 22.67.26 33.88 1.26a90.16 90.16 0 0 1 17.56 3c-.51 1.47-5.6 1.27-9.92 1.76 8.51 1.49 17.19 2.22 25.5 4.72a7.71 7.71 0 0 0 1.74 0c1.32-.51 1.92-.58 5.1.43 2.49.79 5.87 1.54 4.53 2.28-.2.12.12.27.12.27 6.15 1.54 12 4.07 18 6.19 46 18.39 86.21 51.61 111.86 94.17C460.74 163 471.44 199.89 474 237.07c.3 3.87.7 8.38.23 12.15a24.91 24.91 0 0 1-.88-6.68C472 203.64 460.81 165 440.07 132a212.79 212.79 0 0 0-29.28-38.23 230 230 0 0 0-62.51-45.91zM238.07 19.1c-.83.82 1.21 1.18 3.76 1.37 1.73.17 3.69 0 5.93.3h6.36c1.38 0 4.57.28 3.49-.53-.92-.68-2.67-.64-4.49-.38-3.43.53-6.14.3-7.5-.85-.53-.47-1-1.14-4.38-.82a6.27 6.27 0 0 0-3.17.91zm-139.61 84l-13.1 14.63.22.05zM346 442.52a137.52 137.52 0 0 1-29.65 11.13c-7.12 2.5-15 4.11-18.89 6.66l-1.36.58a213.91 213.91 0 0 0 49.9-18.37zm39.38-31.71l-.69.63.31-.25zm-92.07 39.66c-.58.95 1.29.95 3.61.67l5.36-.88 5.56-1.69c1.19-.38 3.94-1.35 2.76-1.68-1-.31-2.41.41-3.92 1.08-2.81 1.39-5.22 2.06-6.73 1.12-.58-.36-1.16-.93-4 0a5.23 5.23 0 0 0-2.66 1.38zM194.65 47.6l5.72-1.15c1.52-.21 3.36-1 5-1.35l8-1.45a119.44 119.44 0 0 0-18.72 3.95zm-72.78 35.17c4.39-3.16 8.62-6.59 13.58-8.9 2.92-1.52 6.76-3 9-4.9 4-3.82 9.86-5.68 14.78-8.35a91.6 91.6 0 0 1 10.57-5c-17.01 7.02-33.43 15.76-47.93 27.15zM324.5 41.82h-.07c-8-3-16.13-6.18-24.79-7.84l.21.26a158.57 158.57 0 0 1 24.65 7.58z"
                  fill="#000000"></path>
                <path
                  d="M143.37 26.86l1.5-.37c1.29-.14 5.39-2.21 7.81-3.23l21.71-8.94c7.65-2.72 16.93-5.72 25.9-7.13 12.41-1.84 24.88-4 37.69-3.53-17.75-.3-36.21.69-54.21 6.48-4.25 1.38-9.07 2.07-13.44 3.65a76 76 0 0 0-9.4 3.49c-9.33 4.27-18.61 8.53-27.83 11.72-4.17 1.38-5.57 3.41-8.08 4.53-9.32 3.84-19.36 11.77-27.78 16.15C91 54.43 84.84 59.32 79 64.66a121.81 121.81 0 0 0-16.79 16.55C55.05 88.91 49 97.5 42.11 105.6c-5.07 5.69-8.39 12.83-12.54 19.26a249.39 249.39 0 0 0-28.3 73.45c1.3-1.24 2.08-3.58 2.83-6.46 4.66-20.67 13.49-39.88 23.12-58.4 4.7-8.4 10.56-16.71 14.93-25.06a17.13 17.13 0 0 1 3-3.76c7.29-7 14.23-16.77 21.48-24.35a97.42 97.42 0 0 1 16.08-15c3.34-2.39 6.24-5.37 9.73-7.68 6.94-4.74 13.49-10 20.75-14.27 5-3 10.54-6.08 14.91-9.13 5.14-3.31 9.72-5.88 14.87-7.18-21.59 9.72-41.22 23.34-59 38.69a253.52 253.52 0 0 0-35 37.53c-23.07 28.88-38.44 64.74-45 101.6C-.75 228-.65 251.73 1.13 275.18l.74-.05a279.7 279.7 0 0 1 4.61-75.69 263.41 263.41 0 0 1 27.1-70.77c25.15-43.89 63.55-80.5 109.79-101.81zM475.29 163.78l-.82-3A239.14 239.14 0 0 0 425.37 83c20.94 23.8 39.03 50.69 49.92 80.78zM429.05 317.38a22.19 22.19 0 0 0-1.11 2.24 200.53 200.53 0 0 1-38.78 62.17c18.07-18.04 30.77-40.79 39.89-64.41zM81.46 338.85c8.07 13.61 15.83 27.68 27 39.19a83.55 83.55 0 0 0 16.15 15.26 16.44 16.44 0 0 1 2.67 2.49c5 5.9 12.58 11.47 19.73 15.16l14.61 8.66c2.7 1.69 5.55 3.17 8.41 4.69 5.84 2.9 12.06 5 18.12 7.5a91.47 91.47 0 0 0 13.18 3.45c5.28 1.09 9.73 1.08 14 3.42a26.17 26.17 0 0 0 6.51 1.32 96.7 96.7 0 0 0 18.39.42c6.35-.11 13.78-1.16 20.83-1.18 9.71-.38 19.35-2.3 29.1-3.88-13.72 2.36-27.63 2.51-42.05 3.65-3.43.3-7.13-.33-10.69-.53a45.89 45.89 0 0 0-7.69-.31c-7.9.43-15.79-1.41-22.8-3.77-3.08-1.33-4.95-.7-6.89-1.61-7.06-2.9-16.67-4.78-22.62-9.11-11.15-3.94-21.32-10.3-31.42-16.37-7-3.71-13.09-8.94-19-14.13-3.83-4.25-8.33-7.9-12.57-11.77a210.88 210.88 0 0 1-34.13-47.76c-.41 1.42.2 3.19 1.16 5.21z"
                  fill="#000000"></path>
                <path
                  d="M80.9 155.55c-2.31 3.24-3.65 6.89-5 10.39-1.93 5.35-5.47 9.9-7.15 15.58-1.27 3.84-2.86 7.66-4 11.79 3.42-4.78 4.88-12.73 14.08-31.52a181.51 181.51 0 0 1 19.08-29.64l-.93.26a181.69 181.69 0 0 0-16.08 23.14zM97.32 375.32A169.45 169.45 0 0 0 149 419.88c-19.55-11.98-36.65-27.37-51.68-44.56zM296.63 431.13c7.56-1.09 14.17-4.94 21.37-6.9a225 225 0 0 1-56.61 11.29c6.68.73 12.91 0 20.38-1.17 4.85-.79 9.89-2.35 14.86-3.22z"
                  fill="#000000"></path>
                <path
                  d="M69.55 329.83a163.66 163.66 0 0 0 22.08 38.4l.42-.48a175.52 175.52 0 0 1-20.87-35.92c21.13 45.68 61.3 82.31 108.66 99.11A187.31 187.31 0 0 1 118.31 394c-10-9-19.56-18.67-26.92-30.18-16.17-23.94-29.17-51-33.85-80-3.49-18.05-3.44-36.64-2.17-54.95l-.73-.1c-3.75 34.06.9 69.54 15.51 100.81zM71.15 422.67c-3.42-3.82-6.75-7.5-10.31-10.84-5.63-4.9-8.92-11.63-13.61-17.61A129.61 129.61 0 0 1 38 381c2.83 6.77 8.08 16.18 26.66 36.25A236.15 236.15 0 0 0 99 447.93l-.45-1.07c-9.99-7.1-18.62-15.8-27.4-24.19zM76.67 79c-20.21 19.35-37.52 42.2-48.95 68.11A273.23 273.23 0 0 1 76.67 79zM247.41.82c9.89 1 19.79.36 29.45 2.18a229.18 229.18 0 0 0-76.48.44l27-2c6.46-.52 13.44-.73 20.03-.62zM7.48 210.08c3.25-18 8.87-35.67 15.68-52.7l-.62-.1c-6.9 16.92-12.72 34.45-15.67 52.58z"
                  fill="#000000"></path>
              </g>
              <defs>
                <filter id="JM9nY3uA_sLioR1KG1nw9">
                  <feColorMatrix type="matrix"
                    values="0 0 0 0 0.765625  0 0 0 0 0.44140625  0 0 0 0 0.95703125  0 0 0 1 0"></feColorMatrix>
                </filter>
              </defs>
            </svg></g>
          <g><svg xmlns="http://www.w3.org/2000/svg" xmlns:xlink="http://www.w3.org/1999/xlink" version="1.1" x="10"
              y="10.294524200938863" viewBox="2.5 2.497999906539917 37 45.374000549316406"
              enable-background="new 0 0 42 50.37" xml:space="preserve" width="40" height="41.17811"
              class="image-svg-icon">
              <path
                d="M39.5,38.498c0-10.032-8.031-18.206-18-18.475V2.498h-1v17.525c-9.969,0.269-18,8.442-18,18.475v0.5h9.032  c0.325,4.946,4.441,8.874,9.468,8.874c5.027,0,9.144-3.928,9.469-8.874H39.5V38.498z M21,46.872c-4.475,0-8.146-3.479-8.468-7.874  h16.937C29.146,43.393,25.475,46.872,21,46.872z M3.507,37.998c0.266-9.419,8.011-17,17.493-17s17.228,7.581,17.493,17H3.507z">
              </path>
            </svg></g>
        </g>
        <mask id="527a0e8d-b262-41d5-8a86-cf4cafac7b5e">
          <g fill="white"><svg xmlns="http://www.w3.org/2000/svg" viewBox="0.00023 0.00334 475.28979 489.28769"
              style="overflow: visible;" width="60" height="61.76715840187772" x="0" y="0"
              filtersec="colorsf3426116504">
              <g transform="scale(1, 1) skewX(0)">
                <path
                  d="M348.28 47.86c-6.89-3.19-13.55-6.92-20.81-9.23 3.72 1.61 7.48 3.13 9.24 5.21.26.27 2 1 3 1.52l2.7 1.45c9.94 4.1 18.07 10.92 27.25 16.24-7.43-3.36-13.36-8.49-20.21-12.29a26.45 26.45 0 0 1 5.29 3.56 13.73 13.73 0 0 0 3.56 2.39c4.14 1.77 7.24 4.61 12.68 8C362 61.15 355.5 54.58 348.05 52c-2.14-.8-4.24-1.89-6.35-2.87 9.55 4.13 18.32 9.72 27.19 15.14 37.11 24.73 67.05 60.5 83.28 102.2 1 2.92 2.48 6.34 1.9 8a203 203 0 0 0-19.43-38.16c-3.33-5.32-6.17-11.08-10.53-16-23.45-29.73-53.95-55.26-89.17-69.94-9.75-3.8-19.81-8.42-30.05-10.6-12.7-3.3-25.68-6.38-38.7-6.79-19.66 0-40.35.27-59.59 3.39a208 208 0 0 0-72.79 26.84c-5.89 3.4-10.52 6.6-13 10.16 2.65-.37 9.1-5.37 12.19-5.62-12.37 8.32-24.35 17.94-33.43 28.6 15.43-13.86 33.3-24.79 51.63-33.58A223.51 223.51 0 0 1 211 43.42c20.09-3.73 40.85-3.5 61.15-1.49a229.19 229.19 0 0 0-40.24-.5l3.4-.19c21.89-2.39 44.07 1 65 7.13 2.6.71 4.74 1.35 6.59 2.06 10.29 3.77 20.75 6.72 30.44 11.33a94.88 94.88 0 0 1 17.28 9 157.39 157.39 0 0 1 16.29 10.61c-3.82-1.78-7.35-4.65-11.5-6.8C344 65 327.3 57.91 310 52.41a12.47 12.47 0 0 1 1.68 1.26c1 1.22 4.4 2.91 7.92 4.39 7.69 2.8 13.9 7.94 22 10.7 11.24 7.54 23.94 14.09 33.69 23.61 11.71 9.26 22.22 20.63 31.61 32.52 4 5.15 9.25 11.24 11.17 18-2.89-1.76-5.67-6.69-8.72-10.39-3.39-4.32-6.37-8.91-10.12-12.9a196.22 196.22 0 0 0-53.5-43.82c-6.72-4.22-14-7.44-21.17-10.9-6.47-2.07-12.48-3.34-19.5-6.31-2.77-.92-6.13-1.17-9.44-2.89-2-1-1.89.81-5.62-.32-5.39-1.76-11.18-1.73-16.7-2.68-13.38-1.68-27.3-2.53-40.47-.83-9.63.75-19.16 3-28.69 4.82l-14.57 4-13.82 5.23.43.3c-5.33 1.8-10.18 4.64-15.25 7.13-8.58 3.73-16.5 9.06-24.31 14-19.38 13.86-37.35 30.79-50.16 50.93-6.8 10.73-13.59 22.14-18.81 34-6.84 17.43-12.81 35.39-14.9 54.18a209.6 209.6 0 0 0 0 48.09 196.32 196.32 0 0 0 25.3 75.8c8.07 14.78 18.68 28 30.28 40.31a229.1 229.1 0 0 0 26.93 23.13c14.26 9.09 28.89 18.23 45.18 23.33 5.7 2.31 9.53 4.64 14.61 5.91 9.9 3.12 20.08 4.61 30.25 6.49 8.87.54 17.78 2 26.72 1.65.87 0 .57.26 1.11.33 10.83.16 21.45-.89 32-1.46a18.54 18.54 0 0 0 3.05-.54c9.66-2.83 19.61-3.91 29-7.5l14.92-5.3c.56 1.9-5.76 5.4-8.91 8.33 4.71-2.39 6.89-4 11-5.15 4.48-1.31 13.47-5.95 14-8 .5-1.28.82-1.73 3.5-3.14 2.1-1.11 4.73-2.84 4.44-1.44-.24 1.21 1.42-.1 2.72-1a10.52 10.52 0 0 1 3.45-1.85c3.21-.26 7.41-3.69 11.52-6.2A209.49 209.49 0 0 0 427.36 359c18.19-29.53 29.29-63.79 29.91-98.5.09-3.61.12-7.77 1-11.27a21.7 21.7 0 0 1 .23 6.25c-.89 36.37-10.8 72.72-30 103.91-7.49 13.15-17.1 25-27.34 36.12-3.81 4.63-8.44 8.42-12.78 12.53 6.66-5.4 13.26-10.8 18.77-17.5A71.62 71.62 0 0 1 391 406.39a54.18 54.18 0 0 1 5-3.58 9.34 9.34 0 0 0 3.11-2.71c2.44-3.61 5.68-6 9.94-10.52-5.11 7.81-12.07 13.18-17.37 18.51-5.28 6.24-12.6 10.92-19.25 15.93-6.31 5.44-14.36 8.64-21.35 13.51 2.89.27 3.41.28.55 2.11l14.88-9.06a222.48 222.48 0 0 0 81.89-100.14c1.07-2.85 2.14-6.31 3.65-7.19a183.6 183.6 0 0 1-17.25 39 172.22 172.22 0 0 1-10.6 15.95c-20.76 32.13-52.9 56.9-87.67 73.42a219.4 219.4 0 0 1-30.53 11c-12.82 4.16-26.33 5.16-39.36 7.62-19.89 3.13-41.6 1.82-61.09-2.41a233.55 233.55 0 0 1-73.64-29.43c-3.52-2.2-6.66-3.87-9.56-5.32l2.17 1.42a33.72 33.72 0 0 1-6.6-3.75l-.8-.43c.92 2.86 8.41 7 10.25 9.34-13.78-7.62-26.15-17.92-37.95-27 12.38 12.89 26.16 24.71 41.53 34.12a74.76 74.76 0 0 0 12.52 6.57c3.44 1.46 7.24 3.23 10.53 5 7.84 4.18 16.58 6.47 24.79 10.12 3.43 1.12 7.59 3 10.84 3.29 5.95.65 12.31 2.6 18.49 3.21 15.78 2.49 31.58 2.4 47.84 3a48.72 48.72 0 0 0 5.73-.41 125.19 125.19 0 0 0 13.45-1.56c6.45-1.13 13.2-1.58 19.25-3.11 23.28-5.95 46.08-13.85 67.17-25.55 2.56-1.5 4.72-2.7 6.7-3.64 10.49-6.08 19.78-13.84 28.35-21.84 10.39-9.73 20.53-19.85 29-31.2-1.95 4.22-5.35 7.92-8.69 11.8-12.7 15.31-28.14 28.3-44.72 40a15 15 0 0 1 2.23-.65c1.78 0 5.36-2.35 9-4.75 7.79-5 15.55-9.73 22-17.11 12.5-9.41 21.88-23 32-34.73 9.59-14.38 18.72-29.62 25.44-45.82a163.12 163.12 0 0 1 9.21-22.76c.79 3.92-1.92 10.12-3.77 15.44a129.6 129.6 0 0 1-7.42 17.89 237.34 237.34 0 0 1-46.62 67.36c-7.09 6.19-13.84 12.71-21.38 18.46-6.37 4.81-11.27 10.55-19.52 14.57-3.07 1.63-6.17 4.19-10.29 5.7-2.55.83-.95 2.29-5.27 4.17l-18.24 9c-15.06 6.27-31 10.79-46.53 14.67-11.43 2.29-23.06 4.56-34.92 4.85a157.09 157.09 0 0 1-18.37.45l-18-.63.32.47-20.57-2.7a269.25 269.25 0 0 1-33.5-8.93c-28.19-8.94-54.24-24.62-77.36-42.88-12.32-9.94-23.64-22.08-33.76-34.63-15-18-25.67-39.14-34.69-60.58C15 320.83 9.6 301.47 7.46 281.72a241.54 241.54 0 0 1 7.89-97.89 228.07 228.07 0 0 1 25.14-55.9c7.25-12.3 16.21-23.61 25.51-34.29 13.38-15.43 29.21-28.43 45.7-40.21 6-4.21 11.3-5.52 16.53-8.75a200.37 200.37 0 0 1 33-15.11 191.75 191.75 0 0 1 30-8.57c1-.23.71.12 1.33.06a150.22 150.22 0 0 1 36.52-3.69 35.13 35.13 0 0 0 3.52-.22c11.46-1.2 22.67.26 33.88 1.26a90.16 90.16 0 0 1 17.56 3c-.51 1.47-5.6 1.27-9.92 1.76 8.51 1.49 17.19 2.22 25.5 4.72a7.71 7.71 0 0 0 1.74 0c1.32-.51 1.92-.58 5.1.43 2.49.79 5.87 1.54 4.53 2.28-.2.12.12.27.12.27 6.15 1.54 12 4.07 18 6.19 46 18.39 86.21 51.61 111.86 94.17C460.74 163 471.44 199.89 474 237.07c.3 3.87.7 8.38.23 12.15a24.91 24.91 0 0 1-.88-6.68C472 203.64 460.81 165 440.07 132a212.79 212.79 0 0 0-29.28-38.23 230 230 0 0 0-62.51-45.91zM238.07 19.1c-.83.82 1.21 1.18 3.76 1.37 1.73.17 3.69 0 5.93.3h6.36c1.38 0 4.57.28 3.49-.53-.92-.68-2.67-.64-4.49-.38-3.43.53-6.14.3-7.5-.85-.53-.47-1-1.14-4.38-.82a6.27 6.27 0 0 0-3.17.91zm-139.61 84l-13.1 14.63.22.05zM346 442.52a137.52 137.52 0 0 1-29.65 11.13c-7.12 2.5-15 4.11-18.89 6.66l-1.36.58a213.91 213.91 0 0 0 49.9-18.37zm39.38-31.71l-.69.63.31-.25zm-92.07 39.66c-.58.95 1.29.95 3.61.67l5.36-.88 5.56-1.69c1.19-.38 3.94-1.35 2.76-1.68-1-.31-2.41.41-3.92 1.08-2.81 1.39-5.22 2.06-6.73 1.12-.58-.36-1.16-.93-4 0a5.23 5.23 0 0 0-2.66 1.38zM194.65 47.6l5.72-1.15c1.52-.21 3.36-1 5-1.35l8-1.45a119.44 119.44 0 0 0-18.72 3.95zm-72.78 35.17c4.39-3.16 8.62-6.59 13.58-8.9 2.92-1.52 6.76-3 9-4.9 4-3.82 9.86-5.68 14.78-8.35a91.6 91.6 0 0 1 10.57-5c-17.01 7.02-33.43 15.76-47.93 27.15zM324.5 41.82h-.07c-8-3-16.13-6.18-24.79-7.84l.21.26a158.57 158.57 0 0 1 24.65 7.58z">
                </path>
                <path
                  d="M143.37 26.86l1.5-.37c1.29-.14 5.39-2.21 7.81-3.23l21.71-8.94c7.65-2.72 16.93-5.72 25.9-7.13 12.41-1.84 24.88-4 37.69-3.53-17.75-.3-36.21.69-54.21 6.48-4.25 1.38-9.07 2.07-13.44 3.65a76 76 0 0 0-9.4 3.49c-9.33 4.27-18.61 8.53-27.83 11.72-4.17 1.38-5.57 3.41-8.08 4.53-9.32 3.84-19.36 11.77-27.78 16.15C91 54.43 84.84 59.32 79 64.66a121.81 121.81 0 0 0-16.79 16.55C55.05 88.91 49 97.5 42.11 105.6c-5.07 5.69-8.39 12.83-12.54 19.26a249.39 249.39 0 0 0-28.3 73.45c1.3-1.24 2.08-3.58 2.83-6.46 4.66-20.67 13.49-39.88 23.12-58.4 4.7-8.4 10.56-16.71 14.93-25.06a17.13 17.13 0 0 1 3-3.76c7.29-7 14.23-16.77 21.48-24.35a97.42 97.42 0 0 1 16.08-15c3.34-2.39 6.24-5.37 9.73-7.68 6.94-4.74 13.49-10 20.75-14.27 5-3 10.54-6.08 14.91-9.13 5.14-3.31 9.72-5.88 14.87-7.18-21.59 9.72-41.22 23.34-59 38.69a253.52 253.52 0 0 0-35 37.53c-23.07 28.88-38.44 64.74-45 101.6C-.75 228-.65 251.73 1.13 275.18l.74-.05a279.7 279.7 0 0 1 4.61-75.69 263.41 263.41 0 0 1 27.1-70.77c25.15-43.89 63.55-80.5 109.79-101.81zM475.29 163.78l-.82-3A239.14 239.14 0 0 0 425.37 83c20.94 23.8 39.03 50.69 49.92 80.78zM429.05 317.38a22.19 22.19 0 0 0-1.11 2.24 200.53 200.53 0 0 1-38.78 62.17c18.07-18.04 30.77-40.79 39.89-64.41zM81.46 338.85c8.07 13.61 15.83 27.68 27 39.19a83.55 83.55 0 0 0 16.15 15.26 16.44 16.44 0 0 1 2.67 2.49c5 5.9 12.58 11.47 19.73 15.16l14.61 8.66c2.7 1.69 5.55 3.17 8.41 4.69 5.84 2.9 12.06 5 18.12 7.5a91.47 91.47 0 0 0 13.18 3.45c5.28 1.09 9.73 1.08 14 3.42a26.17 26.17 0 0 0 6.51 1.32 96.7 96.7 0 0 0 18.39.42c6.35-.11 13.78-1.16 20.83-1.18 9.71-.38 19.35-2.3 29.1-3.88-13.72 2.36-27.63 2.51-42.05 3.65-3.43.3-7.13-.33-10.69-.53a45.89 45.89 0 0 0-7.69-.31c-7.9.43-15.79-1.41-22.8-3.77-3.08-1.33-4.95-.7-6.89-1.61-7.06-2.9-16.67-4.78-22.62-9.11-11.15-3.94-21.32-10.3-31.42-16.37-7-3.71-13.09-8.94-19-14.13-3.83-4.25-8.33-7.9-12.57-11.77a210.88 210.88 0 0 1-34.13-47.76c-.41 1.42.2 3.19 1.16 5.21z">
                </path>
                <path
                  d="M80.9 155.55c-2.31 3.24-3.65 6.89-5 10.39-1.93 5.35-5.47 9.9-7.15 15.58-1.27 3.84-2.86 7.66-4 11.79 3.42-4.78 4.88-12.73 14.08-31.52a181.51 181.51 0 0 1 19.08-29.64l-.93.26a181.69 181.69 0 0 0-16.08 23.14zM97.32 375.32A169.45 169.45 0 0 0 149 419.88c-19.55-11.98-36.65-27.37-51.68-44.56zM296.63 431.13c7.56-1.09 14.17-4.94 21.37-6.9a225 225 0 0 1-56.61 11.29c6.68.73 12.91 0 20.38-1.17 4.85-.79 9.89-2.35 14.86-3.22z">
                </path>
                <path
                  d="M69.55 329.83a163.66 163.66 0 0 0 22.08 38.4l.42-.48a175.52 175.52 0 0 1-20.87-35.92c21.13 45.68 61.3 82.31 108.66 99.11A187.31 187.31 0 0 1 118.31 394c-10-9-19.56-18.67-26.92-30.18-16.17-23.94-29.17-51-33.85-80-3.49-18.05-3.44-36.64-2.17-54.95l-.73-.1c-3.75 34.06.9 69.54 15.51 100.81zM71.15 422.67c-3.42-3.82-6.75-7.5-10.31-10.84-5.63-4.9-8.92-11.63-13.61-17.61A129.61 129.61 0 0 1 38 381c2.83 6.77 8.08 16.18 26.66 36.25A236.15 236.15 0 0 0 99 447.93l-.45-1.07c-9.99-7.1-18.62-15.8-27.4-24.19zM76.67 79c-20.21 19.35-37.52 42.2-48.95 68.11A273.23 273.23 0 0 1 76.67 79zM247.41.82c9.89 1 19.79.36 29.45 2.18a229.18 229.18 0 0 0-76.48.44l27-2c6.46-.52 13.44-.73 20.03-.62zM7.48 210.08c3.25-18 8.87-35.67 15.68-52.7l-.62-.1c-6.9 16.92-12.72 34.45-15.67 52.58z">
                </path>
              </g>
              <defs></defs>
            </svg></g>
          <g fill="black"><svg xmlns="http://www.w3.org/2000/svg" xmlns:xlink="http://www.w3.org/1999/xlink"
              version="1.1" x="10" y="10.294524200938863" viewBox="2.5 2.497999906539917 37 45.374000549316406"
              enable-background="new 0 0 42 50.37" xml:space="preserve" width="40" height="41.17811"
              class="image-svg-icon">
              <path
                d="M39.5,38.498c0-10.032-8.031-18.206-18-18.475V2.498h-1v17.525c-9.969,0.269-18,8.442-18,18.475v0.5h9.032  c0.325,4.946,4.441,8.874,9.468,8.874c5.027,0,9.144-3.928,9.469-8.874H39.5V38.498z M21,46.872c-4.475,0-8.146-3.479-8.468-7.874  h16.937C29.146,43.393,25.475,46.872,21,46.872z M3.507,37.998c0.266-9.419,8.011-17,17.493-17s17.228,7.581,17.493,17H3.507z">
              </path>
            </svg></g>
          <defs>
            <filter id="9a0253e8-f5b1-498c-8f97-8a0688b06d9e">
              <feGaussianBlur in="SourceGraphic" stdDeviation="1.26"></feGaussianBlur>
              <feComponentTransfer>
                <feFuncA type="discrete" tableValues="0 1 1 1 1 1 1 1 1 1 1 1 1 1 0"></feFuncA>
              </feComponentTransfer>
            </filter>
          </defs>
        </mask>
      </svg>
      <defs>
        <filter id="colors4687367488">
          <feColorMatrix type="matrix" values="0 0 0 0 0.765625  0 0 0 0 0.44140625  0 0 0 0 0.95703125  0 0 0 1 0"
            class="icon-fecolormatrix"></feColorMatrix>
        </filter>
        <filter id="colorsf3426116504">
          <feColorMatrix type="matrix" values="0 0 0 0 0.99609375  0 0 0 0 0.99609375  0 0 0 0 0.99609375  0 0 0 1 0"
            class="icon-fecolormatrix"></feColorMatrix>
        </filter>
        <filter id="colorsb1156101514">
          <feColorMatrix type="matrix" values="0 0 0 0 0  0 0 0 0 0  0 0 0 0 0  0 0 0 1 0" class="icon-fecolormatrix">
          </feColorMatrix>
        </filter>
      </defs>
    </g>
  </mask>
</svg>